  0
SECTION
  2
HEADER
  9
$ACADVER
  1
AC1024
  9
$ACADMAINTVER
 70
6
  9
$DWGCODEPAGE
  3
ANSI_1252
  9
$LASTSAVEDBY
  1
ezdxf
  9
$INSBASE
 10
0.0
 20
0.0
 30
0.0
  9
$EXTMIN
 10
1e+20
 20
1e+20
 30
1e+20
  9
$EXTMAX
 10
-1e+20
 20
-1e+20
 30
-1e+20
  9
$LIMMIN
 10
0.0
 20
0.0
  9
$LIMMAX
 10
420.0
 20
297.0
  9
$ORTHOMODE
 70
0
  9
$REGENMODE
 70
1
  9
$FILLMODE
 70
1
  9
$QTEXTMODE
 70
0
  9
$MIRRTEXT
 70
1
  9
$LTSCALE
 40
1.0
  9
$ATTMODE
 70
1
  9
$TEXTSIZE
 40
2.5
  9
$TRACEWID
 40
1.0
  9
$TEXTSTYLE
  7
Standard
  9
$CLAYER
  8
0
  9
$CELTYPE
  6
ByLayer
  9
$CECOLOR
 62
256
  9
$CELTSCALE
 40
1.0
  9
$DISPSILH
 70
0
  9
$DIMSCALE
 40
1.0
  9
$DIMASZ
 40
2.5
  9
$DIMEXO
 40
0.625
  9
$DIMDLI
 40
3.75
  9
$DIMRND
 40
0.0
  9
$DIMDLE
 40
0.0
  9
$DIMEXE
 40
1.25
  9
$DIMTP
 40
0.0
  9
$DIMTM
 40
0.0
  9
$DIMTXT
 40
2.5
  9
$DIMCEN
 40
2.5
  9
$DIMTSZ
 40
0.0
  9
$DIMTOL
 70
0
  9
$DIMLIM
 70
0
  9
$DIMTIH
 70
0
  9
$DIMTOH
 70
0
  9
$DIMSE1
 70
0
  9
$DIMSE2
 70
0
  9
$DIMTAD
 70
1
  9
$DIMZIN
 70
8
  9
$DIMBLK
  1

  9
$DIMASO
 70
1
  9
$DIMSHO
 70
1
  9
$DIMPOST
  1

  9
$DIMAPOST
  1

  9
$DIMALT
 70
0
  9
$DIMALTD
 70
3
  9
$DIMALTF
 40
0.03937007874
  9
$DIMLFAC
 40
1.0
  9
$DIMTOFL
 70
1
  9
$DIMTVP
 40
0.0
  9
$DIMTIX
 70
0
  9
$DIMSOXD
 70
0
  9
$DIMSAH
 70
0
  9
$DIMBLK1
  1

  9
$DIMBLK2
  1

  9
$DIMSTYLE
  2
ISO-25
  9
$DIMCLRD
 70
0
  9
$DIMCLRE
 70
0
  9
$DIMCLRT
 70
0
  9
$DIMTFAC
 40
1.0
  9
$DIMGAP
 40
0.625
  9
$DIMJUST
 70
0
  9
$DIMSD1
 70
0
  9
$DIMSD2
 70
0
  9
$DIMTOLJ
 70
0
  9
$DIMTZIN
 70
8
  9
$DIMALTZ
 70
0
  9
$DIMALTTZ
 70
0
  9
$DIMUPT
 70
0
  9
$DIMDEC
 70
2
  9
$DIMTDEC
 70
2
  9
$DIMALTU
 70
2
  9
$DIMALTTD
 70
3
  9
$DIMTXSTY
  7
Standard
  9
$DIMAUNIT
 70
0
  9
$DIMADEC
 70
0
  9
$DIMALTRND
 40
0.0
  9
$DIMAZIN
 70
0
  9
$DIMDSEP
 70
44
  9
$DIMATFIT
 70
3
  9
$DIMFRAC
 70
0
  9
$DIMLDRBLK
  1

  9
$DIMLUNIT
 70
2
  9
$DIMLWD
 70
-2
  9
$DIMLWE
 70
-2
  9
$DIMTMOVE
 70
0
  9
$DIMFXL
 40
1.0
  9
$DIMFXLON
 70
0
  9
$DIMJOGANG
 40
0.785398163397
  9
$DIMTFILL
 70
0
  9
$DIMTFILLCLR
 70
0
  9
$DIMARCSYM
 70
0
  9
$DIMLTYPE
  6

  9
$DIMLTEX1
  6

  9
$DIMLTEX2
  6

  9
$DIMTXTDIRECTION
 70
0
  9
$LUNITS
 70
2
  9
$LUPREC
 70
4
  9
$SKETCHINC
 40
1.0
  9
$FILLETRAD
 40
10.0
  9
$AUNITS
 70
0
  9
$AUPREC
 70
2
  9
$MENU
  1
.
  9
$ELEVATION
 40
0.0
  9
$PELEVATION
 40
0.0
  9
$THICKNESS
 40
0.0
  9
$LIMCHECK
 70
0
  9
$CHAMFERA
 40
0.0
  9
$CHAMFERB
 40
0.0
  9
$CHAMFERC
 40
0.0
  9
$CHAMFERD
 40
0.0
  9
$SKPOLY
 70
0
  9
$TDCREATE
 40
2461224.620972222
  9
$TDUCREATE
 40
2458532.153996898
  9
$TDUPDATE
 40
2461224.620983796
  9
$TDUUPDATE
 40
2458532.1544311
  9
$TDINDWG
 40
0.0
  9
$TDUSRTIMER
 40
0.0
  9
$USRTIMER
 70
1
  9
$ANGBASE
 50
0.0
  9
$ANGDIR
 70
0
  9
$PDMODE
 70
0
  9
$PDSIZE
 40
0.0
  9
$PLINEWID
 40
0.0
  9
$SPLFRAME
 70
0
  9
$SPLINETYPE
 70
6
  9
$SPLINESEGS
 70
8
  9
$HANDSEED
  5
102
  9
$SURFTAB1
 70
6
  9
$SURFTAB2
 70
6
  9
$SURFTYPE
 70
6
  9
$SURFU
 70
6
  9
$SURFV
 70
6
  9
$UCSBASE
  2

  9
$UCSNAME
  2

  9
$UCSORG
 10
0.0
 20
0.0
 30
0.0
  9
$UCSXDIR
 10
1.0
 20
0.0
 30
0.0
  9
$UCSYDIR
 10
0.0
 20
1.0
 30
0.0
  9
$UCSORTHOREF
  2

  9
$UCSORTHOVIEW
 70
0
  9
$UCSORGTOP
 10
0.0
 20
0.0
 30
0.0
  9
$UCSORGBOTTOM
 10
0.0
 20
0.0
 30
0.0
  9
$UCSORGLEFT
 10
0.0
 20
0.0
 30
0.0
  9
$UCSORGRIGHT
 10
0.0
 20
0.0
 30
0.0
  9
$UCSORGFRONT
 10
0.0
 20
0.0
 30
0.0
  9
$UCSORGBACK
 10
0.0
 20
0.0
 30
0.0
  9
$PUCSBASE
  2

  9
$PUCSNAME
  2

  9
$PUCSORG
 10
0.0
 20
0.0
 30
0.0
  9
$PUCSXDIR
 10
1.0
 20
0.0
 30
0.0
  9
$PUCSYDIR
 10
0.0
 20
1.0
 30
0.0
  9
$PUCSORTHOREF
  2

  9
$PUCSORTHOVIEW
 70
0
  9
$PUCSORGTOP
 10
0.0
 20
0.0
 30
0.0
  9
$PUCSORGBOTTOM
 10
0.0
 20
0.0
 30
0.0
  9
$PUCSORGLEFT
 10
0.0
 20
0.0
 30
0.0
  9
$PUCSORGRIGHT
 10
0.0
 20
0.0
 30
0.0
  9
$PUCSORGFRONT
 10
0.0
 20
0.0
 30
0.0
  9
$PUCSORGBACK
 10
0.0
 20
0.0
 30
0.0
  9
$USERI1
 70
0
  9
$USERI2
 70
0
  9
$USERI3
 70
0
  9
$USERI4
 70
0
  9
$USERI5
 70
0
  9
$USERR1
 40
0.0
  9
$USERR2
 40
0.0
  9
$USERR3
 40
0.0
  9
$USERR4
 40
0.0
  9
$USERR5
 40
0.0
  9
$WORLDVIEW
 70
1
  9
$SHADEDGE
 70
3
  9
$SHADEDIF
 70
70
  9
$TILEMODE
 70
1
  9
$MAXACTVP
 70
64
  9
$PINSBASE
 10
0.0
 20
0.0
 30
0.0
  9
$PLIMCHECK
 70
0
  9
$PEXTMIN
 10
1e+20
 20
1e+20
 30
1e+20
  9
$PEXTMAX
 10
-1e+20
 20
-1e+20
 30
-1e+20
  9
$PLIMMIN
 10
0.0
 20
0.0
  9
$PLIMMAX
 10
420.0
 20
297.0
  9
$UNITMODE
 70
0
  9
$VISRETAIN
 70
1
  9
$PLINEGEN
 70
0
  9
$PSLTSCALE
 70
1
  9
$TREEDEPTH
 70
3020
  9
$CMLSTYLE
  2
Standard
  9
$CMLJUST
 70
0
  9
$CMLSCALE
 40
20.0
  9
$PROXYGRAPHICS
 70
1
  9
$MEASUREMENT
 70
1
  9
$CELWEIGHT
370
-1
  9
$ENDCAPS
280
0
  9
$JOINSTYLE
280
0
  9
$LWDISPLAY
290
0
  9
$INSUNITS
 70
6
  9
$HYPERLINKBASE
  1

  9
$STYLESHEET
  1

  9
$XEDIT
290
1
  9
$CEPSNTYPE
380
0
  9
$PSTYLEMODE
290
1
  9
$FINGERPRINTGUID
  2
{0710A559-524C-46E3-91C3-A57186C84AB8}
  9
$VERSIONGUID
  2
{19A2CEE8-534E-407C-B9A2-7B8E1EC63CA7}
  9
$EXTNAMES
290
1
  9
$PSVPSCALE
 40
0.0
  9
$OLESTARTUP
290
0
  9
$SORTENTS
280
127
  9
$INDEXCTL
280
0
  9
$HIDETEXT
280
1
  9
$XCLIPFRAME
280
1
  9
$HALOGAP
280
0
  9
$OBSCOLOR
 70
257
  9
$OBSLTYPE
280
0
  9
$INTERSECTIONDISPLAY
280
0
  9
$INTERSECTIONCOLOR
 70
257
  9
$DIMASSOC
280
2
  9
$PROJECTNAME
  1

  9
$CAMERADISPLAY
290
0
  9
$LENSLENGTH
 40
50.0
  9
$CAMERAHEIGHT
 40
0.0
  9
$STEPSPERSEC
 40
24.0
  9
$STEPSIZE
 40
100.0
  9
$3DDWFPREC
 40
2.0
  9
$PSOLWIDTH
 40
0.005
  9
$PSOLHEIGHT
 40
0.08
  9
$LOFTANG1
 40
1.570796326795
  9
$LOFTANG2
 40
1.570796326795
  9
$LOFTMAG1
 40
0.0
  9
$LOFTMAG2
 40
0.0
  9
$LOFTPARAM
 70
7
  9
$LOFTNORMALS
280
1
  9
$LATITUDE
 40
37.795
  9
$LONGITUDE
 40
-122.394
  9
$NORTHDIRECTION
 40
0.0
  9
$TIMEZONE
 70
-8000
  9
$LIGHTGLYPHDISPLAY
280
1
  9
$TILEMODELIGHTSYNCH
280
1
  9
$CMATERIAL
347
20
  9
$SOLIDHIST
280
0
  9
$SHOWHIST
280
1
  9
$DWFFRAME
280
2
  9
$DGNFRAME
280
2
  9
$REALWORLDSCALE
290
1
  9
$INTERFERECOLOR
 62
256
  9
$CSHADOW
280
0
  9
$SHADOWPLANELOCATION
 40
0.0
  0
ENDSEC
  0
SECTION
  2
CLASSES
  0
CLASS
  1
ACDBDICTIONARYWDFLT
  2
AcDbDictionaryWithDefault
  3
ObjectDBX Classes
 90
0
 91
0
280
0
281
0
  0
CLASS
  1
SUN
  2
AcDbSun
  3
SCENEOE
 90
1153
 91
0
280
0
281
0
  0
CLASS
  1
VISUALSTYLE
  2
AcDbVisualStyle
  3
ObjectDBX Classes
 90
4095
 91
0
280
0
281
0
  0
CLASS
  1
MATERIAL
  2
AcDbMaterial
  3
ObjectDBX Classes
 90
1153
 91
0
280
0
281
0
  0
CLASS
  1
SCALE
  2
AcDbScale
  3
ObjectDBX Classes
 90
1153
 91
0
280
0
281
0
  0
CLASS
  1
TABLESTYLE
  2
AcDbTableStyle
  3
ObjectDBX Classes
 90
4095
 91
0
280
0
281
0
  0
CLASS
  1
MLEADERSTYLE
  2
AcDbMLeaderStyle
  3
ACDB_MLEADERSTYLE_CLASS
 90
4095
 91
0
280
0
281
0
  0
CLASS
  1
DICTIONARYVAR
  2
AcDbDictionaryVar
  3
ObjectDBX Classes
 90
0
 91
0
280
0
281
0
  0
CLASS
  1
CELLSTYLEMAP
  2
AcDbCellStyleMap
  3
ObjectDBX Classes
 90
1152
 91
0
280
0
281
0
  0
CLASS
  1
MENTALRAYRENDERSETTINGS
  2
AcDbMentalRayRenderSettings
  3
SCENEOE
 90
1024
 91
0
280
0
281
0
  0
CLASS
  1
ACDBDETAILVIEWSTYLE
  2
AcDbDetailViewStyle
  3
ObjectDBX Classes
 90
1025
 91
0
280
0
281
0
  0
CLASS
  1
ACDBSECTIONVIEWSTYLE
  2
AcDbSectionViewStyle
  3
ObjectDBX Classes
 90
1025
 91
0
280
0
281
0
  0
CLASS
  1
RASTERVARIABLES
  2
AcDbRasterVariables
  3
ISM
 90
0
 91
0
280
0
281
0
  0
CLASS
  1
ACDBPLACEHOLDER
  2
AcDbPlaceHolder
  3
ObjectDBX Classes
 90
0
 91
0
280
0
281
0
  0
CLASS
  1
LAYOUT
  2
AcDbLayout
  3
ObjectDBX Classes
 90
0
 91
0
280
0
281
0
  0
ENDSEC
  0
SECTION
  2
TABLES
  0
TABLE
  2
VPORT
  5
8
330
0
100
AcDbSymbolTable
 70
1
  0
VPORT
  5
23
330
8
100
AcDbSymbolTableRecord
100
AcDbViewportTableRecord
  2
*Active
 70
0
 10
0.0
 20
0.0
 11
1.0
 21
1.0
 12
0.0
 22
0.0
 13
0.0
 23
0.0
 14
0.5
 24
0.5
 15
0.5
 25
0.5
 16
0.0
 26
0.0
 36
1.0
 17
0.0
 27
0.0
 37
0.0
 40
1000.0
 41
1.34
 42
50.0
 43
0.0
 44
0.0
 50
0.0
 51
0.0
 71
0
 72
1000
 73
1
 74
3
 75
0
 76
0
 77
0
 78
0
281
0
 65
0
146
0.0
  0
ENDTAB
  0
TABLE
  2
LTYPE
  5
2
330
0
100
AcDbSymbolTable
 70
3
  0
LTYPE
  5
24
330
2
100
AcDbSymbolTableRecord
100
AcDbLinetypeTableRecord
  2
ByBlock
 70
0
  3

 72
65
 73
0
 40
0.0
  0
LTYPE
  5
25
330
2
100
AcDbSymbolTableRecord
100
AcDbLinetypeTableRecord
  2
ByLayer
 70
0
  3

 72
65
 73
0
 40
0.0
  0
LTYPE
  5
26
330
2
100
AcDbSymbolTableRecord
100
AcDbLinetypeTableRecord
  2
Continuous
 70
0
  3

 72
65
 73
0
 40
0.0
  0
ENDTAB
  0
TABLE
  2
LAYER
  5
1
330
0
100
AcDbSymbolTable
 70
11
  0
LAYER
  5
27
330
1
100
AcDbSymbolTableRecord
100
AcDbLayerTableRecord
  2
0
 70
0
 62
7
  6
Continuous
370
-3
390
13
347
21
  0
LAYER
  5
28
330
1
100
AcDbSymbolTableRecord
100
AcDbLayerTableRecord
  2
Defpoints
 70
0
 62
7
  6
Continuous
290
0
370
-3
390
13
347
21
  0
LAYER
  5
2F
330
1
100
AcDbSymbolTableRecord
100
AcDbLayerTableRecord
  2
PEN_7_NIVEL_4
 70
0
 62
8
  6
Continuous
370
-3
390
13
347
21
  0
LAYER
  5
31
330
1
100
AcDbSymbolTableRecord
100
AcDbLayerTableRecord
  2
PEN_6_NIVEL_3
 70
0
 62
5
  6
Continuous
370
-3
390
13
347
21
  0
LAYER
  5
44
330
1
100
AcDbSymbolTableRecord
100
AcDbLayerTableRecord
  2
PEN_5_NIVEL_2
 70
0
 62
30
  6
Continuous
370
-3
390
13
347
21
  0
LAYER
  5
5E
330
1
100
AcDbSymbolTableRecord
100
AcDbLayerTableRecord
  2
PEN_2_NIVEL_3
 70
0
 62
6
  6
Continuous
370
-3
390
13
347
21
  0
LAYER
  5
60
330
1
100
AcDbSymbolTableRecord
100
AcDbLayerTableRecord
  2
PEN_3_NIVEL_4
 70
0
 62
1
  6
Continuous
370
-3
390
13
347
21
  0
LAYER
  5
65
330
1
100
AcDbSymbolTableRecord
100
AcDbLayerTableRecord
  2
PEN_1_NIVEL_2
 70
0
 62
3
  6
Continuous
370
-3
390
13
347
21
  0
LAYER
  5
D0
330
1
100
AcDbSymbolTableRecord
100
AcDbLayerTableRecord
  2
PEN_10_NIVEL_3
 70
0
 62
4
  6
Continuous
370
-3
390
13
347
21
  0
LAYER
  5
D2
330
1
100
AcDbSymbolTableRecord
100
AcDbLayerTableRecord
  2
PEN_11_NIVEL_4
 70
0
 62
6
  6
Continuous
370
-3
390
13
347
21
  0
LAYER
  5
D5
330
1
100
AcDbSymbolTableRecord
100
AcDbLayerTableRecord
  2
PEN_9_NIVEL_2
 70
0
 62
3
  6
Continuous
370
-3
390
13
347
21
  0
ENDTAB
  0
TABLE
  2
STYLE
  5
5
330
0
100
AcDbSymbolTable
 70
1
  0
STYLE
  5
29
330
5
100
AcDbSymbolTableRecord
100
AcDbTextStyleTableRecord
  2
Standard
 70
0
 40
0.0
 41
1.0
 50
0.0
 71
0
 42
2.5
  3
txt
  4

  0
ENDTAB
  0
TABLE
  2
VIEW
  5
7
330
0
100
AcDbSymbolTable
 70
0
  0
ENDTAB
  0
TABLE
  2
UCS
  5
6
330
0
100
AcDbSymbolTable
 70
0
  0
ENDTAB
  0
TABLE
  2
APPID
  5
3
330
0
100
AcDbSymbolTable
 70
3
  0
APPID
  5
2A
330
3
100
AcDbSymbolTableRecord
100
AcDbRegAppTableRecord
  2
ACAD
 70
0
  0
APPID
  5
FF
330
3
100
AcDbSymbolTableRecord
100
AcDbRegAppTableRecord
  2
HATCHBACKGROUNDCOLOR
 70
0
  0
APPID
  5
100
330
3
100
AcDbSymbolTableRecord
100
AcDbRegAppTableRecord
  2
EZDXF
 70
0
  0
ENDTAB
  0
TABLE
  2
DIMSTYLE
  5
4
330
0
100
AcDbSymbolTable
 70
1
100
AcDbDimStyleTable
  0
DIMSTYLE
105
2B
330
4
100
AcDbSymbolTableRecord
100
AcDbDimStyleTableRecord
  2
Standard
 70
0
 40
1.0
 41
2.5
 42
0.625
 43
3.75
 44
1.25
 45
0.0
 46
0.0
 47
0.0
 48
0.0
 49
2.5
140
2.5
141
2.5
142
0.0
143
0.03937007874
144
1.0
145
0.0
146
1.0
147
0.625
148
0.0
 69
0
 70
0
 71
0
 72
0
 73
0
 74
0
 75
0
 76
0
 77
1
 78
8
 79
3
170
0
171
3
172
1
173
0
174
0
175
0
176
0
177
0
178
0
179
2
271
2
272
2
273
2
274
3
275
0
276
0
277
2
278
44
279
0
280
0
281
0
282
0
283
0
284
8
285
0
286
0
288
0
289
3
290
0
371
-2
372
-2
  0
ENDTAB
  0
TABLE
  2
BLOCK_RECORD
  5
9
330
0
100
AcDbSymbolTable
 70
2
  0
BLOCK_RECORD
  5
17
330
9
100
AcDbSymbolTableRecord
100
AcDbBlockTableRecord
  2
*Model_Space
340
1A
 70
0
280
1
281
0
  0
BLOCK_RECORD
  5
1B
330
9
100
AcDbSymbolTableRecord
100
AcDbBlockTableRecord
  2
*Paper_Space
340
1E
 70
0
280
1
281
0
  0
ENDTAB
  0
ENDSEC
  0
SECTION
  2
BLOCKS
  0
BLOCK
  5
18
330
17
100
AcDbEntity
  8
0
100
AcDbBlockBegin
  2
*Model_Space
 70
0
 10
0.0
 20
0.0
 30
0.0
  3
*Model_Space
  1

  0
ENDBLK
  5
19
330
17
100
AcDbEntity
  8
0
100
AcDbBlockEnd
  0
BLOCK
  5
1C
330
1B
100
AcDbEntity
  8
0
100
AcDbBlockBegin
  2
*Paper_Space
 70
0
 10
0.0
 20
0.0
 30
0.0
  3
*Paper_Space
  1

  0
ENDBLK
  5
1D
330
1B
100
AcDbEntity
  8
0
100
AcDbBlockEnd
  0
ENDSEC
  0
SECTION
  2
ENTITIES
  0
LINE
  5
30
330
17
100
AcDbEntity
  8
PEN_7_NIVEL_4
 62
8
100
AcDbLine
 10
0.0
 20
-1.4192149697851097
 30
0.0
 11
0.18905297108347383
 21
-1.4192149697851097
 31
0.0
  0
LINE
  5
32
330
17
100
AcDbEntity
  8
PEN_6_NIVEL_3
 62
5
100
AcDbLine
 10
0.20086878177619094
 20
-1.4192149697851097
 30
0.0
 11
0.4371849956305332
 21
-1.4192149697851097
 31
0.0
  0
LINE
  5
33
330
17
100
AcDbEntity
  8
PEN_7_NIVEL_4
 62
8
100
AcDbLine
 10
0.44900080632325035
 20
-1.4192149697851097
 30
0.0
 11
0.8625541805683493
 21
-1.4192149697851097
 31
0.0
  0
LINE
  5
34
330
17
100
AcDbEntity
  8
PEN_6_NIVEL_3
 62
5
100
AcDbLine
 10
0.8743699912610664
 20
-1.4192149697851097
 30
0.0
 11
0.9807122874955205
 21
-1.4192149697851097
 31
0.0
  0
LINE
  5
35
330
17
100
AcDbEntity
  8
PEN_7_NIVEL_4
 62
8
100
AcDbLine
 10
0.9925280981882376
 20
-1.4192149697851097
 30
0.0
 11
1.4651605258969223
 21
-1.4192149697851097
 31
0.0
  0
LINE
  5
36
330
17
100
AcDbEntity
  8
PEN_6_NIVEL_3
 62
5
100
AcDbLine
 10
1.4769763365896393
 20
-1.4192149697851097
 30
0.0
 11
2.2450040316162516
 21
-1.4192149697851097
 31
0.0
  0
LINE
  5
37
330
17
100
AcDbEntity
  8
PEN_7_NIVEL_4
 62
8
100
AcDbLine
 10
2.256819842308969
 20
-1.4192149697851097
 30
0.0
 11
2.6112941630904825
 21
-1.4192149697851097
 31
0.0
  0
LINE
  5
38
330
17
100
AcDbEntity
  8
PEN_6_NIVEL_3
 62
5
100
AcDbLine
 10
2.6231099737831993
 20
-1.4192149697851097
 30
0.0
 11
2.694004837939502
 21
-1.4192149697851097
 31
0.0
  0
LINE
  5
39
330
17
100
AcDbEntity
  8
PEN_7_NIVEL_4
 62
8
100
AcDbLine
 10
2.7058206486322196
 20
-1.4192149697851097
 30
0.0
 11
2.764899702095805
 21
-1.4192149697851097
 31
0.0
  0
LINE
  5
3A
330
17
100
AcDbEntity
  8
PEN_6_NIVEL_3
 62
5
100
AcDbLine
 10
2.7767155127885217
 20
-1.4192149697851097
 30
0.0
 11
3.6629013147423057
 21
-1.4192149697851097
 31
0.0
  0
LINE
  5
3B
330
17
100
AcDbEntity
  8
PEN_7_NIVEL_4
 62
8
100
AcDbLine
 10
3.6747171254350226
 20
-1.4192149697851097
 30
0.0
 11
3.8401384751330627
 21
-1.4192149697851097
 31
0.0
  0
LINE
  5
3C
330
17
100
AcDbEntity
  8
PEN_6_NIVEL_3
 62
5
100
AcDbLine
 10
3.8519542858257796
 20
-1.4192149697851097
 30
0.0
 11
4.454560631154353
 21
-1.4192149697851097
 31
0.0
  0
LINE
  5
3D
330
17
100
AcDbEntity
  8
PEN_7_NIVEL_4
 62
8
100
AcDbLine
 10
4.4663764418470695
 20
-1.4192149697851097
 30
0.0
 11
4.560902927388806
 21
-1.4192149697851097
 31
0.0
  0
LINE
  5
3E
330
17
100
AcDbEntity
  8
PEN_6_NIVEL_3
 62
5
100
AcDbLine
 10
4.572718738081523
 20
-1.4192149697851097
 30
0.0
 11
5.234404136873682
 21
-1.4192149697851097
 31
0.0
  0
LINE
  5
3F
330
17
100
AcDbEntity
  8
PEN_7_NIVEL_4
 62
8
100
AcDbLine
 10
5.246219947566399
 20
-1.4192149697851097
 30
0.0
 11
5.423457107957155
 21
-1.4192149697851097
 31
0.0
  0
LINE
  5
40
330
17
100
AcDbEntity
  8
PEN_6_NIVEL_3
 62
5
100
AcDbLine
 10
5.435272918649873
 20
-1.4192149697851097
 30
0.0
 11
6.42780101683811
 21
-1.4192149697851097
 31
0.0
  0
LINE
  5
41
330
17
100
AcDbEntity
  8
PEN_7_NIVEL_4
 62
8
100
AcDbLine
 10
6.439616827530828
 20
-1.4192149697851097
 30
0.0
 11
6.522327502379847
 21
-1.4192149697851097
 31
0.0
  0
LINE
  5
42
330
17
100
AcDbEntity
  8
PEN_6_NIVEL_3
 62
5
100
AcDbLine
 10
6.534143313072565
 20
-1.4192149697851097
 30
0.0
 11
7.101302226322986
 21
-1.4192149697851097
 31
0.0
  0
LINE
  5
43
330
17
100
AcDbEntity
  8
PEN_7_NIVEL_4
 62
8
100
AcDbLine
 10
7.113118037015703
 20
-1.4192149697851097
 30
0.0
 11
7.2549077653283085
 21
-1.4192149697851097
 31
0.0
  0
LINE
  5
45
330
17
100
AcDbEntity
  8
PEN_5_NIVEL_2
 62
30
100
AcDbLine
 10
7.266723576021026
 20
-1.4192149697851097
 30
0.0
 11
7.597566275417105
 21
-1.4192149697851097
 31
0.0
  0
LINE
  5
46
330
17
100
AcDbEntity
  8
PEN_6_NIVEL_3
 62
5
100
AcDbLine
 10
7.6093820861098225
 20
-1.4192149697851097
 30
0.0
 11
9.003647747850442
 21
-1.4192149697851097
 31
0.0
  0
LINE
  5
47
330
17
100
AcDbEntity
  8
PEN_7_NIVEL_4
 62
8
100
AcDbLine
 10
9.015463558543157
 20
-1.4192149697851097
 30
0.0
 11
9.109990044084896
 21
-1.4192149697851097
 31
0.0
  0
LINE
  5
48
330
17
100
AcDbEntity
  8
PEN_6_NIVEL_3
 62
5
100
AcDbLine
 10
9.121805854777612
 20
-1.4192149697851097
 30
0.0
 11
10.19704462781487
 21
-1.4192149697851097
 31
0.0
  0
LINE
  5
49
330
17
100
AcDbEntity
  8
PEN_5_NIVEL_2
 62
30
100
AcDbLine
 10
10.208860438507589
 20
-1.4192149697851097
 30
0.0
 11
10.374281788205627
 21
-1.4192149697851097
 31
0.0
  0
LINE
  5
4A
330
17
100
AcDbEntity
  8
PEN_6_NIVEL_3
 62
5
100
AcDbLine
 10
10.386097598898344
 20
-1.4192149697851097
 30
0.0
 11
10.575150569981819
 21
-1.4192149697851097
 31
0.0
  0
LINE
  5
4B
330
17
100
AcDbEntity
  8
PEN_7_NIVEL_4
 62
8
100
AcDbLine
 10
10.586966380674534
 20
-1.4192149697851097
 30
0.0
 11
10.657861244830837
 21
-1.4192149697851097
 31
0.0
  0
LINE
  5
4C
330
17
100
AcDbEntity
  8
PEN_6_NIVEL_3
 62
5
100
AcDbLine
 10
10.669677055523554
 20
-1.4192149697851097
 30
0.0
 11
10.882361647992463
 21
-1.4192149697851097
 31
0.0
  0
LINE
  5
4D
330
17
100
AcDbEntity
  8
PEN_5_NIVEL_2
 62
30
100
AcDbLine
 10
10.894177458685181
 20
-1.4192149697851097
 30
0.0
 11
11.083230429768655
 21
-1.4192149697851097
 31
0.0
  0
LINE
  5
4E
330
17
100
AcDbEntity
  8
PEN_6_NIVEL_3
 62
5
100
AcDbLine
 10
11.09504624046137
 20
-1.4192149697851097
 30
0.0
 11
11.248651779466693
 21
-1.4192149697851097
 31
0.0
  0
LINE
  5
4F
330
17
100
AcDbEntity
  8
PEN_5_NIVEL_2
 62
30
100
AcDbLine
 10
11.260467590159411
 20
-1.4192149697851097
 30
0.0
 11
11.79217907133168
 21
-1.4192149697851097
 31
0.0
  0
LINE
  5
50
330
17
100
AcDbEntity
  8
PEN_6_NIVEL_3
 62
5
100
AcDbLine
 10
11.803994882024398
 20
-1.4192149697851097
 30
0.0
 11
12.359337984582101
 21
-1.4192149697851097
 31
0.0
  0
LINE
  5
51
330
17
100
AcDbEntity
  8
PEN_5_NIVEL_2
 62
30
100
AcDbLine
 10
12.37115379527482
 20
-1.4192149697851097
 30
0.0
 11
12.465680280816557
 21
-1.4192149697851097
 31
0.0
  0
LINE
  5
52
330
17
100
AcDbEntity
  8
PEN_6_NIVEL_3
 62
5
100
AcDbLine
 10
12.477496091509272
 20
-1.4192149697851097
 30
0.0
 11
12.749259737441767
 21
-1.4192149697851097
 31
0.0
  0
LINE
  5
53
330
17
100
AcDbEntity
  8
PEN_5_NIVEL_2
 62
30
100
AcDbLine
 10
12.761075548134484
 20
-1.4192149697851097
 30
0.0
 11
13.540919053853813
 21
-1.4192149697851097
 31
0.0
  0
LINE
  5
54
330
17
100
AcDbEntity
  8
PEN_6_NIVEL_3
 62
5
100
AcDbLine
 10
13.55273486454653
 20
-1.4192149697851097
 30
0.0
 11
15.19513255083421
 21
-1.4192149697851097
 31
0.0
  0
LINE
  5
55
330
17
100
AcDbEntity
  8
PEN_5_NIVEL_2
 62
30
100
AcDbLine
 10
15.206948361526926
 20
-1.4192149697851097
 30
0.0
 11
15.56142268230844
 21
-1.4192149697851097
 31
0.0
  0
LINE
  5
56
330
17
100
AcDbEntity
  8
PEN_7_NIVEL_4
 62
8
100
AcDbLine
 10
15.573238493001156
 20
-1.4192149697851097
 30
0.0
 11
16.05768673140256
 21
-1.4192149697851097
 31
0.0
  0
LINE
  5
57
330
17
100
AcDbEntity
  8
PEN_6_NIVEL_3
 62
5
100
AcDbLine
 10
16.069502542095275
 20
-1.4192149697851097
 30
0.0
 11
16.258555513178752
 21
-1.4192149697851097
 31
0.0
  0
LINE
  5
58
330
17
100
AcDbEntity
  8
PEN_7_NIVEL_4
 62
8
100
AcDbLine
 10
16.270371323871466
 20
-1.4192149697851097
 30
0.0
 11
16.400345241491355
 21
-1.4192149697851097
 31
0.0
  0
LINE
  5
59
330
17
100
AcDbEntity
  8
PEN_6_NIVEL_3
 62
5
100
AcDbLine
 10
16.41216105218407
 20
-1.4192149697851097
 30
0.0
 11
17.180188747210686
 21
-1.4192149697851097
 31
0.0
  0
LINE
  5
5A
330
17
100
AcDbEntity
  8
PEN_7_NIVEL_4
 62
8
100
AcDbLine
 10
17.192004557903402
 20
-1.4192149697851097
 30
0.0
 11
17.298346854137854
 21
-1.4192149697851097
 31
0.0
  0
LINE
  5
5B
330
17
100
AcDbEntity
  8
PEN_6_NIVEL_3
 62
5
100
AcDbLine
 10
17.310162664830575
 20
-1.4192149697851097
 30
0.0
 11
17.499215635914048
 21
-1.4192149697851097
 31
0.0
  0
LINE
  5
5C
330
17
100
AcDbEntity
  8
PEN_7_NIVEL_4
 62
8
100
AcDbLine
 10
17.511031446606765
 20
-1.4192149697851097
 30
0.0
 11
17.57011050007035
 21
-1.4192149697851097
 31
0.0
  0
LINE
  5
5D
330
17
100
AcDbEntity
  8
PEN_6_NIVEL_3
 62
5
100
AcDbLine
 10
17.581926310763066
 20
-1.4192149697851097
 30
0.0
 11
17.90095319946643
 21
-1.4192149697851097
 31
0.0
  0
LINE
  5
5F
330
17
100
AcDbEntity
  8
PEN_2_NIVEL_3
 62
6
100
AcDbLine
 10
0.0
 20
-4.2730225341264445
 30
0.0
 11
0.6026063453285729
 21
-4.2730225341264445
 31
0.0
  0
LINE
  5
61
330
17
100
AcDbEntity
  8
PEN_3_NIVEL_4
 62
1
100
AcDbLine
 10
0.6144221560212899
 20
-4.2730225341264445
 30
0.0
 11
0.8507383698756322
 21
-4.2730225341264445
 31
0.0
  0
LINE
  5
62
330
17
100
AcDbEntity
  8
PEN_2_NIVEL_3
 62
6
100
AcDbLine
 10
0.8625541805683493
 20
-4.2730225341264445
 30
0.0
 11
2.9303210517938445
 21
-4.2730225341264445
 31
0.0
  0
LINE
  5
63
330
17
100
AcDbEntity
  8
PEN_3_NIVEL_4
 62
1
100
AcDbLine
 10
2.942136862486562
 20
-4.2730225341264445
 30
0.0
 11
3.048479158721016
 21
-4.2730225341264445
 31
0.0
  0
LINE
  5
64
330
17
100
AcDbEntity
  8
PEN_2_NIVEL_3
 62
6
100
AcDbLine
 10
3.0602949694137327
 20
-4.2730225341264445
 30
0.0
 11
5.766115618045951
 21
-4.2730225341264445
 31
0.0
  0
LINE
  5
66
330
17
100
AcDbEntity
  8
PEN_1_NIVEL_2
 62
3
100
AcDbLine
 10
5.777931428738669
 20
-4.2730225341264445
 30
0.0
 11
5.872457914280406
 21
-4.2730225341264445
 31
0.0
  0
LINE
  5
67
330
17
100
AcDbEntity
  8
PEN_2_NIVEL_3
 62
6
100
AcDbLine
 10
5.884273724973124
 20
-4.2730225341264445
 30
0.0
 11
6.545959123765282
 21
-4.2730225341264445
 31
0.0
  0
LINE
  5
68
330
17
100
AcDbEntity
  8
PEN_1_NIVEL_2
 62
3
100
AcDbLine
 10
6.557774934457998
 20
-4.2730225341264445
 30
0.0
 11
6.935880876624946
 21
-4.2730225341264445
 31
0.0
  0
LINE
  5
69
330
17
100
AcDbEntity
  8
PEN_2_NIVEL_3
 62
6
100
AcDbLine
 10
6.947696687317664
 20
-4.2730225341264445
 30
0.0
 11
7.313986818791894
 21
-4.2730225341264445
 31
0.0
  0
LINE
  5
6A
330
17
100
AcDbEntity
  8
PEN_1_NIVEL_2
 62
3
100
AcDbLine
 10
7.3258026294846115
 20
-4.2730225341264445
 30
0.0
 11
7.503039789875368
 21
-4.2730225341264445
 31
0.0
  0
LINE
  5
6B
330
17
100
AcDbEntity
  8
PEN_2_NIVEL_3
 62
6
100
AcDbLine
 10
7.514855600568085
 20
-4.2730225341264445
 30
0.0
 11
7.703908571651559
 21
-4.2730225341264445
 31
0.0
  0
LINE
  5
6C
330
17
100
AcDbEntity
  8
PEN_1_NIVEL_2
 62
3
100
AcDbLine
 10
7.715724382344276
 20
-4.2730225341264445
 30
0.0
 11
7.774803435807861
 21
-4.2730225341264445
 31
0.0
  0
LINE
  5
6D
330
17
100
AcDbEntity
  8
PEN_2_NIVEL_3
 62
6
100
AcDbLine
 10
7.786619246500578
 20
-4.2730225341264445
 30
0.0
 11
7.940224785505901
 21
-4.2730225341264445
 31
0.0
  0
LINE
  5
6E
330
17
100
AcDbEntity
  8
PEN_1_NIVEL_2
 62
3
100
AcDbLine
 10
7.952040596198619
 20
-4.2730225341264445
 30
0.0
 11
8.200172620745677
 21
-4.2730225341264445
 31
0.0
  0
LINE
  5
6F
330
17
100
AcDbEntity
  8
PEN_2_NIVEL_3
 62
6
100
AcDbLine
 10
8.211988431438394
 20
-4.2730225341264445
 30
0.0
 11
8.637357616376212
 21
-4.2730225341264445
 31
0.0
  0
LINE
  5
70
330
17
100
AcDbEntity
  8
PEN_1_NIVEL_2
 62
3
100
AcDbLine
 10
8.649173427068927
 20
-4.2730225341264445
 30
0.0
 11
8.873673830230553
 21
-4.2730225341264445
 31
0.0
  0
LINE
  5
71
330
17
100
AcDbEntity
  8
PEN_2_NIVEL_3
 62
6
100
AcDbLine
 10
8.885489640923272
 20
-4.2730225341264445
 30
0.0
 11
9.960728413960528
 21
-4.2730225341264445
 31
0.0
  0
LINE
  5
72
330
17
100
AcDbEntity
  8
PEN_1_NIVEL_2
 62
3
100
AcDbLine
 10
9.972544224653245
 20
-4.2730225341264445
 30
0.0
 11
11.284099211544843
 21
-4.2730225341264445
 31
0.0
  0
LINE
  5
73
330
17
100
AcDbEntity
  8
PEN_2_NIVEL_3
 62
6
100
AcDbLine
 10
11.295915022237562
 20
-4.2730225341264445
 30
0.0
 11
11.8748897461807
 21
-4.2730225341264445
 31
0.0
  0
LINE
  5
74
330
17
100
AcDbEntity
  8
PEN_1_NIVEL_2
 62
3
100
AcDbLine
 10
11.886705556873418
 20
-4.2730225341264445
 30
0.0
 11
11.945784610337004
 21
-4.2730225341264445
 31
0.0
  0
LINE
  5
75
330
17
100
AcDbEntity
  8
PEN_2_NIVEL_3
 62
6
100
AcDbLine
 10
11.95760042102972
 20
-4.2730225341264445
 30
0.0
 11
15.31329065776138
 21
-4.2730225341264445
 31
0.0
  0
LINE
  5
76
330
17
100
AcDbEntity
  8
PEN_1_NIVEL_2
 62
3
100
AcDbLine
 10
15.325106468454099
 20
-4.2730225341264445
 30
0.0
 11
15.407817143303118
 21
-4.2730225341264445
 31
0.0
  0
LINE
  5
77
330
17
100
AcDbEntity
  8
PEN_2_NIVEL_3
 62
6
100
AcDbLine
 10
15.419632953995833
 20
-4.2730225341264445
 30
0.0
 11
16.83753023712189
 21
-4.2730225341264445
 31
0.0
  0
LINE
  5
78
330
17
100
AcDbEntity
  8
PEN_3_NIVEL_4
 62
1
100
AcDbLine
 10
16.849346047814606
 20
-4.2730225341264445
 30
0.0
 11
17.03839901889808
 21
-4.2730225341264445
 31
0.0
  0
LINE
  5
79
330
17
100
AcDbEntity
  8
PEN_1_NIVEL_2
 62
3
100
AcDbLine
 10
17.050214829590796
 20
-4.2730225341264445
 30
0.0
 11
17.132925504439818
 21
-4.2730225341264445
 31
0.0
  0
LINE
  5
7A
330
17
100
AcDbEntity
  8
PEN_2_NIVEL_3
 62
6
100
AcDbLine
 10
17.144741315132535
 20
-4.2730225341264445
 30
0.0
 11
17.251083611366987
 21
-4.2730225341264445
 31
0.0
  0
LINE
  5
7B
330
17
100
AcDbEntity
  8
PEN_3_NIVEL_4
 62
1
100
AcDbLine
 10
17.262899422059704
 20
-4.2730225341264445
 30
0.0
 11
17.44013658245046
 21
-4.2730225341264445
 31
0.0
  0
LINE
  5
7C
330
17
100
AcDbEntity
  8
PEN_2_NIVEL_3
 62
6
100
AcDbLine
 10
17.45195239314318
 20
-4.2730225341264445
 30
0.0
 11
17.90095319946643
 21
-4.2730225341264445
 31
0.0
  0
LINE
  5
7D
330
17
100
AcDbEntity
  8
PEN_3_NIVEL_4
 62
1
100
AcDbLine
 10
0.0
 20
-7.458427607168551
 30
0.0
 11
0.0708948641563027
 21
-7.458427607168551
 31
0.0
  0
LINE
  5
7E
330
17
100
AcDbEntity
  8
PEN_2_NIVEL_3
 62
6
100
AcDbLine
 10
0.0827106748490198
 20
-7.458427607168551
 30
0.0
 11
0.4608166170159675
 21
-7.458427607168551
 31
0.0
  0
LINE
  5
7F
330
17
100
AcDbEntity
  8
PEN_1_NIVEL_2
 62
3
100
AcDbLine
 10
0.4726324277086846
 20
-7.458427607168551
 30
0.0
 11
0.5907905346358556
 21
-7.458427607168551
 31
0.0
  0
LINE
  5
80
330
17
100
AcDbEntity
  8
PEN_2_NIVEL_3
 62
6
100
AcDbLine
 10
0.6026063453285729
 20
-7.458427607168551
 30
0.0
 11
0.6735012094848755
 21
-7.458427607168551
 31
0.0
  0
LINE
  5
81
330
17
100
AcDbEntity
  8
PEN_1_NIVEL_2
 62
3
100
AcDbLine
 10
0.6853170201775926
 20
-7.458427607168551
 30
0.0
 11
0.8152909377974809
 21
-7.458427607168551
 31
0.0
  0
LINE
  5
82
330
17
100
AcDbEntity
  8
PEN_2_NIVEL_3
 62
6
100
AcDbLine
 10
0.827106748490198
 20
-7.458427607168551
 30
0.0
 11
0.921633234031935
 21
-7.458427607168551
 31
0.0
  0
LINE
  5
83
330
17
100
AcDbEntity
  8
PEN_1_NIVEL_2
 62
3
100
AcDbLine
 10
0.9334490447246521
 20
-7.458427607168551
 30
0.0
 11
1.027975530266389
 21
-7.458427607168551
 31
0.0
  0
LINE
  5
84
330
17
100
AcDbEntity
  8
PEN_2_NIVEL_3
 62
6
100
AcDbLine
 10
1.0397913409591062
 20
-7.458427607168551
 30
0.0
 11
1.1343178265008431
 21
-7.458427607168551
 31
0.0
  0
LINE
  5
85
330
17
100
AcDbEntity
  8
PEN_1_NIVEL_2
 62
3
100
AcDbLine
 10
1.1461336371935602
 20
-7.458427607168551
 30
0.0
 11
1.2052126906571459
 21
-7.458427607168551
 31
0.0
  0
LINE
  5
86
330
17
100
AcDbEntity
  8
PEN_2_NIVEL_3
 62
6
100
AcDbLine
 10
1.2170285013498627
 20
-7.458427607168551
 30
0.0
 11
1.2761075548134486
 21
-7.458427607168551
 31
0.0
  0
LINE
  5
87
330
17
100
AcDbEntity
  8
PEN_1_NIVEL_2
 62
3
100
AcDbLine
 10
1.2879233655061655
 20
-7.458427607168551
 30
0.0
 11
1.5715028221313763
 21
-7.458427607168551
 31
0.0
  0
LINE
  5
88
330
17
100
AcDbEntity
  8
PEN_2_NIVEL_3
 62
6
100
AcDbLine
 10
1.5833186328240934
 20
-7.458427607168551
 30
0.0
 11
1.6660293076731132
 21
-7.458427607168551
 31
0.0
  0
LINE
  5
89
330
17
100
AcDbEntity
  8
PEN_1_NIVEL_2
 62
3
100
AcDbLine
 10
1.6778451183658303
 20
-7.458427607168551
 30
0.0
 11
1.7605557932148501
 21
-7.458427607168551
 31
0.0
  0
LINE
  5
8A
330
17
100
AcDbEntity
  8
PEN_2_NIVEL_3
 62
6
100
AcDbLine
 10
1.7723716039075672
 20
-7.458427607168551
 30
0.0
 11
2.1859249781526664
 21
-7.458427607168551
 31
0.0
  0
LINE
  5
8B
330
17
100
AcDbEntity
  8
PEN_3_NIVEL_4
 62
1
100
AcDbLine
 10
2.1977407888453833
 20
-7.458427607168551
 30
0.0
 11
2.3040830850798373
 21
-7.458427607168551
 31
0.0
  0
LINE
  5
8C
330
17
100
AcDbEntity
  8
PEN_2_NIVEL_3
 62
6
100
AcDbLine
 10
2.315898895772554
 20
-7.458427607168551
 30
0.0
 11
2.599478352397765
 21
-7.458427607168551
 31
0.0
  0
LINE
  5
8D
330
17
100
AcDbEntity
  8
PEN_1_NIVEL_2
 62
3
100
AcDbLine
 10
2.6112941630904825
 20
-7.458427607168551
 30
0.0
 11
2.9066894304084103
 21
-7.458427607168551
 31
0.0
  0
LINE
  5
8E
330
17
100
AcDbEntity
  8
PEN_2_NIVEL_3
 62
6
100
AcDbLine
 10
2.918505241101127
 20
-7.458427607168551
 30
0.0
 11
2.977584294564713
 21
-7.458427607168551
 31
0.0
  0
LINE
  5
8F
330
17
100
AcDbEntity
  8
PEN_1_NIVEL_2
 62
3
100
AcDbLine
 10
2.98940010525743
 20
-7.458427607168551
 30
0.0
 11
3.2493479404972065
 21
-7.458427607168551
 31
0.0
  0
LINE
  5
90
330
17
100
AcDbEntity
  8
PEN_2_NIVEL_3
 62
6
100
AcDbLine
 10
3.2611637511899234
 20
-7.458427607168551
 30
0.0
 11
4.30095509214903
 21
-7.458427607168551
 31
0.0
  0
LINE
  5
91
330
17
100
AcDbEntity
  8
PEN_1_NIVEL_2
 62
3
100
AcDbLine
 10
4.312770902841747
 20
-7.458427607168551
 30
0.0
 11
5.0453511657902075
 21
-7.458427607168551
 31
0.0
  0
LINE
  5
92
330
17
100
AcDbEntity
  8
PEN_2_NIVEL_3
 62
6
100
AcDbLine
 10
5.057166976482925
 20
-7.458427607168551
 30
0.0
 11
5.600694268347913
 21
-7.458427607168551
 31
0.0
  0
LINE
  5
93
330
17
100
AcDbEntity
  8
PEN_1_NIVEL_2
 62
3
100
AcDbLine
 10
5.6125100790406295
 20
-7.458427607168551
 30
0.0
 11
5.801563050124103
 21
-7.458427607168551
 31
0.0
  0
LINE
  5
94
330
17
100
AcDbEntity
  8
PEN_2_NIVEL_3
 62
6
100
AcDbLine
 10
5.813378860816821
 20
-7.458427607168551
 30
0.0
 11
5.990616021207577
 21
-7.458427607168551
 31
0.0
  0
LINE
  5
95
330
17
100
AcDbEntity
  8
PEN_1_NIVEL_2
 62
3
100
AcDbLine
 10
6.002431831900294
 20
-7.458427607168551
 30
0.0
 11
8.034751271047638
 21
-7.458427607168551
 31
0.0
  0
LINE
  5
96
330
17
100
AcDbEntity
  8
PEN_2_NIVEL_3
 62
6
100
AcDbLine
 10
8.046567081740355
 20
-7.458427607168551
 30
0.0
 11
8.10564613520394
 21
-7.458427607168551
 31
0.0
  0
LINE
  5
97
330
17
100
AcDbEntity
  8
PEN_1_NIVEL_2
 62
3
100
AcDbLine
 10
8.117461945896657
 20
-7.458427607168551
 30
0.0
 11
8.7673315339961
 21
-7.458427607168551
 31
0.0
  0
LINE
  5
98
330
17
100
AcDbEntity
  8
PEN_2_NIVEL_3
 62
6
100
AcDbLine
 10
8.779147344688816
 20
-7.458427607168551
 30
0.0
 11
9.21633234031935
 21
-7.458427607168551
 31
0.0
  0
LINE
  5
99
330
17
100
AcDbEntity
  8
PEN_1_NIVEL_2
 62
3
100
AcDbLine
 10
9.228148151012066
 20
-7.458427607168551
 30
0.0
 11
9.310858825861088
 21
-7.458427607168551
 31
0.0
  0
LINE
  5
9A
330
17
100
AcDbEntity
  8
PEN_2_NIVEL_3
 62
6
100
AcDbLine
 10
9.322674636553804
 20
-7.458427607168551
 30
0.0
 11
10.043439088809547
 21
-7.458427607168551
 31
0.0
  0
LINE
  5
9B
330
17
100
AcDbEntity
  8
PEN_1_NIVEL_2
 62
3
100
AcDbLine
 10
10.055254899502264
 20
-7.458427607168551
 30
0.0
 11
11.071414619075936
 21
-7.458427607168551
 31
0.0
  0
LINE
  5
9C
330
17
100
AcDbEntity
  8
PEN_2_NIVEL_3
 62
6
100
AcDbLine
 10
11.083230429768655
 20
-7.458427607168551
 30
0.0
 11
11.378625697086582
 21
-7.458427607168551
 31
0.0
  0
LINE
  5
9D
330
17
100
AcDbEntity
  8
PEN_1_NIVEL_2
 62
3
100
AcDbLine
 10
11.390441507779299
 20
-7.458427607168551
 30
0.0
 11
13.245523786535886
 21
-7.458427607168551
 31
0.0
  0
LINE
  5
9E
330
17
100
AcDbEntity
  8
PEN_2_NIVEL_3
 62
6
100
AcDbLine
 10
13.257339597228603
 20
-7.458427607168551
 30
0.0
 11
13.930840806713478
 21
-7.458427607168551
 31
0.0
  0
LINE
  5
9F
330
17
100
AcDbEntity
  8
PEN_1_NIVEL_2
 62
3
100
AcDbLine
 10
13.942656617406195
 20
-7.458427607168551
 30
0.0
 11
14.013551481562498
 21
-7.458427607168551
 31
0.0
  0
LINE
  5
A0
330
17
100
AcDbEntity
  8
PEN_2_NIVEL_3
 62
6
100
AcDbLine
 10
14.025367292255215
 20
-7.458427607168551
 30
0.0
 11
14.46255228788575
 21
-7.458427607168551
 31
0.0
  0
LINE
  5
A1
330
17
100
AcDbEntity
  8
PEN_1_NIVEL_2
 62
3
100
AcDbLine
 10
14.474368098578466
 20
-7.458427607168551
 30
0.0
 11
14.545262962734768
 21
-7.458427607168551
 31
0.0
  0
LINE
  5
A2
330
17
100
AcDbEntity
  8
PEN_2_NIVEL_3
 62
6
100
AcDbLine
 10
14.557078773427484
 20
-7.458427607168551
 30
0.0
 11
14.757947555203677
 21
-7.458427607168551
 31
0.0
  0
LINE
  5
A3
330
17
100
AcDbEntity
  8
PEN_1_NIVEL_2
 62
3
100
AcDbLine
 10
14.769763365896393
 20
-7.458427607168551
 30
0.0
 11
15.372369711224966
 21
-7.458427607168551
 31
0.0
  0
LINE
  5
A4
330
17
100
AcDbEntity
  8
PEN_2_NIVEL_3
 62
6
100
AcDbLine
 10
15.384185521917683
 20
-7.458427607168551
 30
0.0
 11
15.904081192397237
 21
-7.458427607168551
 31
0.0
  0
LINE
  5
A5
330
17
100
AcDbEntity
  8
PEN_1_NIVEL_2
 62
3
100
AcDbLine
 10
15.915897003089954
 20
-7.458427607168551
 30
0.0
 11
16.471240105647656
 21
-7.458427607168551
 31
0.0
  0
LINE
  5
A6
330
17
100
AcDbEntity
  8
PEN_2_NIVEL_3
 62
6
100
AcDbLine
 10
16.483055916340376
 20
-7.458427607168551
 30
0.0
 11
16.624845644652982
 21
-7.458427607168551
 31
0.0
  0
LINE
  5
A7
330
17
100
AcDbEntity
  8
PEN_1_NIVEL_2
 62
3
100
AcDbLine
 10
16.6366614553457
 20
-7.458427607168551
 30
0.0
 11
16.87297766920004
 21
-7.458427607168551
 31
0.0
  0
LINE
  5
A8
330
17
100
AcDbEntity
  8
PEN_2_NIVEL_3
 62
6
100
AcDbLine
 10
16.884793479892757
 20
-7.458427607168551
 30
0.0
 11
17.192004557903402
 21
-7.458427607168551
 31
0.0
  0
LINE
  5
A9
330
17
100
AcDbEntity
  8
PEN_1_NIVEL_2
 62
3
100
AcDbLine
 10
17.20382036859612
 20
-7.458427607168551
 30
0.0
 11
17.47558401452861
 21
-7.458427607168551
 31
0.0
  0
LINE
  5
AA
330
17
100
AcDbEntity
  8
PEN_2_NIVEL_3
 62
6
100
AcDbLine
 10
17.48739982522133
 20
-7.458427607168551
 30
0.0
 11
17.90095319946643
 21
-7.458427607168551
 31
0.0
  0
LINE
  5
AB
330
17
100
AcDbEntity
  8
PEN_2_NIVEL_3
 62
6
100
AcDbLine
 10
0.0
 20
-10.451845364886436
 30
0.0
 11
3.4502167222733973
 21
-10.451845364886436
 31
0.0
  0
LINE
  5
AC
330
17
100
AcDbEntity
  8
PEN_1_NIVEL_2
 62
3
100
AcDbLine
 10
3.462032532966115
 20
-10.451845364886436
 30
0.0
 11
4.4663764418470695
 21
-10.451845364886436
 31
0.0
  0
LINE
  5
AD
330
17
100
AcDbEntity
  8
PEN_2_NIVEL_3
 62
6
100
AcDbLine
 10
4.478192252539786
 20
-10.451845364886436
 30
0.0
 11
5.0453511657902075
 21
-10.451845364886436
 31
0.0
  0
LINE
  5
AE
330
17
100
AcDbEntity
  8
PEN_1_NIVEL_2
 62
3
100
AcDbLine
 10
5.057166976482925
 20
-10.451845364886436
 30
0.0
 11
5.128061840639228
 21
-10.451845364886436
 31
0.0
  0
LINE
  5
AF
330
17
100
AcDbEntity
  8
PEN_2_NIVEL_3
 62
6
100
AcDbLine
 10
5.139877651331944
 20
-10.451845364886436
 30
0.0
 11
8.731884101917947
 21
-10.451845364886436
 31
0.0
  0
LINE
  5
B0
330
17
100
AcDbEntity
  8
PEN_1_NIVEL_2
 62
3
100
AcDbLine
 10
8.743699912610666
 20
-10.451845364886436
 30
0.0
 11
8.885489640923272
 21
-10.451845364886436
 31
0.0
  0
LINE
  5
B1
330
17
100
AcDbEntity
  8
PEN_2_NIVEL_3
 62
6
100
AcDbLine
 10
8.897305451615987
 20
-10.451845364886436
 30
0.0
 11
8.980016126465006
 21
-10.451845364886436
 31
0.0
  0
LINE
  5
B2
330
17
100
AcDbEntity
  8
PEN_1_NIVEL_2
 62
3
100
AcDbLine
 10
8.991831937157725
 20
-10.451845364886436
 30
0.0
 11
9.098174233392179
 21
-10.451845364886436
 31
0.0
  0
LINE
  5
B3
330
17
100
AcDbEntity
  8
PEN_2_NIVEL_3
 62
6
100
AcDbLine
 10
9.109990044084896
 20
-10.451845364886436
 30
0.0
 11
9.192700718933915
 21
-10.451845364886436
 31
0.0
  0
LINE
  5
B4
330
17
100
AcDbEntity
  8
PEN_1_NIVEL_2
 62
3
100
AcDbLine
 10
9.204516529626634
 20
-10.451845364886436
 30
0.0
 11
9.464464364866409
 21
-10.451845364886436
 31
0.0
  0
LINE
  5
B5
330
17
100
AcDbEntity
  8
PEN_2_NIVEL_3
 62
6
100
AcDbLine
 10
9.476280175559125
 20
-10.451845364886436
 30
0.0
 11
9.913465171189658
 21
-10.451845364886436
 31
0.0
  0
LINE
  5
B6
330
17
100
AcDbEntity
  8
PEN_1_NIVEL_2
 62
3
100
AcDbLine
 10
9.925280981882377
 20
-10.451845364886436
 30
0.0
 11
10.208860438507589
 21
-10.451845364886436
 31
0.0
  0
LINE
  5
B7
330
17
100
AcDbEntity
  8
PEN_2_NIVEL_3
 62
6
100
AcDbLine
 10
10.220676249200304
 20
-10.451845364886436
 30
0.0
 11
10.646045434138122
 21
-10.451845364886436
 31
0.0
  0
LINE
  5
B8
330
17
100
AcDbEntity
  8
PEN_3_NIVEL_4
 62
1
100
AcDbLine
 10
10.657861244830837
 20
-10.451845364886436
 30
0.0
 11
10.716940298294423
 21
-10.451845364886436
 31
0.0
  0
LINE
  5
B9
330
17
100
AcDbEntity
  8
PEN_2_NIVEL_3
 62
6
100
AcDbLine
 10
10.72875610898714
 20
-10.451845364886436
 30
0.0
 11
10.81146678383616
 21
-10.451845364886436
 31
0.0
  0
LINE
  5
BA
330
17
100
AcDbEntity
  8
PEN_3_NIVEL_4
 62
1
100
AcDbLine
 10
10.823282594528878
 20
-10.451845364886436
 30
0.0
 11
10.894177458685181
 21
-10.451845364886436
 31
0.0
  0
LINE
  5
BB
330
17
100
AcDbEntity
  8
PEN_2_NIVEL_3
 62
6
100
AcDbLine
 10
10.905993269377896
 20
-10.451845364886436
 30
0.0
 11
11.21320434738854
 21
-10.451845364886436
 31
0.0
  0
LINE
  5
BC
330
17
100
AcDbEntity
  8
PEN_1_NIVEL_2
 62
3
100
AcDbLine
 10
11.225020158081259
 20
-10.451845364886436
 30
0.0
 11
11.307730832930279
 21
-10.451845364886436
 31
0.0
  0
LINE
  5
BD
330
17
100
AcDbEntity
  8
PEN_2_NIVEL_3
 62
6
100
AcDbLine
 10
11.319546643622996
 20
-10.451845364886436
 30
0.0
 11
11.496783804013752
 21
-10.451845364886436
 31
0.0
  0
LINE
  5
BE
330
17
100
AcDbEntity
  8
PEN_1_NIVEL_2
 62
3
100
AcDbLine
 10
11.50859961470647
 20
-10.451845364886436
 30
0.0
 11
11.721284207175378
 21
-10.451845364886436
 31
0.0
  0
LINE
  5
BF
330
17
100
AcDbEntity
  8
PEN_2_NIVEL_3
 62
6
100
AcDbLine
 10
11.733100017868095
 20
-10.451845364886436
 30
0.0
 11
12.831970412290786
 21
-10.451845364886436
 31
0.0
  0
LINE
  5
C0
330
17
100
AcDbEntity
  8
PEN_1_NIVEL_2
 62
3
100
AcDbLine
 10
12.843786222983505
 20
-10.451845364886436
 30
0.0
 11
12.97376014060339
 21
-10.451845364886436
 31
0.0
  0
LINE
  5
C1
330
17
100
AcDbEntity
  8
PEN_2_NIVEL_3
 62
6
100
AcDbLine
 10
12.98557595129611
 20
-10.451845364886436
 30
0.0
 11
13.233707975843169
 21
-10.451845364886436
 31
0.0
  0
LINE
  5
C2
330
17
100
AcDbEntity
  8
PEN_1_NIVEL_2
 62
3
100
AcDbLine
 10
13.245523786535886
 20
-10.451845364886436
 30
0.0
 11
13.446392568312076
 21
-10.451845364886436
 31
0.0
  0
LINE
  5
C3
330
17
100
AcDbEntity
  8
PEN_2_NIVEL_3
 62
6
100
AcDbLine
 10
13.458208379004795
 20
-10.451845364886436
 30
0.0
 11
14.415289045114879
 21
-10.451845364886436
 31
0.0
  0
LINE
  5
C4
330
17
100
AcDbEntity
  8
PEN_1_NIVEL_2
 62
3
100
AcDbLine
 10
14.427104855807597
 20
-10.451845364886436
 30
0.0
 11
14.4979997199639
 21
-10.451845364886436
 31
0.0
  0
LINE
  5
C5
330
17
100
AcDbEntity
  8
PEN_2_NIVEL_3
 62
6
100
AcDbLine
 10
14.509815530656617
 20
-10.451845364886436
 30
0.0
 11
14.805210797974544
 21
-10.451845364886436
 31
0.0
  0
LINE
  5
C6
330
17
100
AcDbEntity
  8
PEN_3_NIVEL_4
 62
1
100
AcDbLine
 10
14.81702660866726
 20
-10.451845364886436
 30
0.0
 11
14.876105662130847
 21
-10.451845364886436
 31
0.0
  0
LINE
  5
C7
330
17
100
AcDbEntity
  8
PEN_2_NIVEL_3
 62
6
100
AcDbLine
 10
14.887921472823564
 20
-10.451845364886436
 30
0.0
 11
15.514159439537572
 21
-10.451845364886436
 31
0.0
  0
LINE
  5
C8
330
17
100
AcDbEntity
  8
PEN_3_NIVEL_4
 62
1
100
AcDbLine
 10
15.525975250230289
 20
-10.451845364886436
 30
0.0
 11
15.797738896162784
 21
-10.451845364886436
 31
0.0
  0
LINE
  5
C9
330
17
100
AcDbEntity
  8
PEN_2_NIVEL_3
 62
6
100
AcDbLine
 10
15.809554706855499
 20
-10.451845364886436
 30
0.0
 11
16.17584483832973
 21
-10.451845364886436
 31
0.0
  0
LINE
  5
CA
330
17
100
AcDbEntity
  8
PEN_3_NIVEL_4
 62
1
100
AcDbLine
 10
16.187660649022448
 20
-10.451845364886436
 30
0.0
 11
16.34126618802777
 21
-10.451845364886436
 31
0.0
  0
LINE
  5
CB
330
17
100
AcDbEntity
  8
PEN_2_NIVEL_3
 62
6
100
AcDbLine
 10
16.353081998720487
 20
-10.451845364886436
 30
0.0
 11
16.766635372965588
 21
-10.451845364886436
 31
0.0
  0
LINE
  5
CC
330
17
100
AcDbEntity
  8
PEN_3_NIVEL_4
 62
1
100
AcDbLine
 10
16.7784511836583
 20
-10.451845364886436
 30
0.0
 11
17.085662261668947
 21
-10.451845364886436
 31
0.0
  0
LINE
  5
CD
330
17
100
AcDbEntity
  8
PEN_2_NIVEL_3
 62
6
100
AcDbLine
 10
17.097478072361664
 20
-10.451845364886436
 30
0.0
 11
17.416504961065026
 21
-10.451845364886436
 31
0.0
  0
LINE
  5
CE
330
17
100
AcDbEntity
  8
PEN_3_NIVEL_4
 62
1
100
AcDbLine
 10
17.428320771757743
 20
-10.451845364886436
 30
0.0
 11
17.70008441769024
 21
-10.451845364886436
 31
0.0
  0
LINE
  5
CF
330
17
100
AcDbEntity
  8
PEN_2_NIVEL_3
 62
6
100
AcDbLine
 10
17.711900228382955
 20
-10.451845364886436
 30
0.0
 11
17.90095319946643
 21
-10.451845364886436
 31
0.0
  0
LINE
  5
D1
330
17
100
AcDbEntity
  8
PEN_10_NIVEL_3
 62
4
100
AcDbLine
 10
0.0
 20
-13.435477361386335
 30
0.0
 11
0.1654213496980396
 21
-13.435477361386335
 31
0.0
  0
LINE
  5
D3
330
17
100
AcDbEntity
  8
PEN_11_NIVEL_4
 62
6
100
AcDbLine
 10
0.1772371603907567
 20
-13.435477361386335
 30
0.0
 11
0.3308426993960792
 21
-13.435477361386335
 31
0.0
  0
LINE
  5
D4
330
17
100
AcDbEntity
  8
PEN_10_NIVEL_3
 62
4
100
AcDbLine
 10
0.3426585100887963
 20
-13.435477361386335
 30
0.0
 11
2.0795826819182124
 21
-13.435477361386335
 31
0.0
  0
LINE
  5
D6
330
17
100
AcDbEntity
  8
PEN_9_NIVEL_2
 62
3
100
AcDbLine
 10
2.0913984926109292
 20
-13.435477361386335
 30
0.0
 11
2.3395305171579888
 21
-13.435477361386335
 31
0.0
  0
LINE
  5
D7
330
17
100
AcDbEntity
  8
PEN_10_NIVEL_3
 62
4
100
AcDbLine
 10
2.3513463278507056
 20
-13.435477361386335
 30
0.0
 11
4.170981174529142
 21
-13.435477361386335
 31
0.0
  0
LINE
  5
D8
330
17
100
AcDbEntity
  8
PEN_9_NIVEL_2
 62
3
100
AcDbLine
 10
4.1827969852218585
 20
-13.435477361386335
 30
0.0
 11
4.371849956305333
 21
-13.435477361386335
 31
0.0
  0
LINE
  5
D9
330
17
100
AcDbEntity
  8
PEN_10_NIVEL_3
 62
4
100
AcDbLine
 10
4.38366576699805
 20
-13.435477361386335
 30
0.0
 11
4.513639684617938
 21
-13.435477361386335
 31
0.0
  0
LINE
  5
DA
330
17
100
AcDbEntity
  8
PEN_9_NIVEL_2
 62
3
100
AcDbLine
 10
4.525455495310655
 20
-13.435477361386335
 30
0.0
 11
4.726324277086845
 21
-13.435477361386335
 31
0.0
  0
LINE
  5
DB
330
17
100
AcDbEntity
  8
PEN_10_NIVEL_3
 62
4
100
AcDbLine
 10
4.738140087779563
 20
-13.435477361386335
 30
0.0
 11
5.151693462024662
 21
-13.435477361386335
 31
0.0
  0
LINE
  5
DC
330
17
100
AcDbEntity
  8
PEN_9_NIVEL_2
 62
3
100
AcDbLine
 10
5.16350927271738
 20
-13.435477361386335
 30
0.0
 11
5.234404136873682
 21
-13.435477361386335
 31
0.0
  0
LINE
  5
DD
330
17
100
AcDbEntity
  8
PEN_10_NIVEL_3
 62
4
100
AcDbLine
 10
5.246219947566399
 20
-13.435477361386335
 30
0.0
 11
6.026063453285729
 21
-13.435477361386335
 31
0.0
  0
LINE
  5
DE
330
17
100
AcDbEntity
  8
PEN_9_NIVEL_2
 62
3
100
AcDbLine
 10
6.0378792639784455
 20
-13.435477361386335
 30
0.0
 11
6.179668992291051
 21
-13.435477361386335
 31
0.0
  0
LINE
  5
DF
330
17
100
AcDbEntity
  8
PEN_10_NIVEL_3
 62
4
100
AcDbLine
 10
6.191484802983768
 20
-13.435477361386335
 30
0.0
 11
6.333274531296373
 21
-13.435477361386335
 31
0.0
  0
LINE
  5
E0
330
17
100
AcDbEntity
  8
PEN_11_NIVEL_4
 62
6
100
AcDbLine
 10
6.34509034198909
 20
-13.435477361386335
 30
0.0
 11
6.475064259608979
 21
-13.435477361386335
 31
0.0
  0
LINE
  5
E1
330
17
100
AcDbEntity
  8
PEN_9_NIVEL_2
 62
3
100
AcDbLine
 10
6.486880070301695
 20
-13.435477361386335
 30
0.0
 11
6.7586437162341895
 21
-13.435477361386335
 31
0.0
  0
LINE
  5
E2
330
17
100
AcDbEntity
  8
PEN_10_NIVEL_3
 62
4
100
AcDbLine
 10
6.770459526926906
 20
-13.435477361386335
 30
0.0
 11
7.29035519740646
 21
-13.435477361386335
 31
0.0
  0
LINE
  5
E3
330
17
100
AcDbEntity
  8
PEN_9_NIVEL_2
 62
3
100
AcDbLine
 10
7.302171008099178
 20
-13.435477361386335
 30
0.0
 11
7.40851330433363
 21
-13.435477361386335
 31
0.0
  0
LINE
  5
E4
330
17
100
AcDbEntity
  8
PEN_10_NIVEL_3
 62
4
100
AcDbLine
 10
7.420329115026348
 20
-13.435477361386335
 30
0.0
 11
7.573934654031671
 21
-13.435477361386335
 31
0.0
  0
LINE
  5
E5
330
17
100
AcDbEntity
  8
PEN_9_NIVEL_2
 62
3
100
AcDbLine
 10
7.585750464724387
 20
-13.435477361386335
 30
0.0
 11
7.810250867886013
 21
-13.435477361386335
 31
0.0
  0
LINE
  5
E6
330
17
100
AcDbEntity
  8
PEN_10_NIVEL_3
 62
4
100
AcDbLine
 10
7.82206667857873
 20
-13.435477361386335
 30
0.0
 11
8.956384505079573
 21
-13.435477361386335
 31
0.0
  0
LINE
  5
E7
330
17
100
AcDbEntity
  8
PEN_11_NIVEL_4
 62
6
100
AcDbLine
 10
8.96820031577229
 20
-13.435477361386335
 30
0.0
 11
9.145437476163046
 21
-13.435477361386335
 31
0.0
  0
LINE
  5
E8
330
17
100
AcDbEntity
  8
PEN_10_NIVEL_3
 62
4
100
AcDbLine
 10
9.157253286855763
 20
-13.435477361386335
 30
0.0
 11
9.251779772397501
 21
-13.435477361386335
 31
0.0
  0
LINE
  5
E9
330
17
100
AcDbEntity
  8
PEN_9_NIVEL_2
 62
3
100
AcDbLine
 10
9.263595583090217
 20
-13.435477361386335
 30
0.0
 11
9.558990850408145
 21
-13.435477361386335
 31
0.0
  0
LINE
  5
EA
330
17
100
AcDbEntity
  8
PEN_10_NIVEL_3
 62
4
100
AcDbLine
 10
9.570806661100864
 20
-13.435477361386335
 30
0.0
 11
10.468808273747364
 21
-13.435477361386335
 31
0.0
  0
LINE
  5
EB
330
17
100
AcDbEntity
  8
PEN_9_NIVEL_2
 62
3
100
AcDbLine
 10
10.48062408444008
 20
-13.435477361386335
 30
0.0
 11
10.740571919679857
 21
-13.435477361386335
 31
0.0
  0
LINE
  5
EC
330
17
100
AcDbEntity
  8
PEN_10_NIVEL_3
 62
4
100
AcDbLine
 10
10.752387730372575
 20
-13.435477361386335
 30
0.0
 11
11.047782997690502
 21
-13.435477361386335
 31
0.0
  0
LINE
  5
ED
330
17
100
AcDbEntity
  8
PEN_9_NIVEL_2
 62
3
100
AcDbLine
 10
11.05959880838322
 20
-13.435477361386335
 30
0.0
 11
11.225020158081259
 21
-13.435477361386335
 31
0.0
  0
LINE
  5
EE
330
17
100
AcDbEntity
  8
PEN_10_NIVEL_3
 62
4
100
AcDbLine
 10
11.236835968773976
 20
-13.435477361386335
 30
0.0
 11
11.295915022237562
 21
-13.435477361386335
 31
0.0
  0
LINE
  5
EF
330
17
100
AcDbEntity
  8
PEN_9_NIVEL_2
 62
3
100
AcDbLine
 10
11.307730832930279
 20
-13.435477361386335
 30
0.0
 11
11.555862857477338
 21
-13.435477361386335
 31
0.0
  0
LINE
  5
F0
330
17
100
AcDbEntity
  8
PEN_10_NIVEL_3
 62
4
100
AcDbLine
 10
11.567678668170055
 20
-13.435477361386335
 30
0.0
 11
11.922152988951568
 21
-13.435477361386335
 31
0.0
  0
LINE
  5
F1
330
17
100
AcDbEntity
  8
PEN_9_NIVEL_2
 62
3
100
AcDbLine
 10
11.933968799644285
 20
-13.435477361386335
 30
0.0
 11
12.276627309733083
 21
-13.435477361386335
 31
0.0
  0
LINE
  5
F2
330
17
100
AcDbEntity
  8
PEN_10_NIVEL_3
 62
4
100
AcDbLine
 10
12.288443120425798
 20
-13.435477361386335
 30
0.0
 11
12.477496091509272
 21
-13.435477361386335
 31
0.0
  0
LINE
  5
F3
330
17
100
AcDbEntity
  8
PEN_9_NIVEL_2
 62
3
100
AcDbLine
 10
12.48931190220199
 20
-13.435477361386335
 30
0.0
 11
12.60747000912916
 21
-13.435477361386335
 31
0.0
  0
LINE
  5
F4
330
17
100
AcDbEntity
  8
PEN_10_NIVEL_3
 62
4
100
AcDbLine
 10
12.619285819821878
 20
-13.435477361386335
 30
0.0
 11
13.930840806713478
 21
-13.435477361386335
 31
0.0
  0
LINE
  5
F5
330
17
100
AcDbEntity
  8
PEN_11_NIVEL_4
 62
6
100
AcDbLine
 10
13.942656617406195
 20
-13.435477361386335
 30
0.0
 11
14.001735670869781
 21
-13.435477361386335
 31
0.0
  0
LINE
  5
F6
330
17
100
AcDbEntity
  8
PEN_10_NIVEL_3
 62
4
100
AcDbLine
 10
14.013551481562498
 20
-13.435477361386335
 30
0.0
 11
15.419632953995833
 21
-13.435477361386335
 31
0.0
  0
LINE
  5
F7
330
17
100
AcDbEntity
  8
PEN_9_NIVEL_2
 62
3
100
AcDbLine
 10
15.431448764688552
 20
-13.435477361386335
 30
0.0
 11
15.537791060923006
 21
-13.435477361386335
 31
0.0
  0
LINE
  5
F8
330
17
100
AcDbEntity
  8
PEN_10_NIVEL_3
 62
4
100
AcDbLine
 10
15.549606871615723
 20
-13.435477361386335
 30
0.0
 11
15.64413335715746
 21
-13.435477361386335
 31
0.0
  0
LINE
  5
F9
330
17
100
AcDbEntity
  8
PEN_9_NIVEL_2
 62
3
100
AcDbLine
 10
15.655949167850178
 20
-13.435477361386335
 30
0.0
 11
15.845002138933651
 21
-13.435477361386335
 31
0.0
  0
LINE
  5
FA
330
17
100
AcDbEntity
  8
PEN_10_NIVEL_3
 62
4
100
AcDbLine
 10
15.856817949626368
 20
-13.435477361386335
 30
0.0
 11
15.915897003089954
 21
-13.435477361386335
 31
0.0
  0
LINE
  5
FB
330
17
100
AcDbEntity
  8
PEN_9_NIVEL_2
 62
3
100
AcDbLine
 10
15.92771281378267
 20
-13.435477361386335
 30
0.0
 11
16.258555513178752
 21
-13.435477361386335
 31
0.0
  0
LINE
  5
FC
330
17
100
AcDbEntity
  8
PEN_10_NIVEL_3
 62
4
100
AcDbLine
 10
16.270371323871466
 20
-13.435477361386335
 30
0.0
 11
16.660293076731133
 21
-13.435477361386335
 31
0.0
  0
LINE
  5
FD
330
17
100
AcDbEntity
  8
PEN_9_NIVEL_2
 62
3
100
AcDbLine
 10
16.67210888742385
 20
-13.435477361386335
 30
0.0
 11
17.121109693747098
 21
-13.435477361386335
 31
0.0
  0
LINE
  5
FE
330
17
100
AcDbEntity
  8
PEN_10_NIVEL_3
 62
4
100
AcDbLine
 10
17.132925504439818
 20
-13.435477361386335
 30
0.0
 11
17.90095319946643
 21
-13.435477361386335
 31
0.0
  0
ENDSEC
  0
SECTION
  2
OBJECTS
  0
DICTIONARY
  5
A
330
0
100
AcDbDictionary
281
1
  3
ACAD_COLOR
350
B
  3
ACAD_GROUP
350
C
  3
ACAD_LAYOUT
350
D
  3
ACAD_MATERIAL
350
E
  3
ACAD_MLEADERSTYLE
350
F
  3
ACAD_MLINESTYLE
350
10
  3
ACAD_PLOTSETTINGS
350
11
  3
ACAD_PLOTSTYLENAME
350
12
  3
ACAD_SCALELIST
350
14
  3
ACAD_TABLESTYLE
350
15
  3
ACAD_VISUALSTYLE
350
16
  3
EZDXF_META
350
2D
  0
DICTIONARY
  5
B
330
A
100
AcDbDictionary
281
1
  0
DICTIONARY
  5
C
330
A
100
AcDbDictionary
281
1
  0
DICTIONARY
  5
D
330
A
100
AcDbDictionary
281
1
  3
Model
350
1A
  3
Layout1
350
1E
  0
DICTIONARY
  5
E
330
A
100
AcDbDictionary
281
1
  3
ByBlock
350
1F
  3
ByLayer
350
20
  3
Global
350
21
  0
DICTIONARY
  5
F
330
A
100
AcDbDictionary
281
1
  3
Standard
350
2C
  0
DICTIONARY
  5
10
330
A
100
AcDbDictionary
281
1
  3
Standard
350
22
  0
DICTIONARY
  5
11
330
A
100
AcDbDictionary
281
1
  0
ACDBDICTIONARYWDFLT
  5
12
330
A
100
AcDbDictionary
281
1
  3
Normal
350
13
100
AcDbDictionaryWithDefault
340
13
  0
ACDBPLACEHOLDER
  5
13
330
12
  0
DICTIONARY
  5
14
330
A
100
AcDbDictionary
281
1
  0
DICTIONARY
  5
15
330
A
100
AcDbDictionary
281
1
  0
DICTIONARY
  5
16
330
A
100
AcDbDictionary
281
1
  0
LAYOUT
  5
1A
330
D
100
AcDbPlotSettings
  1

  4
A3
  6

 40
7.5
 41
20.0
 42
7.5
 43
20.0
 44
420.0
 45
297.0
 46
0.0
 47
0.0
 48
0.0
 49
0.0
140
0.0
141
0.0
142
1.0
143
1.0
 70
1024
 72
1
 73
0
 74
5
  7

 75
16
 76
0
 77
2
 78
300
147
1.0
148
0.0
149
0.0
100
AcDbLayout
  1
Model
 70
1
 71
0
 10
0.0
 20
0.0
 11
420.0
 21
297.0
 12
0.0
 22
0.0
 32
0.0
 14
1e+20
 24
1e+20
 34
1e+20
 15
-1e+20
 25
-1e+20
 35
-1e+20
146
0.0
 13
0.0
 23
0.0
 33
0.0
 16
1.0
 26
0.0
 36
0.0
 17
0.0
 27
1.0
 37
0.0
 76
1
330
17
  0
LAYOUT
  5
1E
330
D
100
AcDbPlotSettings
  1

  4
A3
  6

 40
7.5
 41
20.0
 42
7.5
 43
20.0
 44
420.0
 45
297.0
 46
0.0
 47
0.0
 48
0.0
 49
0.0
140
0.0
141
0.0
142
1.0
143
1.0
 70
0
 72
1
 73
0
 74
5
  7

 75
16
 76
0
 77
2
 78
300
147
1.0
148
0.0
149
0.0
100
AcDbLayout
  1
Layout1
 70
1
 71
1
 10
0.0
 20
0.0
 11
420.0
 21
297.0
 12
0.0
 22
0.0
 32
0.0
 14
1e+20
 24
1e+20
 34
1e+20
 15
-1e+20
 25
-1e+20
 35
-1e+20
146
0.0
 13
0.0
 23
0.0
 33
0.0
 16
1.0
 26
0.0
 36
0.0
 17
0.0
 27
1.0
 37
0.0
 76
1
330
1B
  0
MATERIAL
  5
1F
102
{ACAD_REACTORS
330
E
102
}
330
E
100
AcDbMaterial
  1
ByBlock
  2

 70
0
 40
1.0
 71
1
 41
1.0
 91
-1023410177
 42
1.0
 72
1
  3

 73
1
 74
1
 75
1
 44
0.5
 73
0
 45
1.0
 46
1.0
 77
1
  4

 78
1
 79
1
170
1
 48
1.0
171
1
  6

172
1
173
1
174
1
140
1.0
141
1.0
175
1
  7

176
1
177
1
178
1
143
1.0
179
1
  8

270
1
271
1
272
1
145
1.0
146
1.0
273
1
  9

274
1
275
1
276
1
 42
1.0
 72
1
  3

 73
1
 74
1
 75
1
 94
63
  0
MATERIAL
  5
20
102
{ACAD_REACTORS
330
E
102
}
330
E
100
AcDbMaterial
  1
ByLayer
  2

 70
0
 40
1.0
 71
1
 41
1.0
 91
-1023410177
 42
1.0
 72
1
  3

 73
1
 74
1
 75
1
 44
0.5
 73
0
 45
1.0
 46
1.0
 77
1
  4

 78
1
 79
1
170
1
 48
1.0
171
1
  6

172
1
173
1
174
1
140
1.0
141
1.0
175
1
  7

176
1
177
1
178
1
143
1.0
179
1
  8

270
1
271
1
272
1
145
1.0
146
1.0
273
1
  9

274
1
275
1
276
1
 42
1.0
 72
1
  3

 73
1
 74
1
 75
1
 94
63
  0
MATERIAL
  5
21
102
{ACAD_REACTORS
330
E
102
}
330
E
100
AcDbMaterial
  1
Global
  2

 70
0
 40
1.0
 71
1
 41
1.0
 91
-1023410177
 42
1.0
 72
1
  3

 73
1
 74
1
 75
1
 44
0.5
 73
0
 45
1.0
 46
1.0
 77
1
  4

 78
1
 79
1
170
1
 48
1.0
171
1
  6

172
1
173
1
174
1
140
1.0
141
1.0
175
1
  7

176
1
177
1
178
1
143
1.0
179
1
  8

270
1
271
1
272
1
145
1.0
146
1.0
273
1
  9

274
1
275
1
276
1
 42
1.0
 72
1
  3

 73
1
 74
1
 75
1
 94
63
  0
MLINESTYLE
  5
22
102
{ACAD_REACTORS
330
10
102
}
330
10
100
AcDbMlineStyle
  2
Standard
 70
0
  3

 62
256
 51
90.0
 52
90.0
 71
2
 49
0.5
 62
256
  6
BYLAYER
 49
-0.5
 62
256
  6
BYLAYER
  0
MLEADERSTYLE
  5
2C
102
{ACAD_REACTORS
330
F
102
}
330
F
100
AcDbMLeaderStyle
179
2
170
2
171
1
172
0
 90
2
 40
0.0
 41
0.0
173
1
 91
-1056964608
 92
-2
290
1
 42
2.0
291
1
 43
8.0
  3
Standard
 44
4.0
300

342
29
174
1
175
1
176
0
178
1
 93
-1056964608
 45
4.0
292
0
297
0
 46
4.0
 94
-1056964608
 47
1.0
 49
1.0
140
1.0
294
1
141
0.0
177
0
142
1.0
295
0
296
0
143
3.75
271
0
272
9
273
9
  0
DICTIONARY
  5
2D
330
A
100
AcDbDictionary
280
1
281
1
  3
CREATED_BY_EZDXF
350
2E
  3
WRITTEN_BY_EZDXF
350
101
  0
DICTIONARYVAR
  5
2E
330
2D
100
DictionaryVariables
280
0
  1
1.4.4 @ 2026-07-02T18:54:12.997120+00:00
  0
DICTIONARYVAR
  5
101
330
2D
100
DictionaryVariables
280
0
  1
1.4.4 @ 2026-07-02T18:54:13.060955+00:00
  0
ENDSEC
  0
EOF
