<?xml version="1.0" encoding="UTF-8"?>
<svg xmlns="http://www.w3.org/2000/svg"
     width="19.900953mm" height="14.016262mm"
     viewBox="-1.000000 0.419215 19.900953 14.016262">
  <g fill="none" stroke-width="0.020000" stroke-linecap="round">
    <line id="PEN_7_NIVEL_4_LINE_01_SEG_0001" x1="0.000000" y1="1.419215" x2="0.189053" y2="1.419215" stroke="rgb(85,85,85)" />
    <line id="PEN_6_NIVEL_3_LINE_01_SEG_0002" x1="0.200869" y1="1.419215" x2="0.437185" y2="1.419215" stroke="rgb(0,170,170)" />
    <line id="PEN_7_NIVEL_4_LINE_01_SEG_0003" x1="0.449001" y1="1.419215" x2="0.862554" y2="1.419215" stroke="rgb(85,85,85)" />
    <line id="PEN_6_NIVEL_3_LINE_01_SEG_0004" x1="0.874370" y1="1.419215" x2="0.980712" y2="1.419215" stroke="rgb(0,170,170)" />
    <line id="PEN_7_NIVEL_4_LINE_01_SEG_0005" x1="0.992528" y1="1.419215" x2="1.465161" y2="1.419215" stroke="rgb(85,85,85)" />
    <line id="PEN_6_NIVEL_3_LINE_01_SEG_0006" x1="1.476976" y1="1.419215" x2="2.245004" y2="1.419215" stroke="rgb(0,170,170)" />
    <line id="PEN_7_NIVEL_4_LINE_01_SEG_0007" x1="2.256820" y1="1.419215" x2="2.611294" y2="1.419215" stroke="rgb(85,85,85)" />
    <line id="PEN_6_NIVEL_3_LINE_01_SEG_0008" x1="2.623110" y1="1.419215" x2="2.694005" y2="1.419215" stroke="rgb(0,170,170)" />
    <line id="PEN_7_NIVEL_4_LINE_01_SEG_0009" x1="2.705821" y1="1.419215" x2="2.764900" y2="1.419215" stroke="rgb(85,85,85)" />
    <line id="PEN_6_NIVEL_3_LINE_01_SEG_0010" x1="2.776716" y1="1.419215" x2="3.662901" y2="1.419215" stroke="rgb(0,170,170)" />
    <line id="PEN_7_NIVEL_4_LINE_01_SEG_0011" x1="3.674717" y1="1.419215" x2="3.840138" y2="1.419215" stroke="rgb(85,85,85)" />
    <line id="PEN_6_NIVEL_3_LINE_01_SEG_0012" x1="3.851954" y1="1.419215" x2="4.454561" y2="1.419215" stroke="rgb(0,170,170)" />
    <line id="PEN_7_NIVEL_4_LINE_01_SEG_0013" x1="4.466376" y1="1.419215" x2="4.560903" y2="1.419215" stroke="rgb(85,85,85)" />
    <line id="PEN_6_NIVEL_3_LINE_01_SEG_0014" x1="4.572719" y1="1.419215" x2="5.234404" y2="1.419215" stroke="rgb(0,170,170)" />
    <line id="PEN_7_NIVEL_4_LINE_01_SEG_0015" x1="5.246220" y1="1.419215" x2="5.423457" y2="1.419215" stroke="rgb(85,85,85)" />
    <line id="PEN_6_NIVEL_3_LINE_01_SEG_0016" x1="5.435273" y1="1.419215" x2="6.427801" y2="1.419215" stroke="rgb(0,170,170)" />
    <line id="PEN_7_NIVEL_4_LINE_01_SEG_0017" x1="6.439617" y1="1.419215" x2="6.522328" y2="1.419215" stroke="rgb(85,85,85)" />
    <line id="PEN_6_NIVEL_3_LINE_01_SEG_0018" x1="6.534143" y1="1.419215" x2="7.101302" y2="1.419215" stroke="rgb(0,170,170)" />
    <line id="PEN_7_NIVEL_4_LINE_01_SEG_0019" x1="7.113118" y1="1.419215" x2="7.254908" y2="1.419215" stroke="rgb(85,85,85)" />
    <line id="PEN_5_NIVEL_2_LINE_01_SEG_0020" x1="7.266724" y1="1.419215" x2="7.597566" y2="1.419215" stroke="rgb(255,170,0)" />
    <line id="PEN_6_NIVEL_3_LINE_01_SEG_0021" x1="7.609382" y1="1.419215" x2="9.003648" y2="1.419215" stroke="rgb(0,170,170)" />
    <line id="PEN_7_NIVEL_4_LINE_01_SEG_0022" x1="9.015464" y1="1.419215" x2="9.109990" y2="1.419215" stroke="rgb(85,85,85)" />
    <line id="PEN_6_NIVEL_3_LINE_01_SEG_0023" x1="9.121806" y1="1.419215" x2="10.197045" y2="1.419215" stroke="rgb(0,170,170)" />
    <line id="PEN_5_NIVEL_2_LINE_01_SEG_0024" x1="10.208860" y1="1.419215" x2="10.374282" y2="1.419215" stroke="rgb(255,170,0)" />
    <line id="PEN_6_NIVEL_3_LINE_01_SEG_0025" x1="10.386098" y1="1.419215" x2="10.575151" y2="1.419215" stroke="rgb(0,170,170)" />
    <line id="PEN_7_NIVEL_4_LINE_01_SEG_0026" x1="10.586966" y1="1.419215" x2="10.657861" y2="1.419215" stroke="rgb(85,85,85)" />
    <line id="PEN_6_NIVEL_3_LINE_01_SEG_0027" x1="10.669677" y1="1.419215" x2="10.882362" y2="1.419215" stroke="rgb(0,170,170)" />
    <line id="PEN_5_NIVEL_2_LINE_01_SEG_0028" x1="10.894177" y1="1.419215" x2="11.083230" y2="1.419215" stroke="rgb(255,170,0)" />
    <line id="PEN_6_NIVEL_3_LINE_01_SEG_0029" x1="11.095046" y1="1.419215" x2="11.248652" y2="1.419215" stroke="rgb(0,170,170)" />
    <line id="PEN_5_NIVEL_2_LINE_01_SEG_0030" x1="11.260468" y1="1.419215" x2="11.792179" y2="1.419215" stroke="rgb(255,170,0)" />
    <line id="PEN_6_NIVEL_3_LINE_01_SEG_0031" x1="11.803995" y1="1.419215" x2="12.359338" y2="1.419215" stroke="rgb(0,170,170)" />
    <line id="PEN_5_NIVEL_2_LINE_01_SEG_0032" x1="12.371154" y1="1.419215" x2="12.465680" y2="1.419215" stroke="rgb(255,170,0)" />
    <line id="PEN_6_NIVEL_3_LINE_01_SEG_0033" x1="12.477496" y1="1.419215" x2="12.749260" y2="1.419215" stroke="rgb(0,170,170)" />
    <line id="PEN_5_NIVEL_2_LINE_01_SEG_0034" x1="12.761076" y1="1.419215" x2="13.540919" y2="1.419215" stroke="rgb(255,170,0)" />
    <line id="PEN_6_NIVEL_3_LINE_01_SEG_0035" x1="13.552735" y1="1.419215" x2="15.195133" y2="1.419215" stroke="rgb(0,170,170)" />
    <line id="PEN_5_NIVEL_2_LINE_01_SEG_0036" x1="15.206948" y1="1.419215" x2="15.561423" y2="1.419215" stroke="rgb(255,170,0)" />
    <line id="PEN_7_NIVEL_4_LINE_01_SEG_0037" x1="15.573238" y1="1.419215" x2="16.057687" y2="1.419215" stroke="rgb(85,85,85)" />
    <line id="PEN_6_NIVEL_3_LINE_01_SEG_0038" x1="16.069503" y1="1.419215" x2="16.258556" y2="1.419215" stroke="rgb(0,170,170)" />
    <line id="PEN_7_NIVEL_4_LINE_01_SEG_0039" x1="16.270371" y1="1.419215" x2="16.400345" y2="1.419215" stroke="rgb(85,85,85)" />
    <line id="PEN_6_NIVEL_3_LINE_01_SEG_0040" x1="16.412161" y1="1.419215" x2="17.180189" y2="1.419215" stroke="rgb(0,170,170)" />
    <line id="PEN_7_NIVEL_4_LINE_01_SEG_0041" x1="17.192005" y1="1.419215" x2="17.298347" y2="1.419215" stroke="rgb(85,85,85)" />
    <line id="PEN_6_NIVEL_3_LINE_01_SEG_0042" x1="17.310163" y1="1.419215" x2="17.499216" y2="1.419215" stroke="rgb(0,170,170)" />
    <line id="PEN_7_NIVEL_4_LINE_01_SEG_0043" x1="17.511031" y1="1.419215" x2="17.570111" y2="1.419215" stroke="rgb(85,85,85)" />
    <line id="PEN_6_NIVEL_3_LINE_01_SEG_0044" x1="17.581926" y1="1.419215" x2="17.900953" y2="1.419215" stroke="rgb(0,170,170)" />
    <line id="PEN_2_NIVEL_3_LINE_02_SEG_0045" x1="0.000000" y1="4.273023" x2="0.602606" y2="4.273023" stroke="rgb(0,255,0)" />
    <line id="PEN_3_NIVEL_4_LINE_02_SEG_0046" x1="0.614422" y1="4.273023" x2="0.850738" y2="4.273023" stroke="rgb(0,0,255)" />
    <line id="PEN_2_NIVEL_3_LINE_02_SEG_0047" x1="0.862554" y1="4.273023" x2="2.930321" y2="4.273023" stroke="rgb(0,255,0)" />
    <line id="PEN_3_NIVEL_4_LINE_02_SEG_0048" x1="2.942137" y1="4.273023" x2="3.048479" y2="4.273023" stroke="rgb(0,0,255)" />
    <line id="PEN_2_NIVEL_3_LINE_02_SEG_0049" x1="3.060295" y1="4.273023" x2="5.766116" y2="4.273023" stroke="rgb(0,255,0)" />
    <line id="PEN_1_NIVEL_2_LINE_02_SEG_0050" x1="5.777931" y1="4.273023" x2="5.872458" y2="4.273023" stroke="rgb(255,0,0)" />
    <line id="PEN_2_NIVEL_3_LINE_02_SEG_0051" x1="5.884274" y1="4.273023" x2="6.545959" y2="4.273023" stroke="rgb(0,255,0)" />
    <line id="PEN_1_NIVEL_2_LINE_02_SEG_0052" x1="6.557775" y1="4.273023" x2="6.935881" y2="4.273023" stroke="rgb(255,0,0)" />
    <line id="PEN_2_NIVEL_3_LINE_02_SEG_0053" x1="6.947697" y1="4.273023" x2="7.313987" y2="4.273023" stroke="rgb(0,255,0)" />
    <line id="PEN_1_NIVEL_2_LINE_02_SEG_0054" x1="7.325803" y1="4.273023" x2="7.503040" y2="4.273023" stroke="rgb(255,0,0)" />
    <line id="PEN_2_NIVEL_3_LINE_02_SEG_0055" x1="7.514856" y1="4.273023" x2="7.703909" y2="4.273023" stroke="rgb(0,255,0)" />
    <line id="PEN_1_NIVEL_2_LINE_02_SEG_0056" x1="7.715724" y1="4.273023" x2="7.774803" y2="4.273023" stroke="rgb(255,0,0)" />
    <line id="PEN_2_NIVEL_3_LINE_02_SEG_0057" x1="7.786619" y1="4.273023" x2="7.940225" y2="4.273023" stroke="rgb(0,255,0)" />
    <line id="PEN_1_NIVEL_2_LINE_02_SEG_0058" x1="7.952041" y1="4.273023" x2="8.200173" y2="4.273023" stroke="rgb(255,0,0)" />
    <line id="PEN_2_NIVEL_3_LINE_02_SEG_0059" x1="8.211988" y1="4.273023" x2="8.637358" y2="4.273023" stroke="rgb(0,255,0)" />
    <line id="PEN_1_NIVEL_2_LINE_02_SEG_0060" x1="8.649173" y1="4.273023" x2="8.873674" y2="4.273023" stroke="rgb(255,0,0)" />
    <line id="PEN_2_NIVEL_3_LINE_02_SEG_0061" x1="8.885490" y1="4.273023" x2="9.960728" y2="4.273023" stroke="rgb(0,255,0)" />
    <line id="PEN_1_NIVEL_2_LINE_02_SEG_0062" x1="9.972544" y1="4.273023" x2="11.284099" y2="4.273023" stroke="rgb(255,0,0)" />
    <line id="PEN_2_NIVEL_3_LINE_02_SEG_0063" x1="11.295915" y1="4.273023" x2="11.874890" y2="4.273023" stroke="rgb(0,255,0)" />
    <line id="PEN_1_NIVEL_2_LINE_02_SEG_0064" x1="11.886706" y1="4.273023" x2="11.945785" y2="4.273023" stroke="rgb(255,0,0)" />
    <line id="PEN_2_NIVEL_3_LINE_02_SEG_0065" x1="11.957600" y1="4.273023" x2="15.313291" y2="4.273023" stroke="rgb(0,255,0)" />
    <line id="PEN_1_NIVEL_2_LINE_02_SEG_0066" x1="15.325106" y1="4.273023" x2="15.407817" y2="4.273023" stroke="rgb(255,0,0)" />
    <line id="PEN_2_NIVEL_3_LINE_02_SEG_0067" x1="15.419633" y1="4.273023" x2="16.837530" y2="4.273023" stroke="rgb(0,255,0)" />
    <line id="PEN_3_NIVEL_4_LINE_02_SEG_0068" x1="16.849346" y1="4.273023" x2="17.038399" y2="4.273023" stroke="rgb(0,0,255)" />
    <line id="PEN_1_NIVEL_2_LINE_02_SEG_0069" x1="17.050215" y1="4.273023" x2="17.132926" y2="4.273023" stroke="rgb(255,0,0)" />
    <line id="PEN_2_NIVEL_3_LINE_02_SEG_0070" x1="17.144741" y1="4.273023" x2="17.251084" y2="4.273023" stroke="rgb(0,255,0)" />
    <line id="PEN_3_NIVEL_4_LINE_02_SEG_0071" x1="17.262899" y1="4.273023" x2="17.440137" y2="4.273023" stroke="rgb(0,0,255)" />
    <line id="PEN_2_NIVEL_3_LINE_02_SEG_0072" x1="17.451952" y1="4.273023" x2="17.900953" y2="4.273023" stroke="rgb(0,255,0)" />
    <line id="PEN_3_NIVEL_4_LINE_03_SEG_0073" x1="0.000000" y1="7.458428" x2="0.070895" y2="7.458428" stroke="rgb(0,0,255)" />
    <line id="PEN_2_NIVEL_3_LINE_03_SEG_0074" x1="0.082711" y1="7.458428" x2="0.460817" y2="7.458428" stroke="rgb(0,255,0)" />
    <line id="PEN_1_NIVEL_2_LINE_03_SEG_0075" x1="0.472632" y1="7.458428" x2="0.590791" y2="7.458428" stroke="rgb(255,0,0)" />
    <line id="PEN_2_NIVEL_3_LINE_03_SEG_0076" x1="0.602606" y1="7.458428" x2="0.673501" y2="7.458428" stroke="rgb(0,255,0)" />
    <line id="PEN_1_NIVEL_2_LINE_03_SEG_0077" x1="0.685317" y1="7.458428" x2="0.815291" y2="7.458428" stroke="rgb(255,0,0)" />
    <line id="PEN_2_NIVEL_3_LINE_03_SEG_0078" x1="0.827107" y1="7.458428" x2="0.921633" y2="7.458428" stroke="rgb(0,255,0)" />
    <line id="PEN_1_NIVEL_2_LINE_03_SEG_0079" x1="0.933449" y1="7.458428" x2="1.027976" y2="7.458428" stroke="rgb(255,0,0)" />
    <line id="PEN_2_NIVEL_3_LINE_03_SEG_0080" x1="1.039791" y1="7.458428" x2="1.134318" y2="7.458428" stroke="rgb(0,255,0)" />
    <line id="PEN_1_NIVEL_2_LINE_03_SEG_0081" x1="1.146134" y1="7.458428" x2="1.205213" y2="7.458428" stroke="rgb(255,0,0)" />
    <line id="PEN_2_NIVEL_3_LINE_03_SEG_0082" x1="1.217029" y1="7.458428" x2="1.276108" y2="7.458428" stroke="rgb(0,255,0)" />
    <line id="PEN_1_NIVEL_2_LINE_03_SEG_0083" x1="1.287923" y1="7.458428" x2="1.571503" y2="7.458428" stroke="rgb(255,0,0)" />
    <line id="PEN_2_NIVEL_3_LINE_03_SEG_0084" x1="1.583319" y1="7.458428" x2="1.666029" y2="7.458428" stroke="rgb(0,255,0)" />
    <line id="PEN_1_NIVEL_2_LINE_03_SEG_0085" x1="1.677845" y1="7.458428" x2="1.760556" y2="7.458428" stroke="rgb(255,0,0)" />
    <line id="PEN_2_NIVEL_3_LINE_03_SEG_0086" x1="1.772372" y1="7.458428" x2="2.185925" y2="7.458428" stroke="rgb(0,255,0)" />
    <line id="PEN_3_NIVEL_4_LINE_03_SEG_0087" x1="2.197741" y1="7.458428" x2="2.304083" y2="7.458428" stroke="rgb(0,0,255)" />
    <line id="PEN_2_NIVEL_3_LINE_03_SEG_0088" x1="2.315899" y1="7.458428" x2="2.599478" y2="7.458428" stroke="rgb(0,255,0)" />
    <line id="PEN_1_NIVEL_2_LINE_03_SEG_0089" x1="2.611294" y1="7.458428" x2="2.906689" y2="7.458428" stroke="rgb(255,0,0)" />
    <line id="PEN_2_NIVEL_3_LINE_03_SEG_0090" x1="2.918505" y1="7.458428" x2="2.977584" y2="7.458428" stroke="rgb(0,255,0)" />
    <line id="PEN_1_NIVEL_2_LINE_03_SEG_0091" x1="2.989400" y1="7.458428" x2="3.249348" y2="7.458428" stroke="rgb(255,0,0)" />
    <line id="PEN_2_NIVEL_3_LINE_03_SEG_0092" x1="3.261164" y1="7.458428" x2="4.300955" y2="7.458428" stroke="rgb(0,255,0)" />
    <line id="PEN_1_NIVEL_2_LINE_03_SEG_0093" x1="4.312771" y1="7.458428" x2="5.045351" y2="7.458428" stroke="rgb(255,0,0)" />
    <line id="PEN_2_NIVEL_3_LINE_03_SEG_0094" x1="5.057167" y1="7.458428" x2="5.600694" y2="7.458428" stroke="rgb(0,255,0)" />
    <line id="PEN_1_NIVEL_2_LINE_03_SEG_0095" x1="5.612510" y1="7.458428" x2="5.801563" y2="7.458428" stroke="rgb(255,0,0)" />
    <line id="PEN_2_NIVEL_3_LINE_03_SEG_0096" x1="5.813379" y1="7.458428" x2="5.990616" y2="7.458428" stroke="rgb(0,255,0)" />
    <line id="PEN_1_NIVEL_2_LINE_03_SEG_0097" x1="6.002432" y1="7.458428" x2="8.034751" y2="7.458428" stroke="rgb(255,0,0)" />
    <line id="PEN_2_NIVEL_3_LINE_03_SEG_0098" x1="8.046567" y1="7.458428" x2="8.105646" y2="7.458428" stroke="rgb(0,255,0)" />
    <line id="PEN_1_NIVEL_2_LINE_03_SEG_0099" x1="8.117462" y1="7.458428" x2="8.767332" y2="7.458428" stroke="rgb(255,0,0)" />
    <line id="PEN_2_NIVEL_3_LINE_03_SEG_0100" x1="8.779147" y1="7.458428" x2="9.216332" y2="7.458428" stroke="rgb(0,255,0)" />
    <line id="PEN_1_NIVEL_2_LINE_03_SEG_0101" x1="9.228148" y1="7.458428" x2="9.310859" y2="7.458428" stroke="rgb(255,0,0)" />
    <line id="PEN_2_NIVEL_3_LINE_03_SEG_0102" x1="9.322675" y1="7.458428" x2="10.043439" y2="7.458428" stroke="rgb(0,255,0)" />
    <line id="PEN_1_NIVEL_2_LINE_03_SEG_0103" x1="10.055255" y1="7.458428" x2="11.071415" y2="7.458428" stroke="rgb(255,0,0)" />
    <line id="PEN_2_NIVEL_3_LINE_03_SEG_0104" x1="11.083230" y1="7.458428" x2="11.378626" y2="7.458428" stroke="rgb(0,255,0)" />
    <line id="PEN_1_NIVEL_2_LINE_03_SEG_0105" x1="11.390442" y1="7.458428" x2="13.245524" y2="7.458428" stroke="rgb(255,0,0)" />
    <line id="PEN_2_NIVEL_3_LINE_03_SEG_0106" x1="13.257340" y1="7.458428" x2="13.930841" y2="7.458428" stroke="rgb(0,255,0)" />
    <line id="PEN_1_NIVEL_2_LINE_03_SEG_0107" x1="13.942657" y1="7.458428" x2="14.013551" y2="7.458428" stroke="rgb(255,0,0)" />
    <line id="PEN_2_NIVEL_3_LINE_03_SEG_0108" x1="14.025367" y1="7.458428" x2="14.462552" y2="7.458428" stroke="rgb(0,255,0)" />
    <line id="PEN_1_NIVEL_2_LINE_03_SEG_0109" x1="14.474368" y1="7.458428" x2="14.545263" y2="7.458428" stroke="rgb(255,0,0)" />
    <line id="PEN_2_NIVEL_3_LINE_03_SEG_0110" x1="14.557079" y1="7.458428" x2="14.757948" y2="7.458428" stroke="rgb(0,255,0)" />
    <line id="PEN_1_NIVEL_2_LINE_03_SEG_0111" x1="14.769763" y1="7.458428" x2="15.372370" y2="7.458428" stroke="rgb(255,0,0)" />
    <line id="PEN_2_NIVEL_3_LINE_03_SEG_0112" x1="15.384186" y1="7.458428" x2="15.904081" y2="7.458428" stroke="rgb(0,255,0)" />
    <line id="PEN_1_NIVEL_2_LINE_03_SEG_0113" x1="15.915897" y1="7.458428" x2="16.471240" y2="7.458428" stroke="rgb(255,0,0)" />
    <line id="PEN_2_NIVEL_3_LINE_03_SEG_0114" x1="16.483056" y1="7.458428" x2="16.624846" y2="7.458428" stroke="rgb(0,255,0)" />
    <line id="PEN_1_NIVEL_2_LINE_03_SEG_0115" x1="16.636661" y1="7.458428" x2="16.872978" y2="7.458428" stroke="rgb(255,0,0)" />
    <line id="PEN_2_NIVEL_3_LINE_03_SEG_0116" x1="16.884793" y1="7.458428" x2="17.192005" y2="7.458428" stroke="rgb(0,255,0)" />
    <line id="PEN_1_NIVEL_2_LINE_03_SEG_0117" x1="17.203820" y1="7.458428" x2="17.475584" y2="7.458428" stroke="rgb(255,0,0)" />
    <line id="PEN_2_NIVEL_3_LINE_03_SEG_0118" x1="17.487400" y1="7.458428" x2="17.900953" y2="7.458428" stroke="rgb(0,255,0)" />
    <line id="PEN_2_NIVEL_3_LINE_04_SEG_0119" x1="0.000000" y1="10.451845" x2="3.450217" y2="10.451845" stroke="rgb(0,255,0)" />
    <line id="PEN_1_NIVEL_2_LINE_04_SEG_0120" x1="3.462033" y1="10.451845" x2="4.466376" y2="10.451845" stroke="rgb(255,0,0)" />
    <line id="PEN_2_NIVEL_3_LINE_04_SEG_0121" x1="4.478192" y1="10.451845" x2="5.045351" y2="10.451845" stroke="rgb(0,255,0)" />
    <line id="PEN_1_NIVEL_2_LINE_04_SEG_0122" x1="5.057167" y1="10.451845" x2="5.128062" y2="10.451845" stroke="rgb(255,0,0)" />
    <line id="PEN_2_NIVEL_3_LINE_04_SEG_0123" x1="5.139878" y1="10.451845" x2="8.731884" y2="10.451845" stroke="rgb(0,255,0)" />
    <line id="PEN_1_NIVEL_2_LINE_04_SEG_0124" x1="8.743700" y1="10.451845" x2="8.885490" y2="10.451845" stroke="rgb(255,0,0)" />
    <line id="PEN_2_NIVEL_3_LINE_04_SEG_0125" x1="8.897305" y1="10.451845" x2="8.980016" y2="10.451845" stroke="rgb(0,255,0)" />
    <line id="PEN_1_NIVEL_2_LINE_04_SEG_0126" x1="8.991832" y1="10.451845" x2="9.098174" y2="10.451845" stroke="rgb(255,0,0)" />
    <line id="PEN_2_NIVEL_3_LINE_04_SEG_0127" x1="9.109990" y1="10.451845" x2="9.192701" y2="10.451845" stroke="rgb(0,255,0)" />
    <line id="PEN_1_NIVEL_2_LINE_04_SEG_0128" x1="9.204517" y1="10.451845" x2="9.464464" y2="10.451845" stroke="rgb(255,0,0)" />
    <line id="PEN_2_NIVEL_3_LINE_04_SEG_0129" x1="9.476280" y1="10.451845" x2="9.913465" y2="10.451845" stroke="rgb(0,255,0)" />
    <line id="PEN_1_NIVEL_2_LINE_04_SEG_0130" x1="9.925281" y1="10.451845" x2="10.208860" y2="10.451845" stroke="rgb(255,0,0)" />
    <line id="PEN_2_NIVEL_3_LINE_04_SEG_0131" x1="10.220676" y1="10.451845" x2="10.646045" y2="10.451845" stroke="rgb(0,255,0)" />
    <line id="PEN_3_NIVEL_4_LINE_04_SEG_0132" x1="10.657861" y1="10.451845" x2="10.716940" y2="10.451845" stroke="rgb(0,0,255)" />
    <line id="PEN_2_NIVEL_3_LINE_04_SEG_0133" x1="10.728756" y1="10.451845" x2="10.811467" y2="10.451845" stroke="rgb(0,255,0)" />
    <line id="PEN_3_NIVEL_4_LINE_04_SEG_0134" x1="10.823283" y1="10.451845" x2="10.894177" y2="10.451845" stroke="rgb(0,0,255)" />
    <line id="PEN_2_NIVEL_3_LINE_04_SEG_0135" x1="10.905993" y1="10.451845" x2="11.213204" y2="10.451845" stroke="rgb(0,255,0)" />
    <line id="PEN_1_NIVEL_2_LINE_04_SEG_0136" x1="11.225020" y1="10.451845" x2="11.307731" y2="10.451845" stroke="rgb(255,0,0)" />
    <line id="PEN_2_NIVEL_3_LINE_04_SEG_0137" x1="11.319547" y1="10.451845" x2="11.496784" y2="10.451845" stroke="rgb(0,255,0)" />
    <line id="PEN_1_NIVEL_2_LINE_04_SEG_0138" x1="11.508600" y1="10.451845" x2="11.721284" y2="10.451845" stroke="rgb(255,0,0)" />
    <line id="PEN_2_NIVEL_3_LINE_04_SEG_0139" x1="11.733100" y1="10.451845" x2="12.831970" y2="10.451845" stroke="rgb(0,255,0)" />
    <line id="PEN_1_NIVEL_2_LINE_04_SEG_0140" x1="12.843786" y1="10.451845" x2="12.973760" y2="10.451845" stroke="rgb(255,0,0)" />
    <line id="PEN_2_NIVEL_3_LINE_04_SEG_0141" x1="12.985576" y1="10.451845" x2="13.233708" y2="10.451845" stroke="rgb(0,255,0)" />
    <line id="PEN_1_NIVEL_2_LINE_04_SEG_0142" x1="13.245524" y1="10.451845" x2="13.446393" y2="10.451845" stroke="rgb(255,0,0)" />
    <line id="PEN_2_NIVEL_3_LINE_04_SEG_0143" x1="13.458208" y1="10.451845" x2="14.415289" y2="10.451845" stroke="rgb(0,255,0)" />
    <line id="PEN_1_NIVEL_2_LINE_04_SEG_0144" x1="14.427105" y1="10.451845" x2="14.498000" y2="10.451845" stroke="rgb(255,0,0)" />
    <line id="PEN_2_NIVEL_3_LINE_04_SEG_0145" x1="14.509816" y1="10.451845" x2="14.805211" y2="10.451845" stroke="rgb(0,255,0)" />
    <line id="PEN_3_NIVEL_4_LINE_04_SEG_0146" x1="14.817027" y1="10.451845" x2="14.876106" y2="10.451845" stroke="rgb(0,0,255)" />
    <line id="PEN_2_NIVEL_3_LINE_04_SEG_0147" x1="14.887921" y1="10.451845" x2="15.514159" y2="10.451845" stroke="rgb(0,255,0)" />
    <line id="PEN_3_NIVEL_4_LINE_04_SEG_0148" x1="15.525975" y1="10.451845" x2="15.797739" y2="10.451845" stroke="rgb(0,0,255)" />
    <line id="PEN_2_NIVEL_3_LINE_04_SEG_0149" x1="15.809555" y1="10.451845" x2="16.175845" y2="10.451845" stroke="rgb(0,255,0)" />
    <line id="PEN_3_NIVEL_4_LINE_04_SEG_0150" x1="16.187661" y1="10.451845" x2="16.341266" y2="10.451845" stroke="rgb(0,0,255)" />
    <line id="PEN_2_NIVEL_3_LINE_04_SEG_0151" x1="16.353082" y1="10.451845" x2="16.766635" y2="10.451845" stroke="rgb(0,255,0)" />
    <line id="PEN_3_NIVEL_4_LINE_04_SEG_0152" x1="16.778451" y1="10.451845" x2="17.085662" y2="10.451845" stroke="rgb(0,0,255)" />
    <line id="PEN_2_NIVEL_3_LINE_04_SEG_0153" x1="17.097478" y1="10.451845" x2="17.416505" y2="10.451845" stroke="rgb(0,255,0)" />
    <line id="PEN_3_NIVEL_4_LINE_04_SEG_0154" x1="17.428321" y1="10.451845" x2="17.700084" y2="10.451845" stroke="rgb(0,0,255)" />
    <line id="PEN_2_NIVEL_3_LINE_04_SEG_0155" x1="17.711900" y1="10.451845" x2="17.900953" y2="10.451845" stroke="rgb(0,255,0)" />
    <line id="PEN_10_NIVEL_3_LINE_05_SEG_0156" x1="0.000000" y1="13.435477" x2="0.165421" y2="13.435477" stroke="rgb(255,255,0)" />
    <line id="PEN_11_NIVEL_4_LINE_05_SEG_0157" x1="0.177237" y1="13.435477" x2="0.330843" y2="13.435477" stroke="rgb(255,0,255)" />
    <line id="PEN_10_NIVEL_3_LINE_05_SEG_0158" x1="0.342659" y1="13.435477" x2="2.079583" y2="13.435477" stroke="rgb(255,255,0)" />
    <line id="PEN_9_NIVEL_2_LINE_05_SEG_0159" x1="2.091398" y1="13.435477" x2="2.339531" y2="13.435477" stroke="rgb(0,170,0)" />
    <line id="PEN_10_NIVEL_3_LINE_05_SEG_0160" x1="2.351346" y1="13.435477" x2="4.170981" y2="13.435477" stroke="rgb(255,255,0)" />
    <line id="PEN_9_NIVEL_2_LINE_05_SEG_0161" x1="4.182797" y1="13.435477" x2="4.371850" y2="13.435477" stroke="rgb(0,170,0)" />
    <line id="PEN_10_NIVEL_3_LINE_05_SEG_0162" x1="4.383666" y1="13.435477" x2="4.513640" y2="13.435477" stroke="rgb(255,255,0)" />
    <line id="PEN_9_NIVEL_2_LINE_05_SEG_0163" x1="4.525455" y1="13.435477" x2="4.726324" y2="13.435477" stroke="rgb(0,170,0)" />
    <line id="PEN_10_NIVEL_3_LINE_05_SEG_0164" x1="4.738140" y1="13.435477" x2="5.151693" y2="13.435477" stroke="rgb(255,255,0)" />
    <line id="PEN_9_NIVEL_2_LINE_05_SEG_0165" x1="5.163509" y1="13.435477" x2="5.234404" y2="13.435477" stroke="rgb(0,170,0)" />
    <line id="PEN_10_NIVEL_3_LINE_05_SEG_0166" x1="5.246220" y1="13.435477" x2="6.026063" y2="13.435477" stroke="rgb(255,255,0)" />
    <line id="PEN_9_NIVEL_2_LINE_05_SEG_0167" x1="6.037879" y1="13.435477" x2="6.179669" y2="13.435477" stroke="rgb(0,170,0)" />
    <line id="PEN_10_NIVEL_3_LINE_05_SEG_0168" x1="6.191485" y1="13.435477" x2="6.333275" y2="13.435477" stroke="rgb(255,255,0)" />
    <line id="PEN_11_NIVEL_4_LINE_05_SEG_0169" x1="6.345090" y1="13.435477" x2="6.475064" y2="13.435477" stroke="rgb(255,0,255)" />
    <line id="PEN_9_NIVEL_2_LINE_05_SEG_0170" x1="6.486880" y1="13.435477" x2="6.758644" y2="13.435477" stroke="rgb(0,170,0)" />
    <line id="PEN_10_NIVEL_3_LINE_05_SEG_0171" x1="6.770460" y1="13.435477" x2="7.290355" y2="13.435477" stroke="rgb(255,255,0)" />
    <line id="PEN_9_NIVEL_2_LINE_05_SEG_0172" x1="7.302171" y1="13.435477" x2="7.408513" y2="13.435477" stroke="rgb(0,170,0)" />
    <line id="PEN_10_NIVEL_3_LINE_05_SEG_0173" x1="7.420329" y1="13.435477" x2="7.573935" y2="13.435477" stroke="rgb(255,255,0)" />
    <line id="PEN_9_NIVEL_2_LINE_05_SEG_0174" x1="7.585750" y1="13.435477" x2="7.810251" y2="13.435477" stroke="rgb(0,170,0)" />
    <line id="PEN_10_NIVEL_3_LINE_05_SEG_0175" x1="7.822067" y1="13.435477" x2="8.956385" y2="13.435477" stroke="rgb(255,255,0)" />
    <line id="PEN_11_NIVEL_4_LINE_05_SEG_0176" x1="8.968200" y1="13.435477" x2="9.145437" y2="13.435477" stroke="rgb(255,0,255)" />
    <line id="PEN_10_NIVEL_3_LINE_05_SEG_0177" x1="9.157253" y1="13.435477" x2="9.251780" y2="13.435477" stroke="rgb(255,255,0)" />
    <line id="PEN_9_NIVEL_2_LINE_05_SEG_0178" x1="9.263596" y1="13.435477" x2="9.558991" y2="13.435477" stroke="rgb(0,170,0)" />
    <line id="PEN_10_NIVEL_3_LINE_05_SEG_0179" x1="9.570807" y1="13.435477" x2="10.468808" y2="13.435477" stroke="rgb(255,255,0)" />
    <line id="PEN_9_NIVEL_2_LINE_05_SEG_0180" x1="10.480624" y1="13.435477" x2="10.740572" y2="13.435477" stroke="rgb(0,170,0)" />
    <line id="PEN_10_NIVEL_3_LINE_05_SEG_0181" x1="10.752388" y1="13.435477" x2="11.047783" y2="13.435477" stroke="rgb(255,255,0)" />
    <line id="PEN_9_NIVEL_2_LINE_05_SEG_0182" x1="11.059599" y1="13.435477" x2="11.225020" y2="13.435477" stroke="rgb(0,170,0)" />
    <line id="PEN_10_NIVEL_3_LINE_05_SEG_0183" x1="11.236836" y1="13.435477" x2="11.295915" y2="13.435477" stroke="rgb(255,255,0)" />
    <line id="PEN_9_NIVEL_2_LINE_05_SEG_0184" x1="11.307731" y1="13.435477" x2="11.555863" y2="13.435477" stroke="rgb(0,170,0)" />
    <line id="PEN_10_NIVEL_3_LINE_05_SEG_0185" x1="11.567679" y1="13.435477" x2="11.922153" y2="13.435477" stroke="rgb(255,255,0)" />
    <line id="PEN_9_NIVEL_2_LINE_05_SEG_0186" x1="11.933969" y1="13.435477" x2="12.276627" y2="13.435477" stroke="rgb(0,170,0)" />
    <line id="PEN_10_NIVEL_3_LINE_05_SEG_0187" x1="12.288443" y1="13.435477" x2="12.477496" y2="13.435477" stroke="rgb(255,255,0)" />
    <line id="PEN_9_NIVEL_2_LINE_05_SEG_0188" x1="12.489312" y1="13.435477" x2="12.607470" y2="13.435477" stroke="rgb(0,170,0)" />
    <line id="PEN_10_NIVEL_3_LINE_05_SEG_0189" x1="12.619286" y1="13.435477" x2="13.930841" y2="13.435477" stroke="rgb(255,255,0)" />
    <line id="PEN_11_NIVEL_4_LINE_05_SEG_0190" x1="13.942657" y1="13.435477" x2="14.001736" y2="13.435477" stroke="rgb(255,0,255)" />
    <line id="PEN_10_NIVEL_3_LINE_05_SEG_0191" x1="14.013551" y1="13.435477" x2="15.419633" y2="13.435477" stroke="rgb(255,255,0)" />
    <line id="PEN_9_NIVEL_2_LINE_05_SEG_0192" x1="15.431449" y1="13.435477" x2="15.537791" y2="13.435477" stroke="rgb(0,170,0)" />
    <line id="PEN_10_NIVEL_3_LINE_05_SEG_0193" x1="15.549607" y1="13.435477" x2="15.644133" y2="13.435477" stroke="rgb(255,255,0)" />
    <line id="PEN_9_NIVEL_2_LINE_05_SEG_0194" x1="15.655949" y1="13.435477" x2="15.845002" y2="13.435477" stroke="rgb(0,170,0)" />
    <line id="PEN_10_NIVEL_3_LINE_05_SEG_0195" x1="15.856818" y1="13.435477" x2="15.915897" y2="13.435477" stroke="rgb(255,255,0)" />
    <line id="PEN_9_NIVEL_2_LINE_05_SEG_0196" x1="15.927713" y1="13.435477" x2="16.258556" y2="13.435477" stroke="rgb(0,170,0)" />
    <line id="PEN_10_NIVEL_3_LINE_05_SEG_0197" x1="16.270371" y1="13.435477" x2="16.660293" y2="13.435477" stroke="rgb(255,255,0)" />
    <line id="PEN_9_NIVEL_2_LINE_05_SEG_0198" x1="16.672109" y1="13.435477" x2="17.121110" y2="13.435477" stroke="rgb(0,170,0)" />
    <line id="PEN_10_NIVEL_3_LINE_05_SEG_0199" x1="17.132926" y1="13.435477" x2="17.900953" y2="13.435477" stroke="rgb(255,255,0)" />
  </g>
</svg>
