<?xml version="1.0" encoding="UTF-8"?>
<svg xmlns="http://www.w3.org/2000/svg"
     width="3.260626mm" height="2.825000mm"
     viewBox="-33.475265 -26.956057 3.260626 2.825000">
  <g fill="none" stroke-width="0.02" stroke-linecap="round">
    <line id="AREA_A2_PEN_5_AREA_NIVEL_3" x1="-32.475265" y1="-25.131057" x2="-32.375583" y2="-25.131057" stroke="rgb(255,170,0)" />
    <line id="AREA_A2_PEN_4_AREA_NIVEL_4" x1="-31.951484" y1="-25.158557" x2="-31.892231" y2="-25.158557" stroke="rgb(0,128,255)" />
    <line id="AREA_A2_PEN_5_AREA_NIVEL_3" x1="-32.378138" y1="-25.213557" x2="-32.281918" y2="-25.213557" stroke="rgb(255,170,0)" />
    <line id="AREA_A2_PEN_5_AREA_NIVEL_3" x1="-32.367868" y1="-25.268557" x2="-32.297633" y2="-25.268557" stroke="rgb(255,170,0)" />
    <line id="AREA_A2_PEN_6_AREA_NIVEL_2" x1="-32.107258" y1="-25.296057" x2="-32.022164" y2="-25.296057" stroke="rgb(0,170,170)" />
    <line id="AREA_A2_PEN_4_AREA_NIVEL_4" x1="-32.242419" y1="-25.323557" x2="-32.183171" y2="-25.323557" stroke="rgb(0,128,255)" />
    <line id="AREA_A2_PEN_5_AREA_NIVEL_3" x1="-31.812734" y1="-25.351057" x2="-31.735127" y2="-25.351057" stroke="rgb(255,170,0)" />
    <line id="AREA_A2_PEN_4_AREA_NIVEL_4" x1="-31.643583" y1="-25.461057" x2="-31.569627" y2="-25.461057" stroke="rgb(0,128,255)" />
    <line id="AREA_A2_PEN_5_AREA_NIVEL_3" x1="-31.273804" y1="-25.461057" x2="-31.214640" y2="-25.461057" stroke="rgb(255,170,0)" />
    <line id="AREA_A2_PEN_4_AREA_NIVEL_4" x1="-31.685742" y1="-25.488557" x2="-31.582113" y2="-25.488557" stroke="rgb(0,128,255)" />
    <line id="AREA_A2_PEN_4_AREA_NIVEL_4" x1="-31.657594" y1="-25.516057" x2="-31.594621" y2="-25.516057" stroke="rgb(0,128,255)" />
    <line id="AREA_A2_PEN_5_AREA_NIVEL_3" x1="-31.749571" y1="-25.598557" x2="-31.694021" y2="-25.598557" stroke="rgb(255,170,0)" />
    <line id="AREA_A2_PEN_4_AREA_NIVEL_4" x1="-31.487381" y1="-25.708557" x2="-31.428091" y2="-25.708557" stroke="rgb(0,128,255)" />
    <line id="AREA_A2_PEN_5_AREA_NIVEL_3" x1="-32.416113" y1="-25.736057" x2="-32.356945" y2="-25.736057" stroke="rgb(255,170,0)" />
    <line id="AREA_A2_PEN_4_AREA_NIVEL_4" x1="-31.487911" y1="-25.736057" x2="-31.428742" y2="-25.736057" stroke="rgb(0,128,255)" />
    <line id="AREA_A2_PEN_6_AREA_NIVEL_2" x1="-32.067062" y1="-25.901057" x2="-32.011622" y2="-25.901057" stroke="rgb(0,170,170)" />
    <line id="AREA_A2_PEN_6_AREA_NIVEL_2" x1="-31.848563" y1="-25.956057" x2="-31.770807" y2="-25.956057" stroke="rgb(0,170,170)" />
    <line id="AREA_A2_PEN_5_AREA_NIVEL_3" x1="-31.426459" y1="-25.956057" x2="-31.359811" y2="-25.956057" stroke="rgb(255,170,0)" />
  </g>
</svg>
