0
SECTION
2
HEADER
9
$INSUNITS
70
4
0
ENDSEC
0
SECTION
2
TABLES
0
TABLE
2
LAYER
70
3
0
LAYER
2
AREA_A2_PEN_3_AREA_NIVEL_2
70
0
62
1
6
CONTINUOUS
0
LAYER
2
AREA_A2_PEN_2_AREA_NIVEL_3
70
0
62
6
6
CONTINUOUS
0
LAYER
2
AREA_A2_PEN_3_AREA_NIVEL_4
70
0
62
1
6
CONTINUOUS
0
ENDTAB
0
ENDSEC
0
SECTION
2
ENTITIES
0
LINE
8
AREA_A2_PEN_3_AREA_NIVEL_2
62
1
10
-37.762529
20
22.036250
30
0
11
-37.624625
21
22.036250
31
0
0
LINE
8
AREA_A2_PEN_3_AREA_NIVEL_2
62
1
10
-37.754582
20
22.063750
30
0
11
-37.644261
21
22.063750
31
0
0
LINE
8
AREA_A2_PEN_3_AREA_NIVEL_2
62
1
10
-37.825218
20
22.146250
30
0
11
-37.681950
21
22.146250
31
0
0
LINE
8
AREA_A2_PEN_3_AREA_NIVEL_2
62
1
10
-37.865379
20
22.173750
30
0
11
-37.688788
21
22.173750
31
0
0
LINE
8
AREA_A2_PEN_3_AREA_NIVEL_2
62
1
10
-37.975875
20
22.311250
30
0
11
-37.743875
21
22.311250
31
0
0
LINE
8
AREA_A2_PEN_3_AREA_NIVEL_2
62
1
10
-37.846562
20
22.338750
30
0
11
-37.525694
21
22.338750
31
0
0
LINE
8
AREA_A2_PEN_3_AREA_NIVEL_2
62
1
10
-37.983131
20
22.366250
30
0
11
-37.868973
21
22.366250
31
0
0
LINE
8
AREA_A2_PEN_3_AREA_NIVEL_2
62
1
10
-37.661802
20
22.476250
30
0
11
-37.518148
21
22.476250
31
0
0
LINE
8
AREA_A2_PEN_3_AREA_NIVEL_2
62
1
10
-37.920457
20
22.586250
30
0
11
-37.791634
21
22.586250
31
0
0
LINE
8
AREA_A2_PEN_3_AREA_NIVEL_2
62
1
10
-37.283413
20
22.668750
30
0
11
-37.181875
21
22.668750
31
0
0
LINE
8
AREA_A2_PEN_3_AREA_NIVEL_2
62
1
10
-37.275345
20
22.696250
30
0
11
-37.162625
21
22.696250
31
0
0
LINE
8
AREA_A2_PEN_3_AREA_NIVEL_2
62
1
10
-37.709958
20
22.723750
30
0
11
-37.570034
21
22.723750
31
0
0
LINE
8
AREA_A2_PEN_3_AREA_NIVEL_2
62
1
10
-37.274261
20
22.723750
30
0
11
-37.145414
21
22.723750
31
0
0
LINE
8
AREA_A2_PEN_3_AREA_NIVEL_2
62
1
10
-37.672715
20
22.751250
30
0
11
-37.521628
21
22.751250
31
0
0
LINE
8
AREA_A2_PEN_3_AREA_NIVEL_2
62
1
10
-37.277278
20
22.751250
30
0
11
-37.155756
21
22.751250
31
0
0
LINE
8
AREA_A2_PEN_3_AREA_NIVEL_2
62
1
10
-37.846256
20
22.778750
30
0
11
-37.547131
21
22.778750
31
0
0
LINE
8
AREA_A2_PEN_3_AREA_NIVEL_2
62
1
10
-37.313619
20
22.778750
30
0
11
-37.104875
21
22.778750
31
0
0
LINE
8
AREA_A2_PEN_3_AREA_NIVEL_2
62
1
10
-37.853510
20
22.806250
30
0
11
-37.591202
21
22.806250
31
0
0
LINE
8
AREA_A2_PEN_3_AREA_NIVEL_2
62
1
10
-37.305625
20
22.806250
30
0
11
-37.154375
21
22.806250
31
0
0
LINE
8
AREA_A2_PEN_3_AREA_NIVEL_2
62
1
10
-37.768160
20
22.833750
30
0
11
-37.613128
21
22.833750
31
0
0
LINE
8
AREA_A2_PEN_3_AREA_NIVEL_2
62
1
10
-37.739422
20
22.861250
30
0
11
-37.625328
21
22.861250
31
0
0
LINE
8
AREA_A2_PEN_3_AREA_NIVEL_2
62
1
10
-38.000000
20
22.916250
30
0
11
-37.865224
21
22.916250
31
0
0
LINE
8
AREA_A2_PEN_3_AREA_NIVEL_2
62
1
10
-38.000000
20
22.943750
30
0
11
-37.865144
21
22.943750
31
0
0
LINE
8
AREA_A2_PEN_3_AREA_NIVEL_2
62
1
10
-38.000000
20
22.971250
30
0
11
-37.868772
21
22.971250
31
0
0
LINE
8
AREA_A2_PEN_3_AREA_NIVEL_2
62
1
10
-38.000000
20
22.998750
30
0
11
-37.891230
21
22.998750
31
0
0
LINE
8
AREA_A2_PEN_3_AREA_NIVEL_2
62
1
10
-37.872019
20
23.081250
30
0
11
-37.761490
21
23.081250
31
0
0
LINE
8
AREA_A2_PEN_3_AREA_NIVEL_2
62
1
10
-37.198269
20
23.081250
30
0
11
-37.065529
21
23.081250
31
0
0
LINE
8
AREA_A2_PEN_3_AREA_NIVEL_2
62
1
10
-37.864508
20
23.108750
30
0
11
-37.687264
21
23.108750
31
0
0
LINE
8
AREA_A2_PEN_3_AREA_NIVEL_2
62
1
10
-37.275515
20
23.108750
30
0
11
-37.157541
21
23.108750
31
0
0
LINE
8
AREA_A2_PEN_3_AREA_NIVEL_2
62
1
10
-37.853846
20
23.136250
30
0
11
-37.639972
21
23.136250
31
0
0
LINE
8
AREA_A2_PEN_3_AREA_NIVEL_2
62
1
10
-37.281159
20
23.136250
30
0
11
-37.155958
21
23.136250
31
0
0
LINE
8
AREA_A2_PEN_3_AREA_NIVEL_2
62
1
10
-37.801969
20
23.163750
30
0
11
-37.599081
21
23.163750
31
0
0
LINE
8
AREA_A2_PEN_3_AREA_NIVEL_2
62
1
10
-37.805523
20
23.191250
30
0
11
-37.621037
21
23.191250
31
0
0
LINE
8
AREA_A2_PEN_3_AREA_NIVEL_2
62
1
10
-37.013807
20
23.191250
30
0
11
-36.877416
21
23.191250
31
0
0
LINE
8
AREA_A2_PEN_3_AREA_NIVEL_2
62
1
10
-37.009471
20
23.218750
30
0
11
-36.869327
21
23.218750
31
0
0
LINE
8
AREA_A2_PEN_3_AREA_NIVEL_2
62
1
10
-37.964529
20
23.246250
30
0
11
-37.568746
21
23.246250
31
0
0
LINE
8
AREA_A2_PEN_3_AREA_NIVEL_2
62
1
10
-37.034783
20
23.246250
30
0
11
-36.890883
21
23.246250
31
0
0
LINE
8
AREA_A2_PEN_3_AREA_NIVEL_2
62
1
10
-37.890690
20
23.301250
30
0
11
-37.776528
21
23.301250
31
0
0
LINE
8
AREA_A2_PEN_3_AREA_NIVEL_2
62
1
10
-37.408932
20
23.383750
30
0
11
-37.265035
21
23.383750
31
0
0
LINE
8
AREA_A2_PEN_3_AREA_NIVEL_2
62
1
10
-37.972032
20
23.438750
30
0
11
-37.835678
21
23.438750
31
0
0
LINE
8
AREA_A2_PEN_3_AREA_NIVEL_2
62
1
10
-37.986801
20
23.466250
30
0
11
-37.513708
21
23.466250
31
0
0
LINE
8
AREA_A2_PEN_3_AREA_NIVEL_2
62
1
10
-36.765823
20
23.466250
30
0
11
-36.640524
21
23.466250
31
0
0
LINE
8
AREA_A2_PEN_3_AREA_NIVEL_2
62
1
10
-37.627692
20
23.493750
30
0
11
-37.472740
21
23.493750
31
0
0
LINE
8
AREA_A2_PEN_3_AREA_NIVEL_2
62
1
10
-37.705100
20
23.548750
30
0
11
-37.587102
21
23.548750
31
0
0
LINE
8
AREA_A2_PEN_3_AREA_NIVEL_2
62
1
10
-36.799712
20
23.576250
30
0
11
-36.546625
21
23.576250
31
0
0
LINE
8
AREA_A2_PEN_3_AREA_NIVEL_2
62
1
10
-37.968299
20
23.603750
30
0
11
-37.839298
21
23.603750
31
0
0
LINE
8
AREA_A2_PEN_3_AREA_NIVEL_2
62
1
10
-36.750978
20
23.603750
30
0
11
-36.527375
21
23.603750
31
0
0
LINE
8
AREA_A2_PEN_3_AREA_NIVEL_2
62
1
10
-37.975673
20
23.631250
30
0
11
-37.846635
21
23.631250
31
0
0
LINE
8
AREA_A2_PEN_3_AREA_NIVEL_2
62
1
10
-36.761442
20
23.631250
30
0
11
-36.508125
21
23.631250
31
0
0
LINE
8
AREA_A2_PEN_3_AREA_NIVEL_2
62
1
10
-38.000000
20
23.658750
30
0
11
-37.853980
21
23.658750
31
0
0
LINE
8
AREA_A2_PEN_3_AREA_NIVEL_2
62
1
10
-36.783044
20
23.658750
30
0
11
-36.509524
21
23.658750
31
0
0
LINE
8
AREA_A2_PEN_3_AREA_NIVEL_2
62
1
10
-38.000000
20
23.686250
30
0
11
-37.898390
21
23.686250
31
0
0
LINE
8
AREA_A2_PEN_3_AREA_NIVEL_2
62
1
10
-36.889909
20
23.686250
30
0
11
-36.471769
21
23.686250
31
0
0
LINE
8
AREA_A2_PEN_3_AREA_NIVEL_2
62
1
10
-38.000000
20
23.713750
30
0
11
-37.891135
21
23.713750
31
0
0
LINE
8
AREA_A2_PEN_3_AREA_NIVEL_2
62
1
10
-36.851412
20
23.713750
30
0
11
-36.450375
21
23.713750
31
0
0
LINE
8
AREA_A2_PEN_3_AREA_NIVEL_2
62
1
10
-36.843443
20
23.741250
30
0
11
-36.673738
21
23.741250
31
0
0
LINE
8
AREA_A2_PEN_3_AREA_NIVEL_2
62
1
10
-36.831779
20
23.768750
30
0
11
-36.658317
21
23.768750
31
0
0
LINE
8
AREA_A2_PEN_3_AREA_NIVEL_2
62
1
10
-36.509012
20
23.796250
30
0
11
-36.392625
21
23.796250
31
0
0
LINE
8
AREA_A2_PEN_3_AREA_NIVEL_2
62
1
10
-36.893679
20
23.823750
30
0
11
-36.779395
21
23.823750
31
0
0
LINE
8
AREA_A2_PEN_3_AREA_NIVEL_2
62
1
10
-36.519444
20
23.823750
30
0
11
-36.382928
21
23.823750
31
0
0
LINE
8
AREA_A2_PEN_3_AREA_NIVEL_2
62
1
10
-36.544363
20
23.851250
30
0
11
-36.385803
21
23.851250
31
0
0
LINE
8
AREA_A2_PEN_3_AREA_NIVEL_2
62
1
10
-36.654697
20
23.878750
30
0
11
-36.334875
21
23.878750
31
0
0
LINE
8
AREA_A2_PEN_3_AREA_NIVEL_2
62
1
10
-37.968269
20
23.906250
30
0
11
-37.491250
21
23.906250
31
0
0
LINE
8
AREA_A2_PEN_3_AREA_NIVEL_2
62
1
10
-36.583750
20
23.906250
30
0
11
-36.391779
21
23.906250
31
0
0
LINE
8
AREA_A2_PEN_3_AREA_NIVEL_2
62
1
10
-37.953429
20
23.933750
30
0
11
-37.465116
21
23.933750
31
0
0
LINE
8
AREA_A2_PEN_3_AREA_NIVEL_2
62
1
10
-37.968218
20
23.961250
30
0
11
-37.805770
21
23.961250
31
0
0
LINE
8
AREA_A2_PEN_3_AREA_NIVEL_2
62
1
10
-36.734417
20
23.961250
30
0
11
-36.590495
21
23.961250
31
0
0
LINE
8
AREA_A2_PEN_3_AREA_NIVEL_2
62
1
10
-37.979416
20
23.988750
30
0
11
-37.857838
21
23.988750
31
0
0
LINE
8
AREA_A2_PEN_3_AREA_NIVEL_2
62
1
10
-37.017733
20
23.988750
30
0
11
-36.633542
21
23.988750
31
0
0
LINE
8
AREA_A2_PEN_3_AREA_NIVEL_2
62
1
10
-37.757260
20
24.043750
30
0
11
-37.472740
21
24.043750
31
0
0
LINE
8
AREA_A2_PEN_3_AREA_NIVEL_2
62
1
10
-36.565240
20
24.043750
30
0
11
-36.451010
21
24.043750
31
0
0
LINE
8
AREA_A2_PEN_3_AREA_NIVEL_2
62
1
10
-36.816473
20
24.071250
30
0
11
-36.691108
21
24.071250
31
0
0
LINE
8
AREA_A2_PEN_3_AREA_NIVEL_2
62
1
10
-37.971926
20
24.098750
30
0
11
-37.857647
21
24.098750
31
0
0
LINE
8
AREA_A2_PEN_3_AREA_NIVEL_2
62
1
10
-37.842553
20
24.126250
30
0
11
-37.669187
21
24.126250
31
0
0
LINE
8
AREA_A2_PEN_3_AREA_NIVEL_2
62
1
10
-36.388868
20
24.126250
30
0
11
-36.241394
21
24.126250
31
0
0
LINE
8
AREA_A2_PEN_3_AREA_NIVEL_2
62
1
10
-37.805473
20
24.153750
30
0
11
-37.661662
21
24.153750
31
0
0
LINE
8
AREA_A2_PEN_3_AREA_NIVEL_2
62
1
10
-36.410404
20
24.153750
30
0
11
-36.240690
21
24.153750
31
0
0
LINE
8
AREA_A2_PEN_3_AREA_NIVEL_2
62
1
10
-36.417163
20
24.181250
30
0
11
-36.254808
21
24.181250
31
0
0
LINE
8
AREA_A2_PEN_3_AREA_NIVEL_2
62
1
10
-36.957226
20
24.208750
30
0
11
-36.839269
21
24.208750
31
0
0
LINE
8
AREA_A2_PEN_3_AREA_NIVEL_2
62
1
10
-36.590593
20
24.208750
30
0
11
-36.443009
21
24.208750
31
0
0
LINE
8
AREA_A2_PEN_3_AREA_NIVEL_2
62
1
10
-36.586338
20
24.236250
30
0
11
-36.460947
21
24.236250
31
0
0
LINE
8
AREA_A2_PEN_3_AREA_NIVEL_2
62
1
10
-37.025046
20
24.263750
30
0
11
-36.892365
21
24.263750
31
0
0
LINE
8
AREA_A2_PEN_3_AREA_NIVEL_2
62
1
10
-37.172680
20
24.291250
30
0
11
-36.729125
21
24.291250
31
0
0
LINE
8
AREA_A2_PEN_3_AREA_NIVEL_2
62
1
10
-37.176058
20
24.318750
30
0
11
-36.713846
21
24.318750
31
0
0
LINE
8
AREA_A2_PEN_3_AREA_NIVEL_2
62
1
10
-37.983060
20
24.346250
30
0
11
-37.816961
21
24.346250
31
0
0
LINE
8
AREA_A2_PEN_3_AREA_NIVEL_2
62
1
10
-37.190554
20
24.346250
30
0
11
-36.720785
21
24.346250
31
0
0
LINE
8
AREA_A2_PEN_3_AREA_NIVEL_2
62
1
10
-37.390300
20
24.373750
30
0
11
-36.749965
21
24.373750
31
0
0
LINE
8
AREA_A2_PEN_3_AREA_NIVEL_2
62
1
10
-37.404896
20
24.401250
30
0
11
-36.742116
21
24.401250
31
0
0
LINE
8
AREA_A2_PEN_3_AREA_NIVEL_2
62
1
10
-36.293103
20
24.401250
30
0
11
-36.134336
21
24.401250
31
0
0
LINE
8
AREA_A2_PEN_3_AREA_NIVEL_2
62
1
10
-37.827668
20
24.428750
30
0
11
-37.213880
21
24.428750
31
0
0
LINE
8
AREA_A2_PEN_3_AREA_NIVEL_2
62
1
10
-36.928426
20
24.428750
30
0
11
-36.181416
21
24.428750
31
0
0
LINE
8
AREA_A2_PEN_3_AREA_NIVEL_2
62
1
10
-37.801683
20
24.456250
30
0
11
-37.672644
21
24.456250
31
0
0
LINE
8
AREA_A2_PEN_3_AREA_NIVEL_2
62
1
10
-37.390769
20
24.456250
30
0
11
-37.217308
21
24.456250
31
0
0
LINE
8
AREA_A2_PEN_3_AREA_NIVEL_2
62
1
10
-36.913221
20
24.456250
30
0
11
-36.787885
21
24.456250
31
0
0
LINE
8
AREA_A2_PEN_3_AREA_NIVEL_2
62
1
10
-37.375730
20
24.483750
30
0
11
-37.246666
21
24.483750
31
0
0
LINE
8
AREA_A2_PEN_3_AREA_NIVEL_2
62
1
10
-36.731367
20
24.483750
30
0
11
-36.417141
21
24.483750
31
0
0
LINE
8
AREA_A2_PEN_3_AREA_NIVEL_2
62
1
10
-37.360685
20
24.511250
30
0
11
-37.142686
21
24.511250
31
0
0
LINE
8
AREA_A2_PEN_3_AREA_NIVEL_2
62
1
10
-37.727331
20
24.538750
30
0
11
-37.590803
21
24.538750
31
0
0
LINE
8
AREA_A2_PEN_3_AREA_NIVEL_2
62
1
10
-37.334517
20
24.538750
30
0
11
-37.146108
21
24.538750
31
0
0
LINE
8
AREA_A2_PEN_3_AREA_NIVEL_2
62
1
10
-36.760119
20
24.538750
30
0
11
-36.316011
21
24.538750
31
0
0
LINE
8
AREA_A2_PEN_3_AREA_NIVEL_2
62
1
10
-35.955962
20
24.538750
30
0
11
-35.872875
21
24.538750
31
0
0
LINE
8
AREA_A2_PEN_3_AREA_NIVEL_2
62
1
10
-37.816563
20
24.566250
30
0
11
-37.661646
21
24.566250
31
0
0
LINE
8
AREA_A2_PEN_3_AREA_NIVEL_2
62
1
10
-37.405791
20
24.566250
30
0
11
-37.139855
21
24.566250
31
0
0
LINE
8
AREA_A2_PEN_3_AREA_NIVEL_2
62
1
10
-36.895102
20
24.566250
30
0
11
-36.625465
21
24.566250
31
0
0
LINE
8
AREA_A2_PEN_3_AREA_NIVEL_2
62
1
10
-37.986779
20
24.593750
30
0
11
-37.820721
21
24.593750
31
0
0
LINE
8
AREA_A2_PEN_3_AREA_NIVEL_2
62
1
10
-37.464808
20
24.593750
30
0
11
-36.910048
21
24.593750
31
0
0
LINE
8
AREA_A2_PEN_3_AREA_NIVEL_2
62
1
10
-37.860857
20
24.621250
30
0
11
-36.909688
21
24.621250
31
0
0
LINE
8
AREA_A2_PEN_3_AREA_NIVEL_2
62
1
10
-37.990456
20
24.648750
30
0
11
-36.913038
21
24.648750
31
0
0
LINE
8
AREA_A2_PEN_3_AREA_NIVEL_2
62
1
10
-38.000000
20
24.676250
30
0
11
-37.264726
21
24.676250
31
0
0
LINE
8
AREA_A2_PEN_3_AREA_NIVEL_2
62
1
10
-37.019570
20
24.676250
30
0
11
-36.897869
21
24.676250
31
0
0
LINE
8
AREA_A2_PEN_3_AREA_NIVEL_2
62
1
10
-36.308090
20
24.676250
30
0
11
-36.178978
21
24.676250
31
0
0
LINE
8
AREA_A2_PEN_3_AREA_NIVEL_2
62
1
10
-37.997894
20
24.703750
30
0
11
-37.258265
21
24.703750
31
0
0
LINE
8
AREA_A2_PEN_3_AREA_NIVEL_2
62
1
10
-37.020909
20
24.703750
30
0
11
-36.899297
21
24.703750
31
0
0
LINE
8
AREA_A2_PEN_3_AREA_NIVEL_2
62
1
10
-36.299272
20
24.703750
30
0
11
-35.914910
21
24.703750
31
0
0
LINE
8
AREA_A2_PEN_3_AREA_NIVEL_2
62
1
10
-37.957163
20
24.731250
30
0
11
-37.254327
21
24.731250
31
0
0
LINE
8
AREA_A2_PEN_3_AREA_NIVEL_2
62
1
10
-36.454183
20
24.731250
30
0
11
-36.195577
21
24.731250
31
0
0
LINE
8
AREA_A2_PEN_3_AREA_NIVEL_2
62
1
10
-38.000000
20
24.758750
30
0
11
-37.261500
21
24.758750
31
0
0
LINE
8
AREA_A2_PEN_3_AREA_NIVEL_2
62
1
10
-36.464781
20
24.758750
30
0
11
-36.154266
21
24.758750
31
0
0
LINE
8
AREA_A2_PEN_3_AREA_NIVEL_2
62
1
10
-35.868578
20
24.758750
30
0
11
-35.754328
21
24.758750
31
0
0
LINE
8
AREA_A2_PEN_3_AREA_NIVEL_2
62
1
10
-37.886736
20
24.786250
30
0
11
-36.898251
21
24.786250
31
0
0
LINE
8
AREA_A2_PEN_3_AREA_NIVEL_2
62
1
10
-36.338336
20
24.786250
30
0
11
-35.749915
21
24.786250
31
0
0
LINE
8
AREA_A2_PEN_3_AREA_NIVEL_2
62
1
10
-37.949685
20
24.813750
30
0
11
-36.846037
21
24.813750
31
0
0
LINE
8
AREA_A2_PEN_3_AREA_NIVEL_2
62
1
10
-36.319278
20
24.813750
30
0
11
-36.175346
21
24.813750
31
0
0
LINE
8
AREA_A2_PEN_3_AREA_NIVEL_2
62
1
10
-35.930203
20
24.813750
30
0
11
-35.680375
21
24.813750
31
0
0
LINE
8
AREA_A2_PEN_3_AREA_NIVEL_2
62
1
10
-37.949784
20
24.841250
30
0
11
-37.454395
21
24.841250
31
0
0
LINE
8
AREA_A2_PEN_3_AREA_NIVEL_2
62
1
10
-36.969085
20
24.841250
30
0
11
-36.514404
21
24.841250
31
0
0
LINE
8
AREA_A2_PEN_3_AREA_NIVEL_2
62
1
10
-35.940276
20
24.841250
30
0
11
-35.670633
21
24.841250
31
0
0
LINE
8
AREA_A2_PEN_3_AREA_NIVEL_2
62
1
10
-37.705433
20
24.868750
30
0
11
-37.476442
21
24.868750
31
0
0
LINE
8
AREA_A2_PEN_3_AREA_NIVEL_2
62
1
10
-37.009471
20
24.868750
30
0
11
-36.728654
21
24.868750
31
0
0
LINE
8
AREA_A2_PEN_3_AREA_NIVEL_2
62
1
10
-36.232067
20
24.868750
30
0
11
-35.651394
21
24.868750
31
0
0
LINE
8
AREA_A2_PEN_3_AREA_NIVEL_2
62
1
10
-37.883080
20
24.896250
30
0
11
-37.465179
21
24.896250
31
0
0
LINE
8
AREA_A2_PEN_3_AREA_NIVEL_2
62
1
10
-36.961014
20
24.896250
30
0
11
-36.820843
21
24.896250
31
0
0
LINE
8
AREA_A2_PEN_3_AREA_NIVEL_2
62
1
10
-36.379631
20
24.896250
30
0
11
-36.254273
21
24.896250
31
0
0
LINE
8
AREA_A2_PEN_3_AREA_NIVEL_2
62
1
10
-35.831576
20
24.896250
30
0
11
-35.706217
21
24.896250
31
0
0
LINE
8
AREA_A2_PEN_3_AREA_NIVEL_2
62
1
10
-37.871923
20
24.923750
30
0
11
-37.753952
21
24.923750
31
0
0
LINE
8
AREA_A2_PEN_3_AREA_NIVEL_2
62
1
10
-36.968095
20
24.923750
30
0
11
-36.831603
21
24.923750
31
0
0
LINE
8
AREA_A2_PEN_3_AREA_NIVEL_2
62
1
10
-36.486548
20
24.923750
30
0
11
-36.238929
21
24.923750
31
0
0
LINE
8
AREA_A2_PEN_3_AREA_NIVEL_2
62
1
10
-36.986302
20
24.951250
30
0
11
-36.820142
21
24.951250
31
0
0
LINE
8
AREA_A2_PEN_3_AREA_NIVEL_2
62
1
10
-36.534252
20
24.951250
30
0
11
-36.230995
21
24.951250
31
0
0
LINE
8
AREA_A2_PEN_3_AREA_NIVEL_2
62
1
10
-37.150411
20
24.978750
30
0
11
-36.836355
21
24.978750
31
0
0
LINE
8
AREA_A2_PEN_3_AREA_NIVEL_2
62
1
10
-36.502771
20
24.978750
30
0
11
-36.240527
21
24.978750
31
0
0
LINE
8
AREA_A2_PEN_3_AREA_NIVEL_2
62
1
10
-37.838702
20
25.006250
30
0
11
-37.676346
21
25.006250
31
0
0
LINE
8
AREA_A2_PEN_3_AREA_NIVEL_2
62
1
10
-37.168654
20
25.006250
30
0
11
-37.024808
21
25.006250
31
0
0
LINE
8
AREA_A2_PEN_3_AREA_NIVEL_2
62
1
10
-36.450481
20
25.006250
30
0
11
-36.280721
21
25.006250
31
0
0
LINE
8
AREA_A2_PEN_3_AREA_NIVEL_2
62
1
10
-37.831239
20
25.033750
30
0
11
-37.661445
21
25.033750
31
0
0
LINE
8
AREA_A2_PEN_3_AREA_NIVEL_2
62
1
10
-37.353548
20
25.033750
30
0
11
-37.028227
21
25.033750
31
0
0
LINE
8
AREA_A2_PEN_3_AREA_NIVEL_2
62
1
10
-36.424087
20
25.033750
30
0
11
-35.969160
21
25.033750
31
0
0
LINE
8
AREA_A2_PEN_3_AREA_NIVEL_2
62
1
10
-37.364462
20
25.061250
30
0
11
-37.087215
21
25.061250
31
0
0
LINE
8
AREA_A2_PEN_3_AREA_NIVEL_2
62
1
10
-36.119876
20
25.061250
30
0
11
-35.924120
21
25.061250
31
0
0
LINE
8
AREA_A2_PEN_3_AREA_NIVEL_2
62
1
10
-35.693902
20
25.061250
30
0
11
-35.572228
21
25.061250
31
0
0
LINE
8
AREA_A2_PEN_3_AREA_NIVEL_2
62
1
10
-37.375385
20
25.088750
30
0
11
-37.105483
21
25.088750
31
0
0
LINE
8
AREA_A2_PEN_3_AREA_NIVEL_2
62
1
10
-37.675920
20
25.116250
30
0
11
-37.558006
21
25.116250
31
0
0
LINE
8
AREA_A2_PEN_3_AREA_NIVEL_2
62
1
10
-37.309537
20
25.116250
30
0
11
-37.147213
21
25.116250
31
0
0
LINE
8
AREA_A2_PEN_3_AREA_NIVEL_2
62
1
10
-37.720240
20
25.143750
30
0
11
-37.572692
21
25.143750
31
0
0
LINE
8
AREA_A2_PEN_3_AREA_NIVEL_2
62
1
10
-37.083510
20
25.143750
30
0
11
-36.972981
21
25.143750
31
0
0
LINE
8
AREA_A2_PEN_3_AREA_NIVEL_2
62
1
10
-37.727558
20
25.171250
30
0
11
-37.254120
21
25.171250
31
0
0
LINE
8
AREA_A2_PEN_3_AREA_NIVEL_2
62
1
10
-36.816622
20
25.171250
30
0
11
-36.643127
21
25.171250
31
0
0
LINE
8
AREA_A2_PEN_3_AREA_NIVEL_2
62
1
10
-37.857114
20
25.198750
30
0
11
-37.350221
21
25.198750
31
0
0
LINE
8
AREA_A2_PEN_3_AREA_NIVEL_2
62
1
10
-35.986573
20
25.198750
30
0
11
-35.876013
21
25.198750
31
0
0
LINE
8
AREA_A2_PEN_3_AREA_NIVEL_2
62
1
10
-35.579129
20
25.198750
30
0
11
-35.468568
21
25.198750
31
0
0
LINE
8
AREA_A2_PEN_3_AREA_NIVEL_2
62
1
10
-37.883002
20
25.226250
30
0
11
-37.379688
21
25.226250
31
0
0
LINE
8
AREA_A2_PEN_3_AREA_NIVEL_2
62
1
10
-36.689967
20
25.226250
30
0
11
-36.523814
21
25.226250
31
0
0
LINE
8
AREA_A2_PEN_3_AREA_NIVEL_2
62
1
10
-37.957183
20
25.253750
30
0
11
-36.751210
21
25.253750
31
0
0
LINE
8
AREA_A2_PEN_3_AREA_NIVEL_2
62
1
10
-37.923846
20
25.281250
30
0
11
-37.483846
21
25.281250
31
0
0
LINE
8
AREA_A2_PEN_3_AREA_NIVEL_2
62
1
10
-36.976154
20
25.281250
30
0
11
-36.480625
21
25.281250
31
0
0
LINE
8
AREA_A2_PEN_3_AREA_NIVEL_2
62
1
10
-37.738670
20
25.308750
30
0
11
-37.628126
21
25.308750
31
0
0
LINE
8
AREA_A2_PEN_3_AREA_NIVEL_2
62
1
10
-37.198039
20
25.308750
30
0
11
-36.839397
21
25.308750
31
0
0
LINE
8
AREA_A2_PEN_3_AREA_NIVEL_2
62
1
10
-35.524305
20
25.308750
30
0
11
-35.413761
21
25.308750
31
0
0
LINE
8
AREA_A2_PEN_3_AREA_NIVEL_2
62
1
10
-37.979348
20
25.336250
30
0
11
-37.865085
21
25.336250
31
0
0
LINE
8
AREA_A2_PEN_3_AREA_NIVEL_2
62
1
10
-37.201516
20
25.336250
30
0
11
-37.046509
21
25.336250
31
0
0
LINE
8
AREA_A2_PEN_3_AREA_NIVEL_2
62
1
10
-37.193883
20
25.363750
30
0
11
-37.035144
21
25.363750
31
0
0
LINE
8
AREA_A2_PEN_3_AREA_NIVEL_2
62
1
10
-36.211583
20
25.391250
30
0
11
-36.089876
21
25.391250
31
0
0
LINE
8
AREA_A2_PEN_3_AREA_NIVEL_2
62
1
10
-35.403686
20
25.391250
30
0
11
-35.276125
21
25.391250
31
0
0
LINE
8
AREA_A2_PEN_3_AREA_NIVEL_2
62
1
10
-37.575865
20
25.418750
30
0
11
-37.417212
21
25.418750
31
0
0
LINE
8
AREA_A2_PEN_3_AREA_NIVEL_2
62
1
10
-36.206154
20
25.418750
30
0
11
-36.036394
21
25.418750
31
0
0
LINE
8
AREA_A2_PEN_3_AREA_NIVEL_2
62
1
10
-37.579447
20
25.446250
30
0
11
-37.409657
21
25.446250
31
0
0
LINE
8
AREA_A2_PEN_3_AREA_NIVEL_2
62
1
10
-36.957357
20
25.446250
30
0
11
-36.832002
21
25.446250
31
0
0
LINE
8
AREA_A2_PEN_3_AREA_NIVEL_2
62
1
10
-36.213071
20
25.446250
30
0
11
-36.080310
21
25.446250
31
0
0
LINE
8
AREA_A2_PEN_3_AREA_NIVEL_2
62
1
10
-35.539141
20
25.446250
30
0
11
-35.317510
21
25.446250
31
0
0
LINE
8
AREA_A2_PEN_3_AREA_NIVEL_2
62
1
10
-37.475620
20
25.473750
30
0
11
-37.346542
21
25.473750
31
0
0
LINE
8
AREA_A2_PEN_3_AREA_NIVEL_2
62
1
10
-36.557054
20
25.473750
30
0
11
-36.035363
21
25.473750
31
0
0
LINE
8
AREA_A2_PEN_3_AREA_NIVEL_2
62
1
10
-35.575522
20
25.473750
30
0
11
-35.446444
21
25.473750
31
0
0
LINE
8
AREA_A2_PEN_3_AREA_NIVEL_2
62
1
10
-37.449542
20
25.501250
30
0
11
-37.335264
21
25.501250
31
0
0
LINE
8
AREA_A2_PEN_3_AREA_NIVEL_2
62
1
10
-36.078743
20
25.501250
30
0
11
-35.945941
21
25.501250
31
0
0
LINE
8
AREA_A2_PEN_3_AREA_NIVEL_2
62
1
10
-35.630455
20
25.501250
30
0
11
-35.493948
21
25.501250
31
0
0
LINE
8
AREA_A2_PEN_3_AREA_NIVEL_2
62
1
10
-35.692837
20
25.528750
30
0
11
-35.526662
21
25.528750
31
0
0
LINE
8
AREA_A2_PEN_3_AREA_NIVEL_2
62
1
10
-37.294519
20
25.556250
30
0
11
-37.106250
21
25.556250
31
0
0
LINE
8
AREA_A2_PEN_3_AREA_NIVEL_2
62
1
10
-36.506010
20
25.556250
30
0
11
-36.154856
21
25.556250
31
0
0
LINE
8
AREA_A2_PEN_3_AREA_NIVEL_2
62
1
10
-37.968254
20
25.583750
30
0
11
-37.850305
21
25.583750
31
0
0
LINE
8
AREA_A2_PEN_3_AREA_NIVEL_2
62
1
10
-37.209163
20
25.583750
30
0
11
-36.998642
21
25.583750
31
0
0
LINE
8
AREA_A2_PEN_3_AREA_NIVEL_2
62
1
10
-36.587079
20
25.583750
30
0
11
-36.313609
21
25.583750
31
0
0
LINE
8
AREA_A2_PEN_3_AREA_NIVEL_2
62
1
10
-35.346613
20
25.583750
30
0
11
-35.224961
21
25.583750
31
0
0
LINE
8
AREA_A2_PEN_3_AREA_NIVEL_2
62
1
10
-37.975646
20
25.611250
30
0
11
-37.642859
21
25.611250
31
0
0
LINE
8
AREA_A2_PEN_3_AREA_NIVEL_2
62
1
10
-37.183027
20
25.611250
30
0
11
-37.002097
21
25.611250
31
0
0
LINE
8
AREA_A2_PEN_3_AREA_NIVEL_2
62
1
10
-36.738568
20
25.611250
30
0
11
-36.335408
21
25.611250
31
0
0
LINE
8
AREA_A2_PEN_3_AREA_NIVEL_2
62
1
10
-35.634827
20
25.611250
30
0
11
-35.253890
21
25.611250
31
0
0
LINE
8
AREA_A2_PEN_3_AREA_NIVEL_2
62
1
10
-37.875605
20
25.638750
30
0
11
-37.757624
21
25.638750
31
0
0
LINE
8
AREA_A2_PEN_3_AREA_NIVEL_2
62
1
10
-36.767880
20
25.638750
30
0
11
-36.579509
21
25.638750
31
0
0
LINE
8
AREA_A2_PEN_3_AREA_NIVEL_2
62
1
10
-35.634223
20
25.638750
30
0
11
-35.293956
21
25.638750
31
0
0
LINE
8
AREA_A2_PEN_3_AREA_NIVEL_2
62
1
10
-37.849627
20
25.666250
30
0
11
-37.564875
21
25.666250
31
0
0
LINE
8
AREA_A2_PEN_3_AREA_NIVEL_2
62
1
10
-36.760155
20
25.666250
30
0
11
-35.956607
21
25.666250
31
0
0
LINE
8
AREA_A2_PEN_3_AREA_NIVEL_2
62
1
10
-35.633627
20
25.666250
30
0
11
-35.400754
21
25.666250
31
0
0
LINE
8
AREA_A2_PEN_3_AREA_NIVEL_2
62
1
10
-37.838702
20
25.693750
30
0
11
-37.709663
21
25.693750
31
0
0
LINE
8
AREA_A2_PEN_3_AREA_NIVEL_2
62
1
10
-36.868798
20
25.693750
30
0
11
-36.587981
21
25.693750
31
0
0
LINE
8
AREA_A2_PEN_3_AREA_NIVEL_2
62
1
10
-36.228365
20
25.693750
30
0
11
-35.096106
21
25.693750
31
0
0
LINE
8
AREA_A2_PEN_3_AREA_NIVEL_2
62
1
10
-36.949970
20
25.721250
30
0
11
-36.743154
21
25.721250
31
0
0
LINE
8
AREA_A2_PEN_3_AREA_NIVEL_2
62
1
10
-35.787275
20
25.721250
30
0
11
-35.587864
21
25.721250
31
0
0
LINE
8
AREA_A2_PEN_3_AREA_NIVEL_2
62
1
10
-35.265173
20
25.721250
30
0
11
-35.102791
21
25.721250
31
0
0
LINE
8
AREA_A2_PEN_3_AREA_NIVEL_2
62
1
10
-36.920074
20
25.748750
30
0
11
-36.739146
21
25.748750
31
0
0
LINE
8
AREA_A2_PEN_3_AREA_NIVEL_2
62
1
10
-35.794128
20
25.748750
30
0
11
-35.665053
21
25.748750
31
0
0
LINE
8
AREA_A2_PEN_3_AREA_NIVEL_2
62
1
10
-35.220045
20
25.748750
30
0
11
-35.090969
21
25.748750
31
0
0
LINE
8
AREA_A2_PEN_3_AREA_NIVEL_2
62
1
10
-36.086252
20
25.776250
30
0
11
-35.720059
21
25.776250
31
0
0
LINE
8
AREA_A2_PEN_3_AREA_NIVEL_2
62
1
10
-35.230473
20
25.776250
30
0
11
-35.116198
21
25.776250
31
0
0
LINE
8
AREA_A2_PEN_3_AREA_NIVEL_2
62
1
10
-37.823694
20
25.803750
30
0
11
-37.679760
21
25.803750
31
0
0
LINE
8
AREA_A2_PEN_3_AREA_NIVEL_2
62
1
10
-36.956591
20
25.803750
30
0
11
-36.671846
21
25.803750
31
0
0
LINE
8
AREA_A2_PEN_3_AREA_NIVEL_2
62
1
10
-35.922739
20
25.803750
30
0
11
-35.749161
21
25.803750
31
0
0
LINE
8
AREA_A2_PEN_3_AREA_NIVEL_2
62
1
10
-37.831298
20
25.831250
30
0
11
-37.361683
21
25.831250
31
0
0
LINE
8
AREA_A2_PEN_3_AREA_NIVEL_2
62
1
10
-36.968750
20
25.831250
30
0
11
-36.639808
21
25.831250
31
0
0
LINE
8
AREA_A2_PEN_3_AREA_NIVEL_2
62
1
10
-35.928510
20
25.831250
30
0
11
-35.666202
21
25.831250
31
0
0
LINE
8
AREA_A2_PEN_3_AREA_NIVEL_2
62
1
10
-35.369519
20
25.831250
30
0
11
-35.136827
21
25.831250
31
0
0
LINE
8
AREA_A2_PEN_3_AREA_NIVEL_2
62
1
10
-37.879387
20
25.858750
30
0
11
-37.631840
21
25.858750
31
0
0
LINE
8
AREA_A2_PEN_3_AREA_NIVEL_2
62
1
10
-35.794699
20
25.858750
30
0
11
-35.628614
21
25.858750
31
0
0
LINE
8
AREA_A2_PEN_3_AREA_NIVEL_2
62
1
10
-35.150408
20
25.858750
30
0
11
-35.039865
21
25.858750
31
0
0
LINE
8
AREA_A2_PEN_3_AREA_NIVEL_2
62
1
10
-38.000000
20
25.886250
30
0
11
-37.639166
21
25.886250
31
0
0
LINE
8
AREA_A2_PEN_3_AREA_NIVEL_2
62
1
10
-36.434905
20
25.886250
30
0
11
-36.305831
21
25.886250
31
0
0
LINE
8
AREA_A2_PEN_3_AREA_NIVEL_2
62
1
10
-35.779348
20
25.886250
30
0
11
-35.365089
21
25.886250
31
0
0
LINE
8
AREA_A2_PEN_3_AREA_NIVEL_2
62
1
10
-37.820043
20
25.913750
30
0
11
-37.665019
21
25.913750
31
0
0
LINE
8
AREA_A2_PEN_3_AREA_NIVEL_2
62
1
10
-36.956875
20
25.913750
30
0
11
-36.746282
21
25.913750
31
0
0
LINE
8
AREA_A2_PEN_3_AREA_NIVEL_2
62
1
10
-36.182616
20
25.913750
30
0
11
-36.072047
21
25.913750
31
0
0
LINE
8
AREA_A2_PEN_3_AREA_NIVEL_2
62
1
10
-35.786225
20
25.913750
30
0
11
-35.294084
21
25.913750
31
0
0
LINE
8
AREA_A2_PEN_3_AREA_NIVEL_2
62
1
10
-37.819995
20
25.941250
30
0
11
-37.672358
21
25.941250
31
0
0
LINE
8
AREA_A2_PEN_3_AREA_NIVEL_2
62
1
10
-37.227122
20
25.941250
30
0
11
-37.116540
21
25.941250
31
0
0
LINE
8
AREA_A2_PEN_3_AREA_NIVEL_2
62
1
10
-35.863515
20
25.941250
30
0
11
-35.578777
21
25.941250
31
0
0
LINE
8
AREA_A2_PEN_3_AREA_NIVEL_2
62
1
10
-37.816490
20
25.968750
30
0
11
-37.661538
21
25.968750
31
0
0
LINE
8
AREA_A2_PEN_3_AREA_NIVEL_2
62
1
10
-36.705913
20
25.968750
30
0
11
-36.565769
21
25.968750
31
0
0
LINE
8
AREA_A2_PEN_3_AREA_NIVEL_2
62
1
10
-35.869279
20
25.968750
30
0
11
-35.592163
21
25.968750
31
0
0
LINE
8
AREA_A2_PEN_3_AREA_NIVEL_2
62
1
10
-37.812738
20
25.996250
30
0
11
-37.665168
21
25.996250
31
0
0
LINE
8
AREA_A2_PEN_3_AREA_NIVEL_2
62
1
10
-37.016637
20
25.996250
30
0
11
-36.832039
21
25.996250
31
0
0
LINE
8
AREA_A2_PEN_3_AREA_NIVEL_2
62
1
10
-36.364945
20
25.996250
30
0
11
-36.250701
21
25.996250
31
0
0
LINE
8
AREA_A2_PEN_3_AREA_NIVEL_2
62
1
10
-37.953427
20
26.023750
30
0
11
-37.791021
21
26.023750
31
0
0
LINE
8
AREA_A2_PEN_3_AREA_NIVEL_2
62
1
10
-37.005291
20
26.023750
30
0
11
-36.853996
21
26.023750
31
0
0
LINE
8
AREA_A2_PEN_3_AREA_NIVEL_2
62
1
10
-36.260857
20
26.023750
30
0
11
-36.135487
21
26.023750
31
0
0
LINE
8
AREA_A2_PEN_3_AREA_NIVEL_2
62
1
10
-35.757160
20
26.023750
30
0
11
-35.579939
21
26.023750
31
0
0
LINE
8
AREA_A2_PEN_3_AREA_NIVEL_2
62
1
10
-37.960819
20
26.051250
30
0
11
-37.802093
21
26.051250
31
0
0
LINE
8
AREA_A2_PEN_3_AREA_NIVEL_2
62
1
10
-36.975420
20
26.051250
30
0
11
-36.857444
21
26.051250
31
0
0
LINE
8
AREA_A2_PEN_3_AREA_NIVEL_2
62
1
10
-35.830728
20
26.051250
30
0
11
-35.590503
21
26.051250
31
0
0
LINE
8
AREA_A2_PEN_3_AREA_NIVEL_2
62
1
10
-35.282461
20
26.051250
30
0
11
-35.071872
21
26.051250
31
0
0
LINE
8
AREA_A2_PEN_3_AREA_NIVEL_2
62
1
10
-37.953393
20
26.078750
30
0
11
-37.816875
21
26.078750
31
0
0
LINE
8
AREA_A2_PEN_3_AREA_NIVEL_2
62
1
10
-37.141922
20
26.078750
30
0
11
-36.805316
21
26.078750
31
0
0
LINE
8
AREA_A2_PEN_3_AREA_NIVEL_2
62
1
10
-36.171121
20
26.078750
30
0
11
-35.000812
21
26.078750
31
0
0
LINE
8
AREA_A2_PEN_3_AREA_NIVEL_2
62
1
10
-37.934952
20
26.106250
30
0
11
-37.817019
21
26.106250
31
0
0
LINE
8
AREA_A2_PEN_3_AREA_NIVEL_2
62
1
10
-37.313029
20
26.106250
30
0
11
-36.665721
21
26.106250
31
0
0
LINE
8
AREA_A2_PEN_3_AREA_NIVEL_2
62
1
10
-36.224663
20
26.106250
30
0
11
-35.010962
21
26.106250
31
0
0
LINE
8
AREA_A2_PEN_3_AREA_NIVEL_2
62
1
10
-37.479490
20
26.133750
30
0
11
-34.869580
21
26.133750
31
0
0
LINE
8
AREA_A2_PEN_3_AREA_NIVEL_2
62
1
10
-37.468256
20
26.161250
30
0
11
-34.828140
21
26.161250
31
0
0
LINE
8
AREA_A2_PEN_3_AREA_NIVEL_2
62
1
10
-37.986751
20
26.188750
30
0
11
-37.868776
21
26.188750
31
0
0
LINE
8
AREA_A2_PEN_3_AREA_NIVEL_2
62
1
10
-37.505175
20
26.188750
30
0
11
-35.631300
21
26.188750
31
0
0
LINE
8
AREA_A2_PEN_3_AREA_NIVEL_2
62
1
10
-35.349197
20
26.188750
30
0
11
-34.834848
21
26.188750
31
0
0
LINE
8
AREA_A2_PEN_3_AREA_NIVEL_2
62
1
10
-37.738491
20
26.216250
30
0
11
-36.783116
21
26.216250
31
0
0
LINE
8
AREA_A2_PEN_3_AREA_NIVEL_2
62
1
10
-36.430539
20
26.216250
30
0
11
-35.615963
21
26.216250
31
0
0
LINE
8
AREA_A2_PEN_3_AREA_NIVEL_2
62
1
10
-35.337491
20
26.216250
30
0
11
-34.841566
21
26.216250
31
0
0
LINE
8
AREA_A2_PEN_3_AREA_NIVEL_2
62
1
10
-37.546250
20
26.243750
30
0
11
-36.924856
21
26.243750
31
0
0
LINE
8
AREA_A2_PEN_3_AREA_NIVEL_2
62
1
10
-36.343125
20
26.243750
30
0
11
-35.288606
21
26.243750
31
0
0
LINE
8
AREA_A2_PEN_3_AREA_NIVEL_2
62
1
10
-34.888269
20
26.243750
30
0
11
-34.679375
21
26.243750
31
0
0
LINE
8
AREA_A2_PEN_3_AREA_NIVEL_2
62
1
10
-37.553549
20
26.271250
30
0
11
-37.061625
21
26.271250
31
0
0
LINE
8
AREA_A2_PEN_3_AREA_NIVEL_2
62
1
10
-36.383482
20
26.271250
30
0
11
-36.024857
21
26.271250
31
0
0
LINE
8
AREA_A2_PEN_3_AREA_NIVEL_2
62
1
10
-35.676258
20
26.271250
30
0
11
-35.313930
21
26.271250
31
0
0
LINE
8
AREA_A2_PEN_3_AREA_NIVEL_2
62
1
10
-34.909790
20
26.271250
30
0
11
-34.684463
21
26.271250
31
0
0
LINE
8
AREA_A2_PEN_3_AREA_NIVEL_2
62
1
10
-37.490484
20
26.298750
30
0
11
-37.346599
21
26.298750
31
0
0
LINE
8
AREA_A2_PEN_3_AREA_NIVEL_2
62
1
10
-36.342382
20
26.298750
30
0
11
-36.083687
21
26.298750
31
0
0
LINE
8
AREA_A2_PEN_3_AREA_NIVEL_2
62
1
10
-35.660928
20
26.298750
30
0
11
-35.154094
21
26.298750
31
0
0
LINE
8
AREA_A2_PEN_3_AREA_NIVEL_2
62
1
10
-34.920217
20
26.298750
30
0
11
-34.746703
21
26.298750
31
0
0
LINE
8
AREA_A2_PEN_3_AREA_NIVEL_2
62
1
10
-36.645774
20
26.326250
30
0
11
-36.535209
21
26.326250
31
0
0
LINE
8
AREA_A2_PEN_3_AREA_NIVEL_2
62
1
10
-35.667824
20
26.326250
30
0
11
-35.346110
21
26.326250
31
0
0
LINE
8
AREA_A2_PEN_3_AREA_NIVEL_2
62
1
10
-34.919543
20
26.326250
30
0
11
-34.760821
21
26.326250
31
0
0
LINE
8
AREA_A2_PEN_3_AREA_NIVEL_2
62
1
10
-38.000000
20
26.353750
30
0
11
-37.865051
21
26.353750
31
0
0
LINE
8
AREA_A2_PEN_3_AREA_NIVEL_2
62
1
10
-37.375393
20
26.353750
30
0
11
-37.253700
21
26.353750
31
0
0
LINE
8
AREA_A2_PEN_3_AREA_NIVEL_2
62
1
10
-36.237911
20
26.353750
30
0
11
-36.053231
21
26.353750
31
0
0
LINE
8
AREA_A2_PEN_3_AREA_NIVEL_2
62
1
10
-35.589510
20
26.353750
30
0
11
-35.375188
21
26.353750
31
0
0
LINE
8
AREA_A2_PEN_3_AREA_NIVEL_2
62
1
10
-38.000000
20
26.381250
30
0
11
-37.842792
21
26.381250
31
0
0
LINE
8
AREA_A2_PEN_3_AREA_NIVEL_2
62
1
10
-37.360431
20
26.381250
30
0
11
-37.209077
21
26.381250
31
0
0
LINE
8
AREA_A2_PEN_3_AREA_NIVEL_2
62
1
10
-36.315357
20
26.381250
30
0
11
-36.112119
21
26.381250
31
0
0
LINE
8
AREA_A2_PEN_3_AREA_NIVEL_2
62
1
10
-35.299930
20
26.381250
30
0
11
-35.144869
21
26.381250
31
0
0
LINE
8
AREA_A2_PEN_3_AREA_NIVEL_2
62
1
10
-34.729215
20
26.381250
30
0
11
-34.618626
21
26.381250
31
0
0
LINE
8
AREA_A2_PEN_3_AREA_NIVEL_2
62
1
10
-38.000000
20
26.408750
30
0
11
-36.991279
21
26.408750
31
0
0
LINE
8
AREA_A2_PEN_3_AREA_NIVEL_2
62
1
10
-36.661196
20
26.408750
30
0
11
-36.543250
21
26.408750
31
0
0
LINE
8
AREA_A2_PEN_3_AREA_NIVEL_2
62
1
10
-36.102085
20
26.408750
30
0
11
-35.932301
21
26.408750
31
0
0
LINE
8
AREA_A2_PEN_3_AREA_NIVEL_2
62
1
10
-35.672570
20
26.408750
30
0
11
-35.532407
21
26.408750
31
0
0
LINE
8
AREA_A2_PEN_3_AREA_NIVEL_2
62
1
10
-35.280081
20
26.408750
30
0
11
-35.147324
21
26.408750
31
0
0
LINE
8
AREA_A2_PEN_3_AREA_NIVEL_2
62
1
10
-37.994168
20
26.436250
30
0
11
-37.865098
21
26.436250
31
0
0
LINE
8
AREA_A2_PEN_3_AREA_NIVEL_2
62
1
10
-37.427531
20
26.436250
30
0
11
-35.331897
21
26.436250
31
0
0
LINE
8
AREA_A2_PEN_3_AREA_NIVEL_2
62
1
10
-34.753597
20
26.436250
30
0
11
-34.544625
21
26.436250
31
0
0
LINE
8
AREA_A2_PEN_3_AREA_NIVEL_2
62
1
10
-37.908963
20
26.463750
30
0
11
-37.757651
21
26.463750
31
0
0
LINE
8
AREA_A2_PEN_3_AREA_NIVEL_2
62
1
10
-37.408883
20
26.463750
30
0
11
-37.253868
21
26.463750
31
0
0
LINE
8
AREA_A2_PEN_3_AREA_NIVEL_2
62
1
10
-34.734385
20
26.463750
30
0
11
-34.553439
21
26.463750
31
0
0
ENDSEC
0
EOF
