0
SECTION
2
HEADER
9
$INSUNITS
70
4
0
ENDSEC
0
SECTION
2
TABLES
0
TABLE
2
LAYER
70
3
0
LAYER
2
AREA_A1_PEN_1_AREA_NIVEL_2
70
0
62
3
6
CONTINUOUS
0
LAYER
2
AREA_A1_PEN_2_AREA_NIVEL_3
70
0
62
6
6
CONTINUOUS
0
LAYER
2
AREA_A1_PEN_3_AREA_NIVEL_4
70
0
62
1
6
CONTINUOUS
0
ENDTAB
0
ENDSEC
0
SECTION
2
ENTITIES
0
LINE
8
AREA_A1_PEN_1_AREA_NIVEL_2
62
3
10
-32.268651
20
24.560529
30
0
11
-32.091595
21
24.560529
31
0
0
LINE
8
AREA_A1_PEN_1_AREA_NIVEL_2
62
3
10
-32.606258
20
24.588029
30
0
11
-32.136605
21
24.588029
31
0
0
LINE
8
AREA_A1_PEN_1_AREA_NIVEL_2
62
3
10
-32.599439
20
24.615529
30
0
11
-32.136968
21
24.615529
31
0
0
LINE
8
AREA_A1_PEN_1_AREA_NIVEL_2
62
3
10
-32.723721
20
24.643029
30
0
11
-32.524465
21
24.643029
31
0
0
LINE
8
AREA_A1_PEN_1_AREA_NIVEL_2
62
3
10
-32.979735
20
24.670529
30
0
11
-32.865520
21
24.670529
31
0
0
LINE
8
AREA_A1_PEN_1_AREA_NIVEL_2
62
3
10
-31.988148
20
24.698029
30
0
11
-31.877604
21
24.698029
31
0
0
LINE
8
AREA_A1_PEN_1_AREA_NIVEL_2
62
3
10
-32.733089
20
24.725529
30
0
11
-32.618810
21
24.725529
31
0
0
LINE
8
AREA_A1_PEN_1_AREA_NIVEL_2
62
3
10
-32.151416
20
24.725529
30
0
11
-31.542243
21
24.725529
31
0
0
LINE
8
AREA_A1_PEN_1_AREA_NIVEL_2
62
3
10
-32.013709
20
24.753029
30
0
11
-31.542266
21
24.753029
31
0
0
LINE
8
AREA_A1_PEN_1_AREA_NIVEL_2
62
3
10
-32.850522
20
24.780529
30
0
11
-32.673371
21
24.780529
31
0
0
LINE
8
AREA_A1_PEN_1_AREA_NIVEL_2
62
3
10
-32.439651
20
24.780529
30
0
11
-31.542290
21
24.780529
31
0
0
LINE
8
AREA_A1_PEN_1_AREA_NIVEL_2
62
3
10
-32.732728
20
24.808029
30
0
11
-31.542313
21
24.808029
31
0
0
LINE
8
AREA_A1_PEN_1_AREA_NIVEL_2
62
3
10
-32.759323
20
24.835529
30
0
11
-31.933566
21
24.835529
31
0
0
LINE
8
AREA_A1_PEN_1_AREA_NIVEL_2
62
3
10
-32.620710
20
24.863029
30
0
11
-31.955181
21
24.863029
31
0
0
LINE
8
AREA_A1_PEN_1_AREA_NIVEL_2
62
3
10
-32.502834
20
24.890529
30
0
11
-31.955444
21
24.890529
31
0
0
LINE
8
AREA_A1_PEN_1_AREA_NIVEL_2
62
3
10
-33.155302
20
24.918029
30
0
11
-33.041034
21
24.918029
31
0
0
LINE
8
AREA_A1_PEN_1_AREA_NIVEL_2
62
3
10
-32.532997
20
24.918029
30
0
11
-31.955706
21
24.918029
31
0
0
LINE
8
AREA_A1_PEN_1_AREA_NIVEL_2
62
3
10
-31.673625
20
24.918029
30
0
11
-31.542408
21
24.918029
31
0
0
LINE
8
AREA_A1_PEN_1_AREA_NIVEL_2
62
3
10
-32.875614
20
24.945529
30
0
11
-32.410045
21
24.945529
31
0
0
LINE
8
AREA_A1_PEN_1_AREA_NIVEL_2
62
3
10
-32.113657
20
24.945529
30
0
11
-31.925500
21
24.945529
31
0
0
LINE
8
AREA_A1_PEN_1_AREA_NIVEL_2
62
3
10
-31.703088
20
24.945529
30
0
11
-31.542431
21
24.945529
31
0
0
LINE
8
AREA_A1_PEN_1_AREA_NIVEL_2
62
3
10
-33.190915
20
24.973029
30
0
11
-33.073001
21
24.973029
31
0
0
LINE
8
AREA_A1_PEN_1_AREA_NIVEL_2
62
3
10
-32.217598
20
24.973029
30
0
11
-31.542455
21
24.973029
31
0
0
LINE
8
AREA_A1_PEN_1_AREA_NIVEL_2
62
3
10
-33.217736
20
25.000529
30
0
11
-32.947972
21
25.000529
31
0
0
LINE
8
AREA_A1_PEN_1_AREA_NIVEL_2
62
3
10
-32.258704
20
25.000529
30
0
11
-31.903775
21
25.000529
31
0
0
LINE
8
AREA_A1_PEN_1_AREA_NIVEL_2
62
3
10
-31.651440
20
25.000529
30
0
11
-31.542478
21
25.000529
31
0
0
LINE
8
AREA_A1_PEN_1_AREA_NIVEL_2
62
3
10
-33.189013
20
25.028029
30
0
11
-32.959886
21
25.028029
31
0
0
LINE
8
AREA_A1_PEN_1_AREA_NIVEL_2
62
3
10
-32.270215
20
25.028029
30
0
11
-31.870665
21
25.028029
31
0
0
LINE
8
AREA_A1_PEN_1_AREA_NIVEL_2
62
3
10
-33.168194
20
25.055529
30
0
11
-32.946718
21
25.055529
31
0
0
LINE
8
AREA_A1_PEN_1_AREA_NIVEL_2
62
3
10
-32.165639
20
25.055529
30
0
11
-31.910868
21
25.055529
31
0
0
LINE
8
AREA_A1_PEN_1_AREA_NIVEL_2
62
3
10
-33.176485
20
25.083029
30
0
11
-32.980829
21
25.083029
31
0
0
LINE
8
AREA_A1_PEN_1_AREA_NIVEL_2
62
3
10
-32.073448
20
25.083029
30
0
11
-31.851882
21
25.083029
31
0
0
LINE
8
AREA_A1_PEN_1_AREA_NIVEL_2
62
3
10
-33.166266
20
25.110529
30
0
11
-33.003866
21
25.110529
31
0
0
LINE
8
AREA_A1_PEN_1_AREA_NIVEL_2
62
3
10
-32.555194
20
25.110529
30
0
11
-32.433532
21
25.110529
31
0
0
LINE
8
AREA_A1_PEN_1_AREA_NIVEL_2
62
3
10
-32.007081
20
25.110529
30
0
11
-31.870605
21
25.110529
31
0
0
LINE
8
AREA_A1_PEN_1_AREA_NIVEL_2
62
3
10
-32.789194
20
25.138029
30
0
11
-32.337709
21
25.138029
31
0
0
LINE
8
AREA_A1_PEN_1_AREA_NIVEL_2
62
3
10
-32.014752
20
25.138029
30
0
11
-31.859704
21
25.138029
31
0
0
LINE
8
AREA_A1_PEN_1_AREA_NIVEL_2
62
3
10
-32.495147
20
25.165529
30
0
11
-32.351344
21
25.165529
31
0
0
LINE
8
AREA_A1_PEN_1_AREA_NIVEL_2
62
3
10
-31.977132
20
25.165529
30
0
11
-31.829629
21
25.165529
31
0
0
LINE
8
AREA_A1_PEN_1_AREA_NIVEL_2
62
3
10
-32.429032
20
25.193029
30
0
11
-32.200033
21
25.193029
31
0
0
LINE
8
AREA_A1_PEN_1_AREA_NIVEL_2
62
3
10
-32.414702
20
25.220529
30
0
11
-32.244875
21
25.220529
31
0
0
LINE
8
AREA_A1_PEN_1_AREA_NIVEL_2
62
3
10
-32.713107
20
25.248029
30
0
11
-32.221653
21
25.248029
31
0
0
LINE
8
AREA_A1_PEN_1_AREA_NIVEL_2
62
3
10
-32.843273
20
25.275529
30
0
11
-32.270167
21
25.275529
31
0
0
LINE
8
AREA_A1_PEN_1_AREA_NIVEL_2
62
3
10
-32.010603
20
25.275529
30
0
11
-31.840880
21
25.275529
31
0
0
LINE
8
AREA_A1_PEN_1_AREA_NIVEL_2
62
3
10
-32.692169
20
25.303029
30
0
11
-32.570520
21
25.303029
31
0
0
LINE
8
AREA_A1_PEN_1_AREA_NIVEL_2
62
3
10
-32.255245
20
25.303029
30
0
11
-31.970675
21
25.303029
31
0
0
LINE
8
AREA_A1_PEN_1_AREA_NIVEL_2
62
3
10
-32.277866
20
25.330529
30
0
11
-32.059857
21
25.330529
31
0
0
LINE
8
AREA_A1_PEN_1_AREA_NIVEL_2
62
3
10
-31.840341
20
25.358029
30
0
11
-31.707653
21
25.358029
31
0
0
LINE
8
AREA_A1_PEN_1_AREA_NIVEL_2
62
3
10
-33.417773
20
25.440529
30
0
11
-33.327282
21
25.440529
31
0
0
LINE
8
AREA_A1_PEN_1_AREA_NIVEL_2
62
3
10
-31.737096
20
25.440529
30
0
11
-31.542854
21
25.440529
31
0
0
LINE
8
AREA_A1_PEN_1_AREA_NIVEL_2
62
3
10
-33.418803
20
25.468029
30
0
11
-33.198900
21
25.468029
31
0
0
LINE
8
AREA_A1_PEN_1_AREA_NIVEL_2
62
3
10
-31.722080
20
25.468029
30
0
11
-31.542878
21
25.468029
31
0
0
LINE
8
AREA_A1_PEN_1_AREA_NIVEL_2
62
3
10
-33.419833
20
25.495529
30
0
11
-33.203529
21
25.495529
31
0
0
LINE
8
AREA_A1_PEN_1_AREA_NIVEL_2
62
3
10
-31.725887
20
25.495529
30
0
11
-31.542901
21
25.495529
31
0
0
LINE
8
AREA_A1_PEN_1_AREA_NIVEL_2
62
3
10
-33.344650
20
25.523029
30
0
11
-33.219274
21
25.523029
31
0
0
LINE
8
AREA_A1_PEN_1_AREA_NIVEL_2
62
3
10
-31.685250
20
25.523029
30
0
11
-31.556169
21
25.523029
31
0
0
LINE
8
AREA_A1_PEN_1_AREA_NIVEL_2
62
3
10
-33.345828
20
25.550529
30
0
11
-33.227950
21
25.550529
31
0
0
LINE
8
AREA_A1_PEN_1_AREA_NIVEL_2
62
3
10
-32.262501
20
25.578029
30
0
11
-32.107582
21
25.578029
31
0
0
LINE
8
AREA_A1_PEN_1_AREA_NIVEL_2
62
3
10
-31.777711
20
25.578029
30
0
11
-31.611690
21
25.578029
31
0
0
LINE
8
AREA_A1_PEN_1_AREA_NIVEL_2
62
3
10
-32.610946
20
25.605529
30
0
11
-32.470784
21
25.605529
31
0
0
LINE
8
AREA_A1_PEN_1_AREA_NIVEL_2
62
3
10
-32.248084
20
25.605529
30
0
11
-32.133841
21
25.605529
31
0
0
LINE
8
AREA_A1_PEN_1_AREA_NIVEL_2
62
3
10
-31.781548
20
25.605529
30
0
11
-31.648792
21
25.605529
31
0
0
LINE
8
AREA_A1_PEN_1_AREA_NIVEL_2
62
3
10
-32.637375
20
25.633029
30
0
11
-32.471245
21
25.633029
31
0
0
LINE
8
AREA_A1_PEN_1_AREA_NIVEL_2
62
3
10
-31.792781
20
25.633029
30
0
11
-31.652580
21
25.633029
31
0
0
LINE
8
AREA_A1_PEN_1_AREA_NIVEL_2
62
3
10
-32.637431
20
25.660529
30
0
11
-32.475001
21
25.660529
31
0
0
ENDSEC
0
EOF
