<?xml version="1.0" encoding="UTF-8"?>
<svg xmlns="http://www.w3.org/2000/svg"
     width="3.055615mm" height="2.742500mm"
     viewBox="-33.774986 -34.026021 3.055615 2.742500">
  <g fill="none" stroke-width="0.02" stroke-linecap="round">
    <line id="AREA_A2_PEN_6_AREA_NIVEL_2" x1="-32.293237" y1="-32.283521" x2="-32.178627" y2="-32.283521" stroke="rgb(0,170,170)" />
    <line id="AREA_A2_PEN_6_AREA_NIVEL_2" x1="-32.162793" y1="-32.338521" x2="-32.088769" y2="-32.338521" stroke="rgb(0,170,170)" />
    <line id="AREA_A2_PEN_5_AREA_NIVEL_3" x1="-31.976478" y1="-32.393521" x2="-31.902372" y2="-32.393521" stroke="rgb(255,170,0)" />
    <line id="AREA_A2_PEN_5_AREA_NIVEL_3" x1="-31.973570" y1="-32.421021" x2="-31.910646" y2="-32.421021" stroke="rgb(255,170,0)" />
    <line id="AREA_A2_PEN_6_AREA_NIVEL_2" x1="-32.070501" y1="-32.448521" x2="-31.985459" y2="-32.448521" stroke="rgb(0,170,170)" />
    <line id="AREA_A2_PEN_6_AREA_NIVEL_2" x1="-32.483668" y1="-32.476021" x2="-32.416968" y2="-32.476021" stroke="rgb(0,170,170)" />
    <line id="AREA_A2_PEN_5_AREA_NIVEL_3" x1="-32.646282" y1="-32.558521" x2="-32.586991" y2="-32.558521" stroke="rgb(255,170,0)" />
    <line id="AREA_A2_PEN_2_AREA_NIVEL_4" x1="-32.616754" y1="-32.586021" x2="-32.546420" y2="-32.586021" stroke="rgb(0,255,0)" />
    <line id="AREA_A2_PEN_6_AREA_NIVEL_2" x1="-32.498297" y1="-32.586021" x2="-32.379840" y2="-32.586021" stroke="rgb(0,170,170)" />
    <line id="AREA_A2_PEN_5_AREA_NIVEL_3" x1="-32.624267" y1="-32.613521" x2="-32.568799" y2="-32.613521" stroke="rgb(255,170,0)" />
    <line id="AREA_A2_PEN_6_AREA_NIVEL_2" x1="-32.505936" y1="-32.613521" x2="-32.387605" y2="-32.613521" stroke="rgb(0,170,170)" />
    <line id="AREA_A2_PEN_6_AREA_NIVEL_2" x1="-32.612500" y1="-32.641021" x2="-32.542088" y2="-32.641021" stroke="rgb(0,170,170)" />
    <line id="AREA_A2_PEN_6_AREA_NIVEL_2" x1="-32.534676" y1="-32.641021" x2="-32.467969" y2="-32.641021" stroke="rgb(0,170,170)" />
    <line id="AREA_A2_PEN_6_AREA_NIVEL_2" x1="-32.445733" y1="-32.641021" x2="-32.386439" y2="-32.641021" stroke="rgb(0,170,170)" />
    <line id="AREA_A2_PEN_6_AREA_NIVEL_2" x1="-31.815725" y1="-32.641021" x2="-31.719371" y2="-32.641021" stroke="rgb(0,170,170)" />
    <line id="AREA_A2_PEN_6_AREA_NIVEL_2" x1="-32.397908" y1="-32.668521" x2="-32.334974" y2="-32.668521" stroke="rgb(0,170,170)" />
    <line id="AREA_A2_PEN_5_AREA_NIVEL_3" x1="-32.401957" y1="-32.696021" x2="-32.335393" y2="-32.696021" stroke="rgb(255,170,0)" />
    <line id="AREA_A2_PEN_2_AREA_NIVEL_4" x1="-32.657196" y1="-32.723521" x2="-32.568538" y2="-32.723521" stroke="rgb(0,255,0)" />
    <line id="AREA_A2_PEN_2_AREA_NIVEL_4" x1="-32.450328" y1="-32.723521" x2="-32.369058" y2="-32.723521" stroke="rgb(0,255,0)" />
    <line id="AREA_A2_PEN_5_AREA_NIVEL_3" x1="-32.365364" y1="-32.723521" x2="-32.269318" y2="-32.723521" stroke="rgb(255,170,0)" />
    <line id="AREA_A2_PEN_2_AREA_NIVEL_4" x1="-32.689939" y1="-32.751021" x2="-32.519639" y2="-32.751021" stroke="rgb(0,255,0)" />
    <line id="AREA_A2_PEN_5_AREA_NIVEL_3" x1="-32.164230" y1="-32.751021" x2="-32.108697" y2="-32.751021" stroke="rgb(255,170,0)" />
    <line id="AREA_A2_PEN_2_AREA_NIVEL_4" x1="-32.693677" y1="-32.778521" x2="-32.505068" y2="-32.778521" stroke="rgb(0,255,0)" />
    <line id="AREA_A2_PEN_6_AREA_NIVEL_2" x1="-32.442198" y1="-32.778521" x2="-32.386725" y2="-32.778521" stroke="rgb(0,170,170)" />
    <line id="AREA_A2_PEN_2_AREA_NIVEL_4" x1="-32.179626" y1="-32.778521" x2="-32.079774" y2="-32.778521" stroke="rgb(0,255,0)" />
    <line id="AREA_A2_PEN_2_AREA_NIVEL_4" x1="-32.774986" y1="-32.806021" x2="-32.483141" y2="-32.806021" stroke="rgb(0,255,0)" />
    <line id="AREA_A2_PEN_6_AREA_NIVEL_2" x1="-32.409256" y1="-32.806021" x2="-32.327982" y2="-32.806021" stroke="rgb(0,170,170)" />
    <line id="AREA_A2_PEN_2_AREA_NIVEL_4" x1="-32.202378" y1="-32.806021" x2="-32.098939" y2="-32.806021" stroke="rgb(0,255,0)" />
    <line id="AREA_A2_PEN_2_AREA_NIVEL_4" x1="-32.745049" y1="-32.833521" x2="-32.452561" y2="-32.833521" stroke="rgb(0,255,0)" />
    <line id="AREA_A2_PEN_2_AREA_NIVEL_4" x1="-32.745030" y1="-32.861021" x2="-32.452856" y2="-32.861021" stroke="rgb(0,255,0)" />
    <line id="AREA_A2_PEN_2_AREA_NIVEL_4" x1="-32.027541" y1="-32.861021" x2="-31.964668" y2="-32.861021" stroke="rgb(0,255,0)" />
    <line id="AREA_A2_PEN_6_AREA_NIVEL_2" x1="-31.946176" y1="-32.861021" x2="-31.827828" y2="-32.861021" stroke="rgb(0,170,170)" />
    <line id="AREA_A2_PEN_2_AREA_NIVEL_4" x1="-32.674816" y1="-32.888521" x2="-32.442068" y2="-32.888521" stroke="rgb(0,255,0)" />
    <line id="AREA_A2_PEN_2_AREA_NIVEL_4" x1="-32.065238" y1="-32.888521" x2="-31.950711" y2="-32.888521" stroke="rgb(0,255,0)" />
    <line id="AREA_A2_PEN_5_AREA_NIVEL_3" x1="-32.063353" y1="-32.916021" x2="-31.996706" y2="-32.916021" stroke="rgb(255,170,0)" />
    <line id="AREA_A2_PEN_2_AREA_NIVEL_4" x1="-31.993004" y1="-32.916021" x2="-31.893034" y2="-32.916021" stroke="rgb(0,255,0)" />
    <line id="AREA_A2_PEN_6_AREA_NIVEL_2" x1="-32.622554" y1="-32.943521" x2="-32.537487" y2="-32.943521" stroke="rgb(0,170,170)" />
    <line id="AREA_A2_PEN_2_AREA_NIVEL_4" x1="-32.012288" y1="-32.943521" x2="-31.893934" y2="-32.943521" stroke="rgb(0,255,0)" />
    <line id="AREA_A2_PEN_6_AREA_NIVEL_2" x1="-32.673909" y1="-33.026021" x2="-32.611030" y2="-33.026021" stroke="rgb(0,170,170)" />
  </g>
</svg>
