0
SECTION
2
HEADER
9
$INSUNITS
70
4
0
ENDSEC
0
SECTION
2
TABLES
0
TABLE
2
LAYER
70
3
0
LAYER
2
AREA_A2_PEN_6_AREA_NIVEL_2
70
0
62
5
6
CONTINUOUS
0
LAYER
2
AREA_A2_PEN_5_AREA_NIVEL_3
70
0
62
30
6
CONTINUOUS
0
LAYER
2
AREA_A2_PEN_2_AREA_NIVEL_4
70
0
62
6
6
CONTINUOUS
0
ENDTAB
0
ENDSEC
0
SECTION
2
ENTITIES
0
LINE
8
AREA_A2_PEN_6_AREA_NIVEL_2
62
5
10
-32.293237
20
32.283521
30
0
11
-32.178627
21
32.283521
31
0
0
LINE
8
AREA_A2_PEN_6_AREA_NIVEL_2
62
5
10
-32.162793
20
32.338521
30
0
11
-32.088769
21
32.338521
31
0
0
LINE
8
AREA_A2_PEN_5_AREA_NIVEL_3
62
30
10
-31.976478
20
32.393521
30
0
11
-31.902372
21
32.393521
31
0
0
LINE
8
AREA_A2_PEN_5_AREA_NIVEL_3
62
30
10
-31.973570
20
32.421021
30
0
11
-31.910646
21
32.421021
31
0
0
LINE
8
AREA_A2_PEN_6_AREA_NIVEL_2
62
5
10
-32.070501
20
32.448521
30
0
11
-31.985459
21
32.448521
31
0
0
LINE
8
AREA_A2_PEN_6_AREA_NIVEL_2
62
5
10
-32.483668
20
32.476021
30
0
11
-32.416968
21
32.476021
31
0
0
LINE
8
AREA_A2_PEN_5_AREA_NIVEL_3
62
30
10
-32.646282
20
32.558521
30
0
11
-32.586991
21
32.558521
31
0
0
LINE
8
AREA_A2_PEN_2_AREA_NIVEL_4
62
6
10
-32.616754
20
32.586021
30
0
11
-32.546420
21
32.586021
31
0
0
LINE
8
AREA_A2_PEN_6_AREA_NIVEL_2
62
5
10
-32.498297
20
32.586021
30
0
11
-32.379840
21
32.586021
31
0
0
LINE
8
AREA_A2_PEN_5_AREA_NIVEL_3
62
30
10
-32.624267
20
32.613521
30
0
11
-32.568799
21
32.613521
31
0
0
LINE
8
AREA_A2_PEN_6_AREA_NIVEL_2
62
5
10
-32.505936
20
32.613521
30
0
11
-32.387605
21
32.613521
31
0
0
LINE
8
AREA_A2_PEN_6_AREA_NIVEL_2
62
5
10
-32.612500
20
32.641021
30
0
11
-32.542088
21
32.641021
31
0
0
LINE
8
AREA_A2_PEN_6_AREA_NIVEL_2
62
5
10
-32.534676
20
32.641021
30
0
11
-32.467969
21
32.641021
31
0
0
LINE
8
AREA_A2_PEN_6_AREA_NIVEL_2
62
5
10
-32.445733
20
32.641021
30
0
11
-32.386439
21
32.641021
31
0
0
LINE
8
AREA_A2_PEN_6_AREA_NIVEL_2
62
5
10
-31.815725
20
32.641021
30
0
11
-31.719371
21
32.641021
31
0
0
LINE
8
AREA_A2_PEN_6_AREA_NIVEL_2
62
5
10
-32.397908
20
32.668521
30
0
11
-32.334974
21
32.668521
31
0
0
LINE
8
AREA_A2_PEN_5_AREA_NIVEL_3
62
30
10
-32.401957
20
32.696021
30
0
11
-32.335393
21
32.696021
31
0
0
LINE
8
AREA_A2_PEN_2_AREA_NIVEL_4
62
6
10
-32.657196
20
32.723521
30
0
11
-32.568538
21
32.723521
31
0
0
LINE
8
AREA_A2_PEN_2_AREA_NIVEL_4
62
6
10
-32.450328
20
32.723521
30
0
11
-32.369058
21
32.723521
31
0
0
LINE
8
AREA_A2_PEN_5_AREA_NIVEL_3
62
30
10
-32.365364
20
32.723521
30
0
11
-32.269318
21
32.723521
31
0
0
LINE
8
AREA_A2_PEN_2_AREA_NIVEL_4
62
6
10
-32.689939
20
32.751021
30
0
11
-32.519639
21
32.751021
31
0
0
LINE
8
AREA_A2_PEN_5_AREA_NIVEL_3
62
30
10
-32.164230
20
32.751021
30
0
11
-32.108697
21
32.751021
31
0
0
LINE
8
AREA_A2_PEN_2_AREA_NIVEL_4
62
6
10
-32.693677
20
32.778521
30
0
11
-32.505068
21
32.778521
31
0
0
LINE
8
AREA_A2_PEN_6_AREA_NIVEL_2
62
5
10
-32.442198
20
32.778521
30
0
11
-32.386725
21
32.778521
31
0
0
LINE
8
AREA_A2_PEN_2_AREA_NIVEL_4
62
6
10
-32.179626
20
32.778521
30
0
11
-32.079774
21
32.778521
31
0
0
LINE
8
AREA_A2_PEN_2_AREA_NIVEL_4
62
6
10
-32.774986
20
32.806021
30
0
11
-32.483141
21
32.806021
31
0
0
LINE
8
AREA_A2_PEN_6_AREA_NIVEL_2
62
5
10
-32.409256
20
32.806021
30
0
11
-32.327982
21
32.806021
31
0
0
LINE
8
AREA_A2_PEN_2_AREA_NIVEL_4
62
6
10
-32.202378
20
32.806021
30
0
11
-32.098939
21
32.806021
31
0
0
LINE
8
AREA_A2_PEN_2_AREA_NIVEL_4
62
6
10
-32.745049
20
32.833521
30
0
11
-32.452561
21
32.833521
31
0
0
LINE
8
AREA_A2_PEN_2_AREA_NIVEL_4
62
6
10
-32.745030
20
32.861021
30
0
11
-32.452856
21
32.861021
31
0
0
LINE
8
AREA_A2_PEN_2_AREA_NIVEL_4
62
6
10
-32.027541
20
32.861021
30
0
11
-31.964668
21
32.861021
31
0
0
LINE
8
AREA_A2_PEN_6_AREA_NIVEL_2
62
5
10
-31.946176
20
32.861021
30
0
11
-31.827828
21
32.861021
31
0
0
LINE
8
AREA_A2_PEN_2_AREA_NIVEL_4
62
6
10
-32.674816
20
32.888521
30
0
11
-32.442068
21
32.888521
31
0
0
LINE
8
AREA_A2_PEN_2_AREA_NIVEL_4
62
6
10
-32.065238
20
32.888521
30
0
11
-31.950711
21
32.888521
31
0
0
LINE
8
AREA_A2_PEN_5_AREA_NIVEL_3
62
30
10
-32.063353
20
32.916021
30
0
11
-31.996706
21
32.916021
31
0
0
LINE
8
AREA_A2_PEN_2_AREA_NIVEL_4
62
6
10
-31.993004
20
32.916021
30
0
11
-31.893034
21
32.916021
31
0
0
LINE
8
AREA_A2_PEN_6_AREA_NIVEL_2
62
5
10
-32.622554
20
32.943521
30
0
11
-32.537487
21
32.943521
31
0
0
LINE
8
AREA_A2_PEN_2_AREA_NIVEL_4
62
6
10
-32.012288
20
32.943521
30
0
11
-31.893934
21
32.943521
31
0
0
LINE
8
AREA_A2_PEN_6_AREA_NIVEL_2
62
5
10
-32.673909
20
33.026021
30
0
11
-32.611030
21
33.026021
31
0
0
ENDSEC
0
EOF
