<?xml version="1.0" encoding="UTF-8"?>
<svg xmlns="http://www.w3.org/2000/svg"
     width="5.455375mm" height="6.427500mm"
     viewBox="-39.000000 -27.463750 5.455375 6.427500">
  <g fill="none" stroke-width="0.02" stroke-linecap="round">
    <line id="AREA_A2_PEN_3_AREA_NIVEL_2" x1="-37.762529" y1="-22.036250" x2="-37.624625" y2="-22.036250" stroke="rgb(0,0,255)" />
    <line id="AREA_A2_PEN_3_AREA_NIVEL_2" x1="-37.754582" y1="-22.063750" x2="-37.644261" y2="-22.063750" stroke="rgb(0,0,255)" />
    <line id="AREA_A2_PEN_3_AREA_NIVEL_2" x1="-37.825218" y1="-22.146250" x2="-37.681950" y2="-22.146250" stroke="rgb(0,0,255)" />
    <line id="AREA_A2_PEN_3_AREA_NIVEL_2" x1="-37.865379" y1="-22.173750" x2="-37.688788" y2="-22.173750" stroke="rgb(0,0,255)" />
    <line id="AREA_A2_PEN_3_AREA_NIVEL_2" x1="-37.975875" y1="-22.311250" x2="-37.743875" y2="-22.311250" stroke="rgb(0,0,255)" />
    <line id="AREA_A2_PEN_3_AREA_NIVEL_2" x1="-37.846562" y1="-22.338750" x2="-37.525694" y2="-22.338750" stroke="rgb(0,0,255)" />
    <line id="AREA_A2_PEN_3_AREA_NIVEL_2" x1="-37.983131" y1="-22.366250" x2="-37.868973" y2="-22.366250" stroke="rgb(0,0,255)" />
    <line id="AREA_A2_PEN_3_AREA_NIVEL_2" x1="-37.661802" y1="-22.476250" x2="-37.518148" y2="-22.476250" stroke="rgb(0,0,255)" />
    <line id="AREA_A2_PEN_3_AREA_NIVEL_2" x1="-37.920457" y1="-22.586250" x2="-37.791634" y2="-22.586250" stroke="rgb(0,0,255)" />
    <line id="AREA_A2_PEN_3_AREA_NIVEL_2" x1="-37.283413" y1="-22.668750" x2="-37.181875" y2="-22.668750" stroke="rgb(0,0,255)" />
    <line id="AREA_A2_PEN_3_AREA_NIVEL_2" x1="-37.275345" y1="-22.696250" x2="-37.162625" y2="-22.696250" stroke="rgb(0,0,255)" />
    <line id="AREA_A2_PEN_3_AREA_NIVEL_2" x1="-37.709958" y1="-22.723750" x2="-37.570034" y2="-22.723750" stroke="rgb(0,0,255)" />
    <line id="AREA_A2_PEN_3_AREA_NIVEL_2" x1="-37.274261" y1="-22.723750" x2="-37.145414" y2="-22.723750" stroke="rgb(0,0,255)" />
    <line id="AREA_A2_PEN_3_AREA_NIVEL_2" x1="-37.672715" y1="-22.751250" x2="-37.521628" y2="-22.751250" stroke="rgb(0,0,255)" />
    <line id="AREA_A2_PEN_3_AREA_NIVEL_2" x1="-37.277278" y1="-22.751250" x2="-37.155756" y2="-22.751250" stroke="rgb(0,0,255)" />
    <line id="AREA_A2_PEN_3_AREA_NIVEL_2" x1="-37.846256" y1="-22.778750" x2="-37.547131" y2="-22.778750" stroke="rgb(0,0,255)" />
    <line id="AREA_A2_PEN_3_AREA_NIVEL_2" x1="-37.313619" y1="-22.778750" x2="-37.104875" y2="-22.778750" stroke="rgb(0,0,255)" />
    <line id="AREA_A2_PEN_3_AREA_NIVEL_2" x1="-37.853510" y1="-22.806250" x2="-37.591202" y2="-22.806250" stroke="rgb(0,0,255)" />
    <line id="AREA_A2_PEN_3_AREA_NIVEL_2" x1="-37.305625" y1="-22.806250" x2="-37.154375" y2="-22.806250" stroke="rgb(0,0,255)" />
    <line id="AREA_A2_PEN_3_AREA_NIVEL_2" x1="-37.768160" y1="-22.833750" x2="-37.613128" y2="-22.833750" stroke="rgb(0,0,255)" />
    <line id="AREA_A2_PEN_3_AREA_NIVEL_2" x1="-37.739422" y1="-22.861250" x2="-37.625328" y2="-22.861250" stroke="rgb(0,0,255)" />
    <line id="AREA_A2_PEN_3_AREA_NIVEL_2" x1="-38.000000" y1="-22.916250" x2="-37.865224" y2="-22.916250" stroke="rgb(0,0,255)" />
    <line id="AREA_A2_PEN_3_AREA_NIVEL_2" x1="-38.000000" y1="-22.943750" x2="-37.865144" y2="-22.943750" stroke="rgb(0,0,255)" />
    <line id="AREA_A2_PEN_3_AREA_NIVEL_2" x1="-38.000000" y1="-22.971250" x2="-37.868772" y2="-22.971250" stroke="rgb(0,0,255)" />
    <line id="AREA_A2_PEN_3_AREA_NIVEL_2" x1="-38.000000" y1="-22.998750" x2="-37.891230" y2="-22.998750" stroke="rgb(0,0,255)" />
    <line id="AREA_A2_PEN_3_AREA_NIVEL_2" x1="-37.872019" y1="-23.081250" x2="-37.761490" y2="-23.081250" stroke="rgb(0,0,255)" />
    <line id="AREA_A2_PEN_3_AREA_NIVEL_2" x1="-37.198269" y1="-23.081250" x2="-37.065529" y2="-23.081250" stroke="rgb(0,0,255)" />
    <line id="AREA_A2_PEN_3_AREA_NIVEL_2" x1="-37.864508" y1="-23.108750" x2="-37.687264" y2="-23.108750" stroke="rgb(0,0,255)" />
    <line id="AREA_A2_PEN_3_AREA_NIVEL_2" x1="-37.275515" y1="-23.108750" x2="-37.157541" y2="-23.108750" stroke="rgb(0,0,255)" />
    <line id="AREA_A2_PEN_3_AREA_NIVEL_2" x1="-37.853846" y1="-23.136250" x2="-37.639972" y2="-23.136250" stroke="rgb(0,0,255)" />
    <line id="AREA_A2_PEN_3_AREA_NIVEL_2" x1="-37.281159" y1="-23.136250" x2="-37.155958" y2="-23.136250" stroke="rgb(0,0,255)" />
    <line id="AREA_A2_PEN_3_AREA_NIVEL_2" x1="-37.801969" y1="-23.163750" x2="-37.599081" y2="-23.163750" stroke="rgb(0,0,255)" />
    <line id="AREA_A2_PEN_3_AREA_NIVEL_2" x1="-37.805523" y1="-23.191250" x2="-37.621037" y2="-23.191250" stroke="rgb(0,0,255)" />
    <line id="AREA_A2_PEN_3_AREA_NIVEL_2" x1="-37.013807" y1="-23.191250" x2="-36.877416" y2="-23.191250" stroke="rgb(0,0,255)" />
    <line id="AREA_A2_PEN_3_AREA_NIVEL_2" x1="-37.009471" y1="-23.218750" x2="-36.869327" y2="-23.218750" stroke="rgb(0,0,255)" />
    <line id="AREA_A2_PEN_3_AREA_NIVEL_2" x1="-37.964529" y1="-23.246250" x2="-37.568746" y2="-23.246250" stroke="rgb(0,0,255)" />
    <line id="AREA_A2_PEN_3_AREA_NIVEL_2" x1="-37.034783" y1="-23.246250" x2="-36.890883" y2="-23.246250" stroke="rgb(0,0,255)" />
    <line id="AREA_A2_PEN_3_AREA_NIVEL_2" x1="-37.890690" y1="-23.301250" x2="-37.776528" y2="-23.301250" stroke="rgb(0,0,255)" />
    <line id="AREA_A2_PEN_3_AREA_NIVEL_2" x1="-37.408932" y1="-23.383750" x2="-37.265035" y2="-23.383750" stroke="rgb(0,0,255)" />
    <line id="AREA_A2_PEN_3_AREA_NIVEL_2" x1="-37.972032" y1="-23.438750" x2="-37.835678" y2="-23.438750" stroke="rgb(0,0,255)" />
    <line id="AREA_A2_PEN_3_AREA_NIVEL_2" x1="-37.986801" y1="-23.466250" x2="-37.513708" y2="-23.466250" stroke="rgb(0,0,255)" />
    <line id="AREA_A2_PEN_3_AREA_NIVEL_2" x1="-36.765823" y1="-23.466250" x2="-36.640524" y2="-23.466250" stroke="rgb(0,0,255)" />
    <line id="AREA_A2_PEN_3_AREA_NIVEL_2" x1="-37.627692" y1="-23.493750" x2="-37.472740" y2="-23.493750" stroke="rgb(0,0,255)" />
    <line id="AREA_A2_PEN_3_AREA_NIVEL_2" x1="-37.705100" y1="-23.548750" x2="-37.587102" y2="-23.548750" stroke="rgb(0,0,255)" />
    <line id="AREA_A2_PEN_3_AREA_NIVEL_2" x1="-36.799712" y1="-23.576250" x2="-36.546625" y2="-23.576250" stroke="rgb(0,0,255)" />
    <line id="AREA_A2_PEN_3_AREA_NIVEL_2" x1="-37.968299" y1="-23.603750" x2="-37.839298" y2="-23.603750" stroke="rgb(0,0,255)" />
    <line id="AREA_A2_PEN_3_AREA_NIVEL_2" x1="-36.750978" y1="-23.603750" x2="-36.527375" y2="-23.603750" stroke="rgb(0,0,255)" />
    <line id="AREA_A2_PEN_3_AREA_NIVEL_2" x1="-37.975673" y1="-23.631250" x2="-37.846635" y2="-23.631250" stroke="rgb(0,0,255)" />
    <line id="AREA_A2_PEN_3_AREA_NIVEL_2" x1="-36.761442" y1="-23.631250" x2="-36.508125" y2="-23.631250" stroke="rgb(0,0,255)" />
    <line id="AREA_A2_PEN_3_AREA_NIVEL_2" x1="-38.000000" y1="-23.658750" x2="-37.853980" y2="-23.658750" stroke="rgb(0,0,255)" />
    <line id="AREA_A2_PEN_3_AREA_NIVEL_2" x1="-36.783044" y1="-23.658750" x2="-36.509524" y2="-23.658750" stroke="rgb(0,0,255)" />
    <line id="AREA_A2_PEN_3_AREA_NIVEL_2" x1="-38.000000" y1="-23.686250" x2="-37.898390" y2="-23.686250" stroke="rgb(0,0,255)" />
    <line id="AREA_A2_PEN_3_AREA_NIVEL_2" x1="-36.889909" y1="-23.686250" x2="-36.471769" y2="-23.686250" stroke="rgb(0,0,255)" />
    <line id="AREA_A2_PEN_3_AREA_NIVEL_2" x1="-38.000000" y1="-23.713750" x2="-37.891135" y2="-23.713750" stroke="rgb(0,0,255)" />
    <line id="AREA_A2_PEN_3_AREA_NIVEL_2" x1="-36.851412" y1="-23.713750" x2="-36.450375" y2="-23.713750" stroke="rgb(0,0,255)" />
    <line id="AREA_A2_PEN_3_AREA_NIVEL_2" x1="-36.843443" y1="-23.741250" x2="-36.673738" y2="-23.741250" stroke="rgb(0,0,255)" />
    <line id="AREA_A2_PEN_3_AREA_NIVEL_2" x1="-36.831779" y1="-23.768750" x2="-36.658317" y2="-23.768750" stroke="rgb(0,0,255)" />
    <line id="AREA_A2_PEN_3_AREA_NIVEL_2" x1="-36.509012" y1="-23.796250" x2="-36.392625" y2="-23.796250" stroke="rgb(0,0,255)" />
    <line id="AREA_A2_PEN_3_AREA_NIVEL_2" x1="-36.893679" y1="-23.823750" x2="-36.779395" y2="-23.823750" stroke="rgb(0,0,255)" />
    <line id="AREA_A2_PEN_3_AREA_NIVEL_2" x1="-36.519444" y1="-23.823750" x2="-36.382928" y2="-23.823750" stroke="rgb(0,0,255)" />
    <line id="AREA_A2_PEN_3_AREA_NIVEL_2" x1="-36.544363" y1="-23.851250" x2="-36.385803" y2="-23.851250" stroke="rgb(0,0,255)" />
    <line id="AREA_A2_PEN_3_AREA_NIVEL_2" x1="-36.654697" y1="-23.878750" x2="-36.334875" y2="-23.878750" stroke="rgb(0,0,255)" />
    <line id="AREA_A2_PEN_3_AREA_NIVEL_2" x1="-37.968269" y1="-23.906250" x2="-37.491250" y2="-23.906250" stroke="rgb(0,0,255)" />
    <line id="AREA_A2_PEN_3_AREA_NIVEL_2" x1="-36.583750" y1="-23.906250" x2="-36.391779" y2="-23.906250" stroke="rgb(0,0,255)" />
    <line id="AREA_A2_PEN_3_AREA_NIVEL_2" x1="-37.953429" y1="-23.933750" x2="-37.465116" y2="-23.933750" stroke="rgb(0,0,255)" />
    <line id="AREA_A2_PEN_3_AREA_NIVEL_2" x1="-37.968218" y1="-23.961250" x2="-37.805770" y2="-23.961250" stroke="rgb(0,0,255)" />
    <line id="AREA_A2_PEN_3_AREA_NIVEL_2" x1="-36.734417" y1="-23.961250" x2="-36.590495" y2="-23.961250" stroke="rgb(0,0,255)" />
    <line id="AREA_A2_PEN_3_AREA_NIVEL_2" x1="-37.979416" y1="-23.988750" x2="-37.857838" y2="-23.988750" stroke="rgb(0,0,255)" />
    <line id="AREA_A2_PEN_3_AREA_NIVEL_2" x1="-37.017733" y1="-23.988750" x2="-36.633542" y2="-23.988750" stroke="rgb(0,0,255)" />
    <line id="AREA_A2_PEN_3_AREA_NIVEL_2" x1="-37.757260" y1="-24.043750" x2="-37.472740" y2="-24.043750" stroke="rgb(0,0,255)" />
    <line id="AREA_A2_PEN_3_AREA_NIVEL_2" x1="-36.565240" y1="-24.043750" x2="-36.451010" y2="-24.043750" stroke="rgb(0,0,255)" />
    <line id="AREA_A2_PEN_3_AREA_NIVEL_2" x1="-36.816473" y1="-24.071250" x2="-36.691108" y2="-24.071250" stroke="rgb(0,0,255)" />
    <line id="AREA_A2_PEN_3_AREA_NIVEL_2" x1="-37.971926" y1="-24.098750" x2="-37.857647" y2="-24.098750" stroke="rgb(0,0,255)" />
    <line id="AREA_A2_PEN_3_AREA_NIVEL_2" x1="-37.842553" y1="-24.126250" x2="-37.669187" y2="-24.126250" stroke="rgb(0,0,255)" />
    <line id="AREA_A2_PEN_3_AREA_NIVEL_2" x1="-36.388868" y1="-24.126250" x2="-36.241394" y2="-24.126250" stroke="rgb(0,0,255)" />
    <line id="AREA_A2_PEN_3_AREA_NIVEL_2" x1="-37.805473" y1="-24.153750" x2="-37.661662" y2="-24.153750" stroke="rgb(0,0,255)" />
    <line id="AREA_A2_PEN_3_AREA_NIVEL_2" x1="-36.410404" y1="-24.153750" x2="-36.240690" y2="-24.153750" stroke="rgb(0,0,255)" />
    <line id="AREA_A2_PEN_3_AREA_NIVEL_2" x1="-36.417163" y1="-24.181250" x2="-36.254808" y2="-24.181250" stroke="rgb(0,0,255)" />
    <line id="AREA_A2_PEN_3_AREA_NIVEL_2" x1="-36.957226" y1="-24.208750" x2="-36.839269" y2="-24.208750" stroke="rgb(0,0,255)" />
    <line id="AREA_A2_PEN_3_AREA_NIVEL_2" x1="-36.590593" y1="-24.208750" x2="-36.443009" y2="-24.208750" stroke="rgb(0,0,255)" />
    <line id="AREA_A2_PEN_3_AREA_NIVEL_2" x1="-36.586338" y1="-24.236250" x2="-36.460947" y2="-24.236250" stroke="rgb(0,0,255)" />
    <line id="AREA_A2_PEN_3_AREA_NIVEL_2" x1="-37.025046" y1="-24.263750" x2="-36.892365" y2="-24.263750" stroke="rgb(0,0,255)" />
    <line id="AREA_A2_PEN_3_AREA_NIVEL_2" x1="-37.172680" y1="-24.291250" x2="-36.729125" y2="-24.291250" stroke="rgb(0,0,255)" />
    <line id="AREA_A2_PEN_3_AREA_NIVEL_2" x1="-37.176058" y1="-24.318750" x2="-36.713846" y2="-24.318750" stroke="rgb(0,0,255)" />
    <line id="AREA_A2_PEN_3_AREA_NIVEL_2" x1="-37.983060" y1="-24.346250" x2="-37.816961" y2="-24.346250" stroke="rgb(0,0,255)" />
    <line id="AREA_A2_PEN_3_AREA_NIVEL_2" x1="-37.190554" y1="-24.346250" x2="-36.720785" y2="-24.346250" stroke="rgb(0,0,255)" />
    <line id="AREA_A2_PEN_3_AREA_NIVEL_2" x1="-37.390300" y1="-24.373750" x2="-36.749965" y2="-24.373750" stroke="rgb(0,0,255)" />
    <line id="AREA_A2_PEN_3_AREA_NIVEL_2" x1="-37.404896" y1="-24.401250" x2="-36.742116" y2="-24.401250" stroke="rgb(0,0,255)" />
    <line id="AREA_A2_PEN_3_AREA_NIVEL_2" x1="-36.293103" y1="-24.401250" x2="-36.134336" y2="-24.401250" stroke="rgb(0,0,255)" />
    <line id="AREA_A2_PEN_3_AREA_NIVEL_2" x1="-37.827668" y1="-24.428750" x2="-37.213880" y2="-24.428750" stroke="rgb(0,0,255)" />
    <line id="AREA_A2_PEN_3_AREA_NIVEL_2" x1="-36.928426" y1="-24.428750" x2="-36.181416" y2="-24.428750" stroke="rgb(0,0,255)" />
    <line id="AREA_A2_PEN_3_AREA_NIVEL_2" x1="-37.801683" y1="-24.456250" x2="-37.672644" y2="-24.456250" stroke="rgb(0,0,255)" />
    <line id="AREA_A2_PEN_3_AREA_NIVEL_2" x1="-37.390769" y1="-24.456250" x2="-37.217308" y2="-24.456250" stroke="rgb(0,0,255)" />
    <line id="AREA_A2_PEN_3_AREA_NIVEL_2" x1="-36.913221" y1="-24.456250" x2="-36.787885" y2="-24.456250" stroke="rgb(0,0,255)" />
    <line id="AREA_A2_PEN_3_AREA_NIVEL_2" x1="-37.375730" y1="-24.483750" x2="-37.246666" y2="-24.483750" stroke="rgb(0,0,255)" />
    <line id="AREA_A2_PEN_3_AREA_NIVEL_2" x1="-36.731367" y1="-24.483750" x2="-36.417141" y2="-24.483750" stroke="rgb(0,0,255)" />
    <line id="AREA_A2_PEN_3_AREA_NIVEL_2" x1="-37.360685" y1="-24.511250" x2="-37.142686" y2="-24.511250" stroke="rgb(0,0,255)" />
    <line id="AREA_A2_PEN_3_AREA_NIVEL_2" x1="-37.727331" y1="-24.538750" x2="-37.590803" y2="-24.538750" stroke="rgb(0,0,255)" />
    <line id="AREA_A2_PEN_3_AREA_NIVEL_2" x1="-37.334517" y1="-24.538750" x2="-37.146108" y2="-24.538750" stroke="rgb(0,0,255)" />
    <line id="AREA_A2_PEN_3_AREA_NIVEL_2" x1="-36.760119" y1="-24.538750" x2="-36.316011" y2="-24.538750" stroke="rgb(0,0,255)" />
    <line id="AREA_A2_PEN_3_AREA_NIVEL_2" x1="-35.955962" y1="-24.538750" x2="-35.872875" y2="-24.538750" stroke="rgb(0,0,255)" />
    <line id="AREA_A2_PEN_3_AREA_NIVEL_2" x1="-37.816563" y1="-24.566250" x2="-37.661646" y2="-24.566250" stroke="rgb(0,0,255)" />
    <line id="AREA_A2_PEN_3_AREA_NIVEL_2" x1="-37.405791" y1="-24.566250" x2="-37.139855" y2="-24.566250" stroke="rgb(0,0,255)" />
    <line id="AREA_A2_PEN_3_AREA_NIVEL_2" x1="-36.895102" y1="-24.566250" x2="-36.625465" y2="-24.566250" stroke="rgb(0,0,255)" />
    <line id="AREA_A2_PEN_3_AREA_NIVEL_2" x1="-37.986779" y1="-24.593750" x2="-37.820721" y2="-24.593750" stroke="rgb(0,0,255)" />
    <line id="AREA_A2_PEN_3_AREA_NIVEL_2" x1="-37.464808" y1="-24.593750" x2="-36.910048" y2="-24.593750" stroke="rgb(0,0,255)" />
    <line id="AREA_A2_PEN_3_AREA_NIVEL_2" x1="-37.860857" y1="-24.621250" x2="-36.909688" y2="-24.621250" stroke="rgb(0,0,255)" />
    <line id="AREA_A2_PEN_3_AREA_NIVEL_2" x1="-37.990456" y1="-24.648750" x2="-36.913038" y2="-24.648750" stroke="rgb(0,0,255)" />
    <line id="AREA_A2_PEN_3_AREA_NIVEL_2" x1="-38.000000" y1="-24.676250" x2="-37.264726" y2="-24.676250" stroke="rgb(0,0,255)" />
    <line id="AREA_A2_PEN_3_AREA_NIVEL_2" x1="-37.019570" y1="-24.676250" x2="-36.897869" y2="-24.676250" stroke="rgb(0,0,255)" />
    <line id="AREA_A2_PEN_3_AREA_NIVEL_2" x1="-36.308090" y1="-24.676250" x2="-36.178978" y2="-24.676250" stroke="rgb(0,0,255)" />
    <line id="AREA_A2_PEN_3_AREA_NIVEL_2" x1="-37.997894" y1="-24.703750" x2="-37.258265" y2="-24.703750" stroke="rgb(0,0,255)" />
    <line id="AREA_A2_PEN_3_AREA_NIVEL_2" x1="-37.020909" y1="-24.703750" x2="-36.899297" y2="-24.703750" stroke="rgb(0,0,255)" />
    <line id="AREA_A2_PEN_3_AREA_NIVEL_2" x1="-36.299272" y1="-24.703750" x2="-35.914910" y2="-24.703750" stroke="rgb(0,0,255)" />
    <line id="AREA_A2_PEN_3_AREA_NIVEL_2" x1="-37.957163" y1="-24.731250" x2="-37.254327" y2="-24.731250" stroke="rgb(0,0,255)" />
    <line id="AREA_A2_PEN_3_AREA_NIVEL_2" x1="-36.454183" y1="-24.731250" x2="-36.195577" y2="-24.731250" stroke="rgb(0,0,255)" />
    <line id="AREA_A2_PEN_3_AREA_NIVEL_2" x1="-38.000000" y1="-24.758750" x2="-37.261500" y2="-24.758750" stroke="rgb(0,0,255)" />
    <line id="AREA_A2_PEN_3_AREA_NIVEL_2" x1="-36.464781" y1="-24.758750" x2="-36.154266" y2="-24.758750" stroke="rgb(0,0,255)" />
    <line id="AREA_A2_PEN_3_AREA_NIVEL_2" x1="-35.868578" y1="-24.758750" x2="-35.754328" y2="-24.758750" stroke="rgb(0,0,255)" />
    <line id="AREA_A2_PEN_3_AREA_NIVEL_2" x1="-37.886736" y1="-24.786250" x2="-36.898251" y2="-24.786250" stroke="rgb(0,0,255)" />
    <line id="AREA_A2_PEN_3_AREA_NIVEL_2" x1="-36.338336" y1="-24.786250" x2="-35.749915" y2="-24.786250" stroke="rgb(0,0,255)" />
    <line id="AREA_A2_PEN_3_AREA_NIVEL_2" x1="-37.949685" y1="-24.813750" x2="-36.846037" y2="-24.813750" stroke="rgb(0,0,255)" />
    <line id="AREA_A2_PEN_3_AREA_NIVEL_2" x1="-36.319278" y1="-24.813750" x2="-36.175346" y2="-24.813750" stroke="rgb(0,0,255)" />
    <line id="AREA_A2_PEN_3_AREA_NIVEL_2" x1="-35.930203" y1="-24.813750" x2="-35.680375" y2="-24.813750" stroke="rgb(0,0,255)" />
    <line id="AREA_A2_PEN_3_AREA_NIVEL_2" x1="-37.949784" y1="-24.841250" x2="-37.454395" y2="-24.841250" stroke="rgb(0,0,255)" />
    <line id="AREA_A2_PEN_3_AREA_NIVEL_2" x1="-36.969085" y1="-24.841250" x2="-36.514404" y2="-24.841250" stroke="rgb(0,0,255)" />
    <line id="AREA_A2_PEN_3_AREA_NIVEL_2" x1="-35.940276" y1="-24.841250" x2="-35.670633" y2="-24.841250" stroke="rgb(0,0,255)" />
    <line id="AREA_A2_PEN_3_AREA_NIVEL_2" x1="-37.705433" y1="-24.868750" x2="-37.476442" y2="-24.868750" stroke="rgb(0,0,255)" />
    <line id="AREA_A2_PEN_3_AREA_NIVEL_2" x1="-37.009471" y1="-24.868750" x2="-36.728654" y2="-24.868750" stroke="rgb(0,0,255)" />
    <line id="AREA_A2_PEN_3_AREA_NIVEL_2" x1="-36.232067" y1="-24.868750" x2="-35.651394" y2="-24.868750" stroke="rgb(0,0,255)" />
    <line id="AREA_A2_PEN_3_AREA_NIVEL_2" x1="-37.883080" y1="-24.896250" x2="-37.465179" y2="-24.896250" stroke="rgb(0,0,255)" />
    <line id="AREA_A2_PEN_3_AREA_NIVEL_2" x1="-36.961014" y1="-24.896250" x2="-36.820843" y2="-24.896250" stroke="rgb(0,0,255)" />
    <line id="AREA_A2_PEN_3_AREA_NIVEL_2" x1="-36.379631" y1="-24.896250" x2="-36.254273" y2="-24.896250" stroke="rgb(0,0,255)" />
    <line id="AREA_A2_PEN_3_AREA_NIVEL_2" x1="-35.831576" y1="-24.896250" x2="-35.706217" y2="-24.896250" stroke="rgb(0,0,255)" />
    <line id="AREA_A2_PEN_3_AREA_NIVEL_2" x1="-37.871923" y1="-24.923750" x2="-37.753952" y2="-24.923750" stroke="rgb(0,0,255)" />
    <line id="AREA_A2_PEN_3_AREA_NIVEL_2" x1="-36.968095" y1="-24.923750" x2="-36.831603" y2="-24.923750" stroke="rgb(0,0,255)" />
    <line id="AREA_A2_PEN_3_AREA_NIVEL_2" x1="-36.486548" y1="-24.923750" x2="-36.238929" y2="-24.923750" stroke="rgb(0,0,255)" />
    <line id="AREA_A2_PEN_3_AREA_NIVEL_2" x1="-36.986302" y1="-24.951250" x2="-36.820142" y2="-24.951250" stroke="rgb(0,0,255)" />
    <line id="AREA_A2_PEN_3_AREA_NIVEL_2" x1="-36.534252" y1="-24.951250" x2="-36.230995" y2="-24.951250" stroke="rgb(0,0,255)" />
    <line id="AREA_A2_PEN_3_AREA_NIVEL_2" x1="-37.150411" y1="-24.978750" x2="-36.836355" y2="-24.978750" stroke="rgb(0,0,255)" />
    <line id="AREA_A2_PEN_3_AREA_NIVEL_2" x1="-36.502771" y1="-24.978750" x2="-36.240527" y2="-24.978750" stroke="rgb(0,0,255)" />
    <line id="AREA_A2_PEN_3_AREA_NIVEL_2" x1="-37.838702" y1="-25.006250" x2="-37.676346" y2="-25.006250" stroke="rgb(0,0,255)" />
    <line id="AREA_A2_PEN_3_AREA_NIVEL_2" x1="-37.168654" y1="-25.006250" x2="-37.024808" y2="-25.006250" stroke="rgb(0,0,255)" />
    <line id="AREA_A2_PEN_3_AREA_NIVEL_2" x1="-36.450481" y1="-25.006250" x2="-36.280721" y2="-25.006250" stroke="rgb(0,0,255)" />
    <line id="AREA_A2_PEN_3_AREA_NIVEL_2" x1="-37.831239" y1="-25.033750" x2="-37.661445" y2="-25.033750" stroke="rgb(0,0,255)" />
    <line id="AREA_A2_PEN_3_AREA_NIVEL_2" x1="-37.353548" y1="-25.033750" x2="-37.028227" y2="-25.033750" stroke="rgb(0,0,255)" />
    <line id="AREA_A2_PEN_3_AREA_NIVEL_2" x1="-36.424087" y1="-25.033750" x2="-35.969160" y2="-25.033750" stroke="rgb(0,0,255)" />
    <line id="AREA_A2_PEN_3_AREA_NIVEL_2" x1="-37.364462" y1="-25.061250" x2="-37.087215" y2="-25.061250" stroke="rgb(0,0,255)" />
    <line id="AREA_A2_PEN_3_AREA_NIVEL_2" x1="-36.119876" y1="-25.061250" x2="-35.924120" y2="-25.061250" stroke="rgb(0,0,255)" />
    <line id="AREA_A2_PEN_3_AREA_NIVEL_2" x1="-35.693902" y1="-25.061250" x2="-35.572228" y2="-25.061250" stroke="rgb(0,0,255)" />
    <line id="AREA_A2_PEN_3_AREA_NIVEL_2" x1="-37.375385" y1="-25.088750" x2="-37.105483" y2="-25.088750" stroke="rgb(0,0,255)" />
    <line id="AREA_A2_PEN_3_AREA_NIVEL_2" x1="-37.675920" y1="-25.116250" x2="-37.558006" y2="-25.116250" stroke="rgb(0,0,255)" />
    <line id="AREA_A2_PEN_3_AREA_NIVEL_2" x1="-37.309537" y1="-25.116250" x2="-37.147213" y2="-25.116250" stroke="rgb(0,0,255)" />
    <line id="AREA_A2_PEN_3_AREA_NIVEL_2" x1="-37.720240" y1="-25.143750" x2="-37.572692" y2="-25.143750" stroke="rgb(0,0,255)" />
    <line id="AREA_A2_PEN_3_AREA_NIVEL_2" x1="-37.083510" y1="-25.143750" x2="-36.972981" y2="-25.143750" stroke="rgb(0,0,255)" />
    <line id="AREA_A2_PEN_3_AREA_NIVEL_2" x1="-37.727558" y1="-25.171250" x2="-37.254120" y2="-25.171250" stroke="rgb(0,0,255)" />
    <line id="AREA_A2_PEN_3_AREA_NIVEL_2" x1="-36.816622" y1="-25.171250" x2="-36.643127" y2="-25.171250" stroke="rgb(0,0,255)" />
    <line id="AREA_A2_PEN_3_AREA_NIVEL_2" x1="-37.857114" y1="-25.198750" x2="-37.350221" y2="-25.198750" stroke="rgb(0,0,255)" />
    <line id="AREA_A2_PEN_3_AREA_NIVEL_2" x1="-35.986573" y1="-25.198750" x2="-35.876013" y2="-25.198750" stroke="rgb(0,0,255)" />
    <line id="AREA_A2_PEN_3_AREA_NIVEL_2" x1="-35.579129" y1="-25.198750" x2="-35.468568" y2="-25.198750" stroke="rgb(0,0,255)" />
    <line id="AREA_A2_PEN_3_AREA_NIVEL_2" x1="-37.883002" y1="-25.226250" x2="-37.379688" y2="-25.226250" stroke="rgb(0,0,255)" />
    <line id="AREA_A2_PEN_3_AREA_NIVEL_2" x1="-36.689967" y1="-25.226250" x2="-36.523814" y2="-25.226250" stroke="rgb(0,0,255)" />
    <line id="AREA_A2_PEN_3_AREA_NIVEL_2" x1="-37.957183" y1="-25.253750" x2="-36.751210" y2="-25.253750" stroke="rgb(0,0,255)" />
    <line id="AREA_A2_PEN_3_AREA_NIVEL_2" x1="-37.923846" y1="-25.281250" x2="-37.483846" y2="-25.281250" stroke="rgb(0,0,255)" />
    <line id="AREA_A2_PEN_3_AREA_NIVEL_2" x1="-36.976154" y1="-25.281250" x2="-36.480625" y2="-25.281250" stroke="rgb(0,0,255)" />
    <line id="AREA_A2_PEN_3_AREA_NIVEL_2" x1="-37.738670" y1="-25.308750" x2="-37.628126" y2="-25.308750" stroke="rgb(0,0,255)" />
    <line id="AREA_A2_PEN_3_AREA_NIVEL_2" x1="-37.198039" y1="-25.308750" x2="-36.839397" y2="-25.308750" stroke="rgb(0,0,255)" />
    <line id="AREA_A2_PEN_3_AREA_NIVEL_2" x1="-35.524305" y1="-25.308750" x2="-35.413761" y2="-25.308750" stroke="rgb(0,0,255)" />
    <line id="AREA_A2_PEN_3_AREA_NIVEL_2" x1="-37.979348" y1="-25.336250" x2="-37.865085" y2="-25.336250" stroke="rgb(0,0,255)" />
    <line id="AREA_A2_PEN_3_AREA_NIVEL_2" x1="-37.201516" y1="-25.336250" x2="-37.046509" y2="-25.336250" stroke="rgb(0,0,255)" />
    <line id="AREA_A2_PEN_3_AREA_NIVEL_2" x1="-37.193883" y1="-25.363750" x2="-37.035144" y2="-25.363750" stroke="rgb(0,0,255)" />
    <line id="AREA_A2_PEN_3_AREA_NIVEL_2" x1="-36.211583" y1="-25.391250" x2="-36.089876" y2="-25.391250" stroke="rgb(0,0,255)" />
    <line id="AREA_A2_PEN_3_AREA_NIVEL_2" x1="-35.403686" y1="-25.391250" x2="-35.276125" y2="-25.391250" stroke="rgb(0,0,255)" />
    <line id="AREA_A2_PEN_3_AREA_NIVEL_2" x1="-37.575865" y1="-25.418750" x2="-37.417212" y2="-25.418750" stroke="rgb(0,0,255)" />
    <line id="AREA_A2_PEN_3_AREA_NIVEL_2" x1="-36.206154" y1="-25.418750" x2="-36.036394" y2="-25.418750" stroke="rgb(0,0,255)" />
    <line id="AREA_A2_PEN_3_AREA_NIVEL_2" x1="-37.579447" y1="-25.446250" x2="-37.409657" y2="-25.446250" stroke="rgb(0,0,255)" />
    <line id="AREA_A2_PEN_3_AREA_NIVEL_2" x1="-36.957357" y1="-25.446250" x2="-36.832002" y2="-25.446250" stroke="rgb(0,0,255)" />
    <line id="AREA_A2_PEN_3_AREA_NIVEL_2" x1="-36.213071" y1="-25.446250" x2="-36.080310" y2="-25.446250" stroke="rgb(0,0,255)" />
    <line id="AREA_A2_PEN_3_AREA_NIVEL_2" x1="-35.539141" y1="-25.446250" x2="-35.317510" y2="-25.446250" stroke="rgb(0,0,255)" />
    <line id="AREA_A2_PEN_3_AREA_NIVEL_2" x1="-37.475620" y1="-25.473750" x2="-37.346542" y2="-25.473750" stroke="rgb(0,0,255)" />
    <line id="AREA_A2_PEN_3_AREA_NIVEL_2" x1="-36.557054" y1="-25.473750" x2="-36.035363" y2="-25.473750" stroke="rgb(0,0,255)" />
    <line id="AREA_A2_PEN_3_AREA_NIVEL_2" x1="-35.575522" y1="-25.473750" x2="-35.446444" y2="-25.473750" stroke="rgb(0,0,255)" />
    <line id="AREA_A2_PEN_3_AREA_NIVEL_2" x1="-37.449542" y1="-25.501250" x2="-37.335264" y2="-25.501250" stroke="rgb(0,0,255)" />
    <line id="AREA_A2_PEN_3_AREA_NIVEL_2" x1="-36.078743" y1="-25.501250" x2="-35.945941" y2="-25.501250" stroke="rgb(0,0,255)" />
    <line id="AREA_A2_PEN_3_AREA_NIVEL_2" x1="-35.630455" y1="-25.501250" x2="-35.493948" y2="-25.501250" stroke="rgb(0,0,255)" />
    <line id="AREA_A2_PEN_3_AREA_NIVEL_2" x1="-35.692837" y1="-25.528750" x2="-35.526662" y2="-25.528750" stroke="rgb(0,0,255)" />
    <line id="AREA_A2_PEN_3_AREA_NIVEL_2" x1="-37.294519" y1="-25.556250" x2="-37.106250" y2="-25.556250" stroke="rgb(0,0,255)" />
    <line id="AREA_A2_PEN_3_AREA_NIVEL_2" x1="-36.506010" y1="-25.556250" x2="-36.154856" y2="-25.556250" stroke="rgb(0,0,255)" />
    <line id="AREA_A2_PEN_3_AREA_NIVEL_2" x1="-37.968254" y1="-25.583750" x2="-37.850305" y2="-25.583750" stroke="rgb(0,0,255)" />
    <line id="AREA_A2_PEN_3_AREA_NIVEL_2" x1="-37.209163" y1="-25.583750" x2="-36.998642" y2="-25.583750" stroke="rgb(0,0,255)" />
    <line id="AREA_A2_PEN_3_AREA_NIVEL_2" x1="-36.587079" y1="-25.583750" x2="-36.313609" y2="-25.583750" stroke="rgb(0,0,255)" />
    <line id="AREA_A2_PEN_3_AREA_NIVEL_2" x1="-35.346613" y1="-25.583750" x2="-35.224961" y2="-25.583750" stroke="rgb(0,0,255)" />
    <line id="AREA_A2_PEN_3_AREA_NIVEL_2" x1="-37.975646" y1="-25.611250" x2="-37.642859" y2="-25.611250" stroke="rgb(0,0,255)" />
    <line id="AREA_A2_PEN_3_AREA_NIVEL_2" x1="-37.183027" y1="-25.611250" x2="-37.002097" y2="-25.611250" stroke="rgb(0,0,255)" />
    <line id="AREA_A2_PEN_3_AREA_NIVEL_2" x1="-36.738568" y1="-25.611250" x2="-36.335408" y2="-25.611250" stroke="rgb(0,0,255)" />
    <line id="AREA_A2_PEN_3_AREA_NIVEL_2" x1="-35.634827" y1="-25.611250" x2="-35.253890" y2="-25.611250" stroke="rgb(0,0,255)" />
    <line id="AREA_A2_PEN_3_AREA_NIVEL_2" x1="-37.875605" y1="-25.638750" x2="-37.757624" y2="-25.638750" stroke="rgb(0,0,255)" />
    <line id="AREA_A2_PEN_3_AREA_NIVEL_2" x1="-36.767880" y1="-25.638750" x2="-36.579509" y2="-25.638750" stroke="rgb(0,0,255)" />
    <line id="AREA_A2_PEN_3_AREA_NIVEL_2" x1="-35.634223" y1="-25.638750" x2="-35.293956" y2="-25.638750" stroke="rgb(0,0,255)" />
    <line id="AREA_A2_PEN_3_AREA_NIVEL_2" x1="-37.849627" y1="-25.666250" x2="-37.564875" y2="-25.666250" stroke="rgb(0,0,255)" />
    <line id="AREA_A2_PEN_3_AREA_NIVEL_2" x1="-36.760155" y1="-25.666250" x2="-35.956607" y2="-25.666250" stroke="rgb(0,0,255)" />
    <line id="AREA_A2_PEN_3_AREA_NIVEL_2" x1="-35.633627" y1="-25.666250" x2="-35.400754" y2="-25.666250" stroke="rgb(0,0,255)" />
    <line id="AREA_A2_PEN_3_AREA_NIVEL_2" x1="-37.838702" y1="-25.693750" x2="-37.709663" y2="-25.693750" stroke="rgb(0,0,255)" />
    <line id="AREA_A2_PEN_3_AREA_NIVEL_2" x1="-36.868798" y1="-25.693750" x2="-36.587981" y2="-25.693750" stroke="rgb(0,0,255)" />
    <line id="AREA_A2_PEN_3_AREA_NIVEL_2" x1="-36.228365" y1="-25.693750" x2="-35.096106" y2="-25.693750" stroke="rgb(0,0,255)" />
    <line id="AREA_A2_PEN_3_AREA_NIVEL_2" x1="-36.949970" y1="-25.721250" x2="-36.743154" y2="-25.721250" stroke="rgb(0,0,255)" />
    <line id="AREA_A2_PEN_3_AREA_NIVEL_2" x1="-35.787275" y1="-25.721250" x2="-35.587864" y2="-25.721250" stroke="rgb(0,0,255)" />
    <line id="AREA_A2_PEN_3_AREA_NIVEL_2" x1="-35.265173" y1="-25.721250" x2="-35.102791" y2="-25.721250" stroke="rgb(0,0,255)" />
    <line id="AREA_A2_PEN_3_AREA_NIVEL_2" x1="-36.920074" y1="-25.748750" x2="-36.739146" y2="-25.748750" stroke="rgb(0,0,255)" />
    <line id="AREA_A2_PEN_3_AREA_NIVEL_2" x1="-35.794128" y1="-25.748750" x2="-35.665053" y2="-25.748750" stroke="rgb(0,0,255)" />
    <line id="AREA_A2_PEN_3_AREA_NIVEL_2" x1="-35.220045" y1="-25.748750" x2="-35.090969" y2="-25.748750" stroke="rgb(0,0,255)" />
    <line id="AREA_A2_PEN_3_AREA_NIVEL_2" x1="-36.086252" y1="-25.776250" x2="-35.720059" y2="-25.776250" stroke="rgb(0,0,255)" />
    <line id="AREA_A2_PEN_3_AREA_NIVEL_2" x1="-35.230473" y1="-25.776250" x2="-35.116198" y2="-25.776250" stroke="rgb(0,0,255)" />
    <line id="AREA_A2_PEN_3_AREA_NIVEL_2" x1="-37.823694" y1="-25.803750" x2="-37.679760" y2="-25.803750" stroke="rgb(0,0,255)" />
    <line id="AREA_A2_PEN_3_AREA_NIVEL_2" x1="-36.956591" y1="-25.803750" x2="-36.671846" y2="-25.803750" stroke="rgb(0,0,255)" />
    <line id="AREA_A2_PEN_3_AREA_NIVEL_2" x1="-35.922739" y1="-25.803750" x2="-35.749161" y2="-25.803750" stroke="rgb(0,0,255)" />
    <line id="AREA_A2_PEN_3_AREA_NIVEL_2" x1="-37.831298" y1="-25.831250" x2="-37.361683" y2="-25.831250" stroke="rgb(0,0,255)" />
    <line id="AREA_A2_PEN_3_AREA_NIVEL_2" x1="-36.968750" y1="-25.831250" x2="-36.639808" y2="-25.831250" stroke="rgb(0,0,255)" />
    <line id="AREA_A2_PEN_3_AREA_NIVEL_2" x1="-35.928510" y1="-25.831250" x2="-35.666202" y2="-25.831250" stroke="rgb(0,0,255)" />
    <line id="AREA_A2_PEN_3_AREA_NIVEL_2" x1="-35.369519" y1="-25.831250" x2="-35.136827" y2="-25.831250" stroke="rgb(0,0,255)" />
    <line id="AREA_A2_PEN_3_AREA_NIVEL_2" x1="-37.879387" y1="-25.858750" x2="-37.631840" y2="-25.858750" stroke="rgb(0,0,255)" />
    <line id="AREA_A2_PEN_3_AREA_NIVEL_2" x1="-35.794699" y1="-25.858750" x2="-35.628614" y2="-25.858750" stroke="rgb(0,0,255)" />
    <line id="AREA_A2_PEN_3_AREA_NIVEL_2" x1="-35.150408" y1="-25.858750" x2="-35.039865" y2="-25.858750" stroke="rgb(0,0,255)" />
    <line id="AREA_A2_PEN_3_AREA_NIVEL_2" x1="-38.000000" y1="-25.886250" x2="-37.639166" y2="-25.886250" stroke="rgb(0,0,255)" />
    <line id="AREA_A2_PEN_3_AREA_NIVEL_2" x1="-36.434905" y1="-25.886250" x2="-36.305831" y2="-25.886250" stroke="rgb(0,0,255)" />
    <line id="AREA_A2_PEN_3_AREA_NIVEL_2" x1="-35.779348" y1="-25.886250" x2="-35.365089" y2="-25.886250" stroke="rgb(0,0,255)" />
    <line id="AREA_A2_PEN_3_AREA_NIVEL_2" x1="-37.820043" y1="-25.913750" x2="-37.665019" y2="-25.913750" stroke="rgb(0,0,255)" />
    <line id="AREA_A2_PEN_3_AREA_NIVEL_2" x1="-36.956875" y1="-25.913750" x2="-36.746282" y2="-25.913750" stroke="rgb(0,0,255)" />
    <line id="AREA_A2_PEN_3_AREA_NIVEL_2" x1="-36.182616" y1="-25.913750" x2="-36.072047" y2="-25.913750" stroke="rgb(0,0,255)" />
    <line id="AREA_A2_PEN_3_AREA_NIVEL_2" x1="-35.786225" y1="-25.913750" x2="-35.294084" y2="-25.913750" stroke="rgb(0,0,255)" />
    <line id="AREA_A2_PEN_3_AREA_NIVEL_2" x1="-37.819995" y1="-25.941250" x2="-37.672358" y2="-25.941250" stroke="rgb(0,0,255)" />
    <line id="AREA_A2_PEN_3_AREA_NIVEL_2" x1="-37.227122" y1="-25.941250" x2="-37.116540" y2="-25.941250" stroke="rgb(0,0,255)" />
    <line id="AREA_A2_PEN_3_AREA_NIVEL_2" x1="-35.863515" y1="-25.941250" x2="-35.578777" y2="-25.941250" stroke="rgb(0,0,255)" />
    <line id="AREA_A2_PEN_3_AREA_NIVEL_2" x1="-37.816490" y1="-25.968750" x2="-37.661538" y2="-25.968750" stroke="rgb(0,0,255)" />
    <line id="AREA_A2_PEN_3_AREA_NIVEL_2" x1="-36.705913" y1="-25.968750" x2="-36.565769" y2="-25.968750" stroke="rgb(0,0,255)" />
    <line id="AREA_A2_PEN_3_AREA_NIVEL_2" x1="-35.869279" y1="-25.968750" x2="-35.592163" y2="-25.968750" stroke="rgb(0,0,255)" />
    <line id="AREA_A2_PEN_3_AREA_NIVEL_2" x1="-37.812738" y1="-25.996250" x2="-37.665168" y2="-25.996250" stroke="rgb(0,0,255)" />
    <line id="AREA_A2_PEN_3_AREA_NIVEL_2" x1="-37.016637" y1="-25.996250" x2="-36.832039" y2="-25.996250" stroke="rgb(0,0,255)" />
    <line id="AREA_A2_PEN_3_AREA_NIVEL_2" x1="-36.364945" y1="-25.996250" x2="-36.250701" y2="-25.996250" stroke="rgb(0,0,255)" />
    <line id="AREA_A2_PEN_3_AREA_NIVEL_2" x1="-37.953427" y1="-26.023750" x2="-37.791021" y2="-26.023750" stroke="rgb(0,0,255)" />
    <line id="AREA_A2_PEN_3_AREA_NIVEL_2" x1="-37.005291" y1="-26.023750" x2="-36.853996" y2="-26.023750" stroke="rgb(0,0,255)" />
    <line id="AREA_A2_PEN_3_AREA_NIVEL_2" x1="-36.260857" y1="-26.023750" x2="-36.135487" y2="-26.023750" stroke="rgb(0,0,255)" />
    <line id="AREA_A2_PEN_3_AREA_NIVEL_2" x1="-35.757160" y1="-26.023750" x2="-35.579939" y2="-26.023750" stroke="rgb(0,0,255)" />
    <line id="AREA_A2_PEN_3_AREA_NIVEL_2" x1="-37.960819" y1="-26.051250" x2="-37.802093" y2="-26.051250" stroke="rgb(0,0,255)" />
    <line id="AREA_A2_PEN_3_AREA_NIVEL_2" x1="-36.975420" y1="-26.051250" x2="-36.857444" y2="-26.051250" stroke="rgb(0,0,255)" />
    <line id="AREA_A2_PEN_3_AREA_NIVEL_2" x1="-35.830728" y1="-26.051250" x2="-35.590503" y2="-26.051250" stroke="rgb(0,0,255)" />
    <line id="AREA_A2_PEN_3_AREA_NIVEL_2" x1="-35.282461" y1="-26.051250" x2="-35.071872" y2="-26.051250" stroke="rgb(0,0,255)" />
    <line id="AREA_A2_PEN_3_AREA_NIVEL_2" x1="-37.953393" y1="-26.078750" x2="-37.816875" y2="-26.078750" stroke="rgb(0,0,255)" />
    <line id="AREA_A2_PEN_3_AREA_NIVEL_2" x1="-37.141922" y1="-26.078750" x2="-36.805316" y2="-26.078750" stroke="rgb(0,0,255)" />
    <line id="AREA_A2_PEN_3_AREA_NIVEL_2" x1="-36.171121" y1="-26.078750" x2="-35.000812" y2="-26.078750" stroke="rgb(0,0,255)" />
    <line id="AREA_A2_PEN_3_AREA_NIVEL_2" x1="-37.934952" y1="-26.106250" x2="-37.817019" y2="-26.106250" stroke="rgb(0,0,255)" />
    <line id="AREA_A2_PEN_3_AREA_NIVEL_2" x1="-37.313029" y1="-26.106250" x2="-36.665721" y2="-26.106250" stroke="rgb(0,0,255)" />
    <line id="AREA_A2_PEN_3_AREA_NIVEL_2" x1="-36.224663" y1="-26.106250" x2="-35.010962" y2="-26.106250" stroke="rgb(0,0,255)" />
    <line id="AREA_A2_PEN_3_AREA_NIVEL_2" x1="-37.479490" y1="-26.133750" x2="-34.869580" y2="-26.133750" stroke="rgb(0,0,255)" />
    <line id="AREA_A2_PEN_3_AREA_NIVEL_2" x1="-37.468256" y1="-26.161250" x2="-34.828140" y2="-26.161250" stroke="rgb(0,0,255)" />
    <line id="AREA_A2_PEN_3_AREA_NIVEL_2" x1="-37.986751" y1="-26.188750" x2="-37.868776" y2="-26.188750" stroke="rgb(0,0,255)" />
    <line id="AREA_A2_PEN_3_AREA_NIVEL_2" x1="-37.505175" y1="-26.188750" x2="-35.631300" y2="-26.188750" stroke="rgb(0,0,255)" />
    <line id="AREA_A2_PEN_3_AREA_NIVEL_2" x1="-35.349197" y1="-26.188750" x2="-34.834848" y2="-26.188750" stroke="rgb(0,0,255)" />
    <line id="AREA_A2_PEN_3_AREA_NIVEL_2" x1="-37.738491" y1="-26.216250" x2="-36.783116" y2="-26.216250" stroke="rgb(0,0,255)" />
    <line id="AREA_A2_PEN_3_AREA_NIVEL_2" x1="-36.430539" y1="-26.216250" x2="-35.615963" y2="-26.216250" stroke="rgb(0,0,255)" />
    <line id="AREA_A2_PEN_3_AREA_NIVEL_2" x1="-35.337491" y1="-26.216250" x2="-34.841566" y2="-26.216250" stroke="rgb(0,0,255)" />
    <line id="AREA_A2_PEN_3_AREA_NIVEL_2" x1="-37.546250" y1="-26.243750" x2="-36.924856" y2="-26.243750" stroke="rgb(0,0,255)" />
    <line id="AREA_A2_PEN_3_AREA_NIVEL_2" x1="-36.343125" y1="-26.243750" x2="-35.288606" y2="-26.243750" stroke="rgb(0,0,255)" />
    <line id="AREA_A2_PEN_3_AREA_NIVEL_2" x1="-34.888269" y1="-26.243750" x2="-34.679375" y2="-26.243750" stroke="rgb(0,0,255)" />
    <line id="AREA_A2_PEN_3_AREA_NIVEL_2" x1="-37.553549" y1="-26.271250" x2="-37.061625" y2="-26.271250" stroke="rgb(0,0,255)" />
    <line id="AREA_A2_PEN_3_AREA_NIVEL_2" x1="-36.383482" y1="-26.271250" x2="-36.024857" y2="-26.271250" stroke="rgb(0,0,255)" />
    <line id="AREA_A2_PEN_3_AREA_NIVEL_2" x1="-35.676258" y1="-26.271250" x2="-35.313930" y2="-26.271250" stroke="rgb(0,0,255)" />
    <line id="AREA_A2_PEN_3_AREA_NIVEL_2" x1="-34.909790" y1="-26.271250" x2="-34.684463" y2="-26.271250" stroke="rgb(0,0,255)" />
    <line id="AREA_A2_PEN_3_AREA_NIVEL_2" x1="-37.490484" y1="-26.298750" x2="-37.346599" y2="-26.298750" stroke="rgb(0,0,255)" />
    <line id="AREA_A2_PEN_3_AREA_NIVEL_2" x1="-36.342382" y1="-26.298750" x2="-36.083687" y2="-26.298750" stroke="rgb(0,0,255)" />
    <line id="AREA_A2_PEN_3_AREA_NIVEL_2" x1="-35.660928" y1="-26.298750" x2="-35.154094" y2="-26.298750" stroke="rgb(0,0,255)" />
    <line id="AREA_A2_PEN_3_AREA_NIVEL_2" x1="-34.920217" y1="-26.298750" x2="-34.746703" y2="-26.298750" stroke="rgb(0,0,255)" />
    <line id="AREA_A2_PEN_3_AREA_NIVEL_2" x1="-36.645774" y1="-26.326250" x2="-36.535209" y2="-26.326250" stroke="rgb(0,0,255)" />
    <line id="AREA_A2_PEN_3_AREA_NIVEL_2" x1="-35.667824" y1="-26.326250" x2="-35.346110" y2="-26.326250" stroke="rgb(0,0,255)" />
    <line id="AREA_A2_PEN_3_AREA_NIVEL_2" x1="-34.919543" y1="-26.326250" x2="-34.760821" y2="-26.326250" stroke="rgb(0,0,255)" />
    <line id="AREA_A2_PEN_3_AREA_NIVEL_2" x1="-38.000000" y1="-26.353750" x2="-37.865051" y2="-26.353750" stroke="rgb(0,0,255)" />
    <line id="AREA_A2_PEN_3_AREA_NIVEL_2" x1="-37.375393" y1="-26.353750" x2="-37.253700" y2="-26.353750" stroke="rgb(0,0,255)" />
    <line id="AREA_A2_PEN_3_AREA_NIVEL_2" x1="-36.237911" y1="-26.353750" x2="-36.053231" y2="-26.353750" stroke="rgb(0,0,255)" />
    <line id="AREA_A2_PEN_3_AREA_NIVEL_2" x1="-35.589510" y1="-26.353750" x2="-35.375188" y2="-26.353750" stroke="rgb(0,0,255)" />
    <line id="AREA_A2_PEN_3_AREA_NIVEL_2" x1="-38.000000" y1="-26.381250" x2="-37.842792" y2="-26.381250" stroke="rgb(0,0,255)" />
    <line id="AREA_A2_PEN_3_AREA_NIVEL_2" x1="-37.360431" y1="-26.381250" x2="-37.209077" y2="-26.381250" stroke="rgb(0,0,255)" />
    <line id="AREA_A2_PEN_3_AREA_NIVEL_2" x1="-36.315357" y1="-26.381250" x2="-36.112119" y2="-26.381250" stroke="rgb(0,0,255)" />
    <line id="AREA_A2_PEN_3_AREA_NIVEL_2" x1="-35.299930" y1="-26.381250" x2="-35.144869" y2="-26.381250" stroke="rgb(0,0,255)" />
    <line id="AREA_A2_PEN_3_AREA_NIVEL_2" x1="-34.729215" y1="-26.381250" x2="-34.618626" y2="-26.381250" stroke="rgb(0,0,255)" />
    <line id="AREA_A2_PEN_3_AREA_NIVEL_2" x1="-38.000000" y1="-26.408750" x2="-36.991279" y2="-26.408750" stroke="rgb(0,0,255)" />
    <line id="AREA_A2_PEN_3_AREA_NIVEL_2" x1="-36.661196" y1="-26.408750" x2="-36.543250" y2="-26.408750" stroke="rgb(0,0,255)" />
    <line id="AREA_A2_PEN_3_AREA_NIVEL_2" x1="-36.102085" y1="-26.408750" x2="-35.932301" y2="-26.408750" stroke="rgb(0,0,255)" />
    <line id="AREA_A2_PEN_3_AREA_NIVEL_2" x1="-35.672570" y1="-26.408750" x2="-35.532407" y2="-26.408750" stroke="rgb(0,0,255)" />
    <line id="AREA_A2_PEN_3_AREA_NIVEL_2" x1="-35.280081" y1="-26.408750" x2="-35.147324" y2="-26.408750" stroke="rgb(0,0,255)" />
    <line id="AREA_A2_PEN_3_AREA_NIVEL_2" x1="-37.994168" y1="-26.436250" x2="-37.865098" y2="-26.436250" stroke="rgb(0,0,255)" />
    <line id="AREA_A2_PEN_3_AREA_NIVEL_2" x1="-37.427531" y1="-26.436250" x2="-35.331897" y2="-26.436250" stroke="rgb(0,0,255)" />
    <line id="AREA_A2_PEN_3_AREA_NIVEL_2" x1="-34.753597" y1="-26.436250" x2="-34.544625" y2="-26.436250" stroke="rgb(0,0,255)" />
    <line id="AREA_A2_PEN_3_AREA_NIVEL_2" x1="-37.908963" y1="-26.463750" x2="-37.757651" y2="-26.463750" stroke="rgb(0,0,255)" />
    <line id="AREA_A2_PEN_3_AREA_NIVEL_2" x1="-37.408883" y1="-26.463750" x2="-37.253868" y2="-26.463750" stroke="rgb(0,0,255)" />
    <line id="AREA_A2_PEN_3_AREA_NIVEL_2" x1="-34.734385" y1="-26.463750" x2="-34.553439" y2="-26.463750" stroke="rgb(0,0,255)" />
  </g>
</svg>
