<?xml version="1.0" encoding="UTF-8"?>
<svg xmlns="http://www.w3.org/2000/svg"
     width="3.877590mm" height="3.100000mm"
     viewBox="-34.419833 -26.660529 3.877590 3.100000">
  <g fill="none" stroke-width="0.02" stroke-linecap="round">
    <line id="AREA_A1_PEN_1_AREA_NIVEL_2" x1="-32.268651" y1="-24.560529" x2="-32.091595" y2="-24.560529" stroke="rgb(255,0,0)" />
    <line id="AREA_A1_PEN_1_AREA_NIVEL_2" x1="-32.606258" y1="-24.588029" x2="-32.136605" y2="-24.588029" stroke="rgb(255,0,0)" />
    <line id="AREA_A1_PEN_1_AREA_NIVEL_2" x1="-32.599439" y1="-24.615529" x2="-32.136968" y2="-24.615529" stroke="rgb(255,0,0)" />
    <line id="AREA_A1_PEN_1_AREA_NIVEL_2" x1="-32.723721" y1="-24.643029" x2="-32.524465" y2="-24.643029" stroke="rgb(255,0,0)" />
    <line id="AREA_A1_PEN_1_AREA_NIVEL_2" x1="-32.979735" y1="-24.670529" x2="-32.865520" y2="-24.670529" stroke="rgb(255,0,0)" />
    <line id="AREA_A1_PEN_1_AREA_NIVEL_2" x1="-31.988148" y1="-24.698029" x2="-31.877604" y2="-24.698029" stroke="rgb(255,0,0)" />
    <line id="AREA_A1_PEN_1_AREA_NIVEL_2" x1="-32.733089" y1="-24.725529" x2="-32.618810" y2="-24.725529" stroke="rgb(255,0,0)" />
    <line id="AREA_A1_PEN_1_AREA_NIVEL_2" x1="-32.151416" y1="-24.725529" x2="-31.542243" y2="-24.725529" stroke="rgb(255,0,0)" />
    <line id="AREA_A1_PEN_1_AREA_NIVEL_2" x1="-32.013709" y1="-24.753029" x2="-31.542266" y2="-24.753029" stroke="rgb(255,0,0)" />
    <line id="AREA_A1_PEN_1_AREA_NIVEL_2" x1="-32.850522" y1="-24.780529" x2="-32.673371" y2="-24.780529" stroke="rgb(255,0,0)" />
    <line id="AREA_A1_PEN_1_AREA_NIVEL_2" x1="-32.439651" y1="-24.780529" x2="-31.542290" y2="-24.780529" stroke="rgb(255,0,0)" />
    <line id="AREA_A1_PEN_1_AREA_NIVEL_2" x1="-32.732728" y1="-24.808029" x2="-31.542313" y2="-24.808029" stroke="rgb(255,0,0)" />
    <line id="AREA_A1_PEN_1_AREA_NIVEL_2" x1="-32.759323" y1="-24.835529" x2="-31.933566" y2="-24.835529" stroke="rgb(255,0,0)" />
    <line id="AREA_A1_PEN_1_AREA_NIVEL_2" x1="-32.620710" y1="-24.863029" x2="-31.955181" y2="-24.863029" stroke="rgb(255,0,0)" />
    <line id="AREA_A1_PEN_1_AREA_NIVEL_2" x1="-32.502834" y1="-24.890529" x2="-31.955444" y2="-24.890529" stroke="rgb(255,0,0)" />
    <line id="AREA_A1_PEN_1_AREA_NIVEL_2" x1="-33.155302" y1="-24.918029" x2="-33.041034" y2="-24.918029" stroke="rgb(255,0,0)" />
    <line id="AREA_A1_PEN_1_AREA_NIVEL_2" x1="-32.532997" y1="-24.918029" x2="-31.955706" y2="-24.918029" stroke="rgb(255,0,0)" />
    <line id="AREA_A1_PEN_1_AREA_NIVEL_2" x1="-31.673625" y1="-24.918029" x2="-31.542408" y2="-24.918029" stroke="rgb(255,0,0)" />
    <line id="AREA_A1_PEN_1_AREA_NIVEL_2" x1="-32.875614" y1="-24.945529" x2="-32.410045" y2="-24.945529" stroke="rgb(255,0,0)" />
    <line id="AREA_A1_PEN_1_AREA_NIVEL_2" x1="-32.113657" y1="-24.945529" x2="-31.925500" y2="-24.945529" stroke="rgb(255,0,0)" />
    <line id="AREA_A1_PEN_1_AREA_NIVEL_2" x1="-31.703088" y1="-24.945529" x2="-31.542431" y2="-24.945529" stroke="rgb(255,0,0)" />
    <line id="AREA_A1_PEN_1_AREA_NIVEL_2" x1="-33.190915" y1="-24.973029" x2="-33.073001" y2="-24.973029" stroke="rgb(255,0,0)" />
    <line id="AREA_A1_PEN_1_AREA_NIVEL_2" x1="-32.217598" y1="-24.973029" x2="-31.542455" y2="-24.973029" stroke="rgb(255,0,0)" />
    <line id="AREA_A1_PEN_1_AREA_NIVEL_2" x1="-33.217736" y1="-25.000529" x2="-32.947972" y2="-25.000529" stroke="rgb(255,0,0)" />
    <line id="AREA_A1_PEN_1_AREA_NIVEL_2" x1="-32.258704" y1="-25.000529" x2="-31.903775" y2="-25.000529" stroke="rgb(255,0,0)" />
    <line id="AREA_A1_PEN_1_AREA_NIVEL_2" x1="-31.651440" y1="-25.000529" x2="-31.542478" y2="-25.000529" stroke="rgb(255,0,0)" />
    <line id="AREA_A1_PEN_1_AREA_NIVEL_2" x1="-33.189013" y1="-25.028029" x2="-32.959886" y2="-25.028029" stroke="rgb(255,0,0)" />
    <line id="AREA_A1_PEN_1_AREA_NIVEL_2" x1="-32.270215" y1="-25.028029" x2="-31.870665" y2="-25.028029" stroke="rgb(255,0,0)" />
    <line id="AREA_A1_PEN_1_AREA_NIVEL_2" x1="-33.168194" y1="-25.055529" x2="-32.946718" y2="-25.055529" stroke="rgb(255,0,0)" />
    <line id="AREA_A1_PEN_1_AREA_NIVEL_2" x1="-32.165639" y1="-25.055529" x2="-31.910868" y2="-25.055529" stroke="rgb(255,0,0)" />
    <line id="AREA_A1_PEN_1_AREA_NIVEL_2" x1="-33.176485" y1="-25.083029" x2="-32.980829" y2="-25.083029" stroke="rgb(255,0,0)" />
    <line id="AREA_A1_PEN_1_AREA_NIVEL_2" x1="-32.073448" y1="-25.083029" x2="-31.851882" y2="-25.083029" stroke="rgb(255,0,0)" />
    <line id="AREA_A1_PEN_1_AREA_NIVEL_2" x1="-33.166266" y1="-25.110529" x2="-33.003866" y2="-25.110529" stroke="rgb(255,0,0)" />
    <line id="AREA_A1_PEN_1_AREA_NIVEL_2" x1="-32.555194" y1="-25.110529" x2="-32.433532" y2="-25.110529" stroke="rgb(255,0,0)" />
    <line id="AREA_A1_PEN_1_AREA_NIVEL_2" x1="-32.007081" y1="-25.110529" x2="-31.870605" y2="-25.110529" stroke="rgb(255,0,0)" />
    <line id="AREA_A1_PEN_1_AREA_NIVEL_2" x1="-32.789194" y1="-25.138029" x2="-32.337709" y2="-25.138029" stroke="rgb(255,0,0)" />
    <line id="AREA_A1_PEN_1_AREA_NIVEL_2" x1="-32.014752" y1="-25.138029" x2="-31.859704" y2="-25.138029" stroke="rgb(255,0,0)" />
    <line id="AREA_A1_PEN_1_AREA_NIVEL_2" x1="-32.495147" y1="-25.165529" x2="-32.351344" y2="-25.165529" stroke="rgb(255,0,0)" />
    <line id="AREA_A1_PEN_1_AREA_NIVEL_2" x1="-31.977132" y1="-25.165529" x2="-31.829629" y2="-25.165529" stroke="rgb(255,0,0)" />
    <line id="AREA_A1_PEN_1_AREA_NIVEL_2" x1="-32.429032" y1="-25.193029" x2="-32.200033" y2="-25.193029" stroke="rgb(255,0,0)" />
    <line id="AREA_A1_PEN_1_AREA_NIVEL_2" x1="-32.414702" y1="-25.220529" x2="-32.244875" y2="-25.220529" stroke="rgb(255,0,0)" />
    <line id="AREA_A1_PEN_1_AREA_NIVEL_2" x1="-32.713107" y1="-25.248029" x2="-32.221653" y2="-25.248029" stroke="rgb(255,0,0)" />
    <line id="AREA_A1_PEN_1_AREA_NIVEL_2" x1="-32.843273" y1="-25.275529" x2="-32.270167" y2="-25.275529" stroke="rgb(255,0,0)" />
    <line id="AREA_A1_PEN_1_AREA_NIVEL_2" x1="-32.010603" y1="-25.275529" x2="-31.840880" y2="-25.275529" stroke="rgb(255,0,0)" />
    <line id="AREA_A1_PEN_1_AREA_NIVEL_2" x1="-32.692169" y1="-25.303029" x2="-32.570520" y2="-25.303029" stroke="rgb(255,0,0)" />
    <line id="AREA_A1_PEN_1_AREA_NIVEL_2" x1="-32.255245" y1="-25.303029" x2="-31.970675" y2="-25.303029" stroke="rgb(255,0,0)" />
    <line id="AREA_A1_PEN_1_AREA_NIVEL_2" x1="-32.277866" y1="-25.330529" x2="-32.059857" y2="-25.330529" stroke="rgb(255,0,0)" />
    <line id="AREA_A1_PEN_1_AREA_NIVEL_2" x1="-31.840341" y1="-25.358029" x2="-31.707653" y2="-25.358029" stroke="rgb(255,0,0)" />
    <line id="AREA_A1_PEN_1_AREA_NIVEL_2" x1="-33.417773" y1="-25.440529" x2="-33.327282" y2="-25.440529" stroke="rgb(255,0,0)" />
    <line id="AREA_A1_PEN_1_AREA_NIVEL_2" x1="-31.737096" y1="-25.440529" x2="-31.542854" y2="-25.440529" stroke="rgb(255,0,0)" />
    <line id="AREA_A1_PEN_1_AREA_NIVEL_2" x1="-33.418803" y1="-25.468029" x2="-33.198900" y2="-25.468029" stroke="rgb(255,0,0)" />
    <line id="AREA_A1_PEN_1_AREA_NIVEL_2" x1="-31.722080" y1="-25.468029" x2="-31.542878" y2="-25.468029" stroke="rgb(255,0,0)" />
    <line id="AREA_A1_PEN_1_AREA_NIVEL_2" x1="-33.419833" y1="-25.495529" x2="-33.203529" y2="-25.495529" stroke="rgb(255,0,0)" />
    <line id="AREA_A1_PEN_1_AREA_NIVEL_2" x1="-31.725887" y1="-25.495529" x2="-31.542901" y2="-25.495529" stroke="rgb(255,0,0)" />
    <line id="AREA_A1_PEN_1_AREA_NIVEL_2" x1="-33.344650" y1="-25.523029" x2="-33.219274" y2="-25.523029" stroke="rgb(255,0,0)" />
    <line id="AREA_A1_PEN_1_AREA_NIVEL_2" x1="-31.685250" y1="-25.523029" x2="-31.556169" y2="-25.523029" stroke="rgb(255,0,0)" />
    <line id="AREA_A1_PEN_1_AREA_NIVEL_2" x1="-33.345828" y1="-25.550529" x2="-33.227950" y2="-25.550529" stroke="rgb(255,0,0)" />
    <line id="AREA_A1_PEN_1_AREA_NIVEL_2" x1="-32.262501" y1="-25.578029" x2="-32.107582" y2="-25.578029" stroke="rgb(255,0,0)" />
    <line id="AREA_A1_PEN_1_AREA_NIVEL_2" x1="-31.777711" y1="-25.578029" x2="-31.611690" y2="-25.578029" stroke="rgb(255,0,0)" />
    <line id="AREA_A1_PEN_1_AREA_NIVEL_2" x1="-32.610946" y1="-25.605529" x2="-32.470784" y2="-25.605529" stroke="rgb(255,0,0)" />
    <line id="AREA_A1_PEN_1_AREA_NIVEL_2" x1="-32.248084" y1="-25.605529" x2="-32.133841" y2="-25.605529" stroke="rgb(255,0,0)" />
    <line id="AREA_A1_PEN_1_AREA_NIVEL_2" x1="-31.781548" y1="-25.605529" x2="-31.648792" y2="-25.605529" stroke="rgb(255,0,0)" />
    <line id="AREA_A1_PEN_1_AREA_NIVEL_2" x1="-32.637375" y1="-25.633029" x2="-32.471245" y2="-25.633029" stroke="rgb(255,0,0)" />
    <line id="AREA_A1_PEN_1_AREA_NIVEL_2" x1="-31.792781" y1="-25.633029" x2="-31.652580" y2="-25.633029" stroke="rgb(255,0,0)" />
    <line id="AREA_A1_PEN_1_AREA_NIVEL_2" x1="-32.637431" y1="-25.660529" x2="-32.475001" y2="-25.660529" stroke="rgb(255,0,0)" />
  </g>
</svg>
