0
SECTION
2
HEADER
9
$INSUNITS
70
4
0
ENDSEC
0
SECTION
2
TABLES
0
TABLE
2
LAYER
70
3
0
LAYER
2
AREA_A1_PEN_6_AREA_NIVEL_2
70
0
62
5
6
CONTINUOUS
0
LAYER
2
AREA_A1_PEN_5_AREA_NIVEL_3
70
0
62
30
6
CONTINUOUS
0
LAYER
2
AREA_A1_PEN_2_AREA_NIVEL_4
70
0
62
6
6
CONTINUOUS
0
ENDTAB
0
ENDSEC
0
SECTION
2
ENTITIES
0
LINE
8
AREA_A1_PEN_6_AREA_NIVEL_2
62
5
10
-33.814284
20
31.892997
30
0
11
-33.758892
21
31.892997
31
0
0
LINE
8
AREA_A1_PEN_6_AREA_NIVEL_2
62
5
10
-33.541014
20
31.892997
30
0
11
-33.485622
21
31.892997
31
0
0
LINE
8
AREA_A1_PEN_6_AREA_NIVEL_2
62
5
10
-33.409642
20
31.947997
30
0
11
-33.354081
21
31.947997
31
0
0
LINE
8
AREA_A1_PEN_5_AREA_NIVEL_3
62
30
10
-33.983892
20
32.085497
30
0
11
-33.920907
21
32.085497
31
0
0
LINE
8
AREA_A1_PEN_2_AREA_NIVEL_4
62
6
10
-34.050784
20
32.112997
30
0
11
-33.995331
21
32.112997
31
0
0
LINE
8
AREA_A1_PEN_5_AREA_NIVEL_3
62
30
10
-34.013668
20
32.140497
30
0
11
-33.950724
21
32.140497
31
0
0
LINE
8
AREA_A1_PEN_6_AREA_NIVEL_2
62
5
10
-33.773813
20
32.167997
30
0
11
-33.681452
21
32.167997
31
0
0
LINE
8
AREA_A1_PEN_5_AREA_NIVEL_3
62
30
10
-33.396981
20
32.167997
30
0
11
-33.315703
21
32.167997
31
0
0
LINE
8
AREA_A1_PEN_5_AREA_NIVEL_3
62
30
10
-33.403275
20
32.195497
30
0
11
-33.307070
21
32.195497
31
0
0
LINE
8
AREA_A1_PEN_5_AREA_NIVEL_3
62
30
10
-33.376230
20
32.222997
30
0
11
-33.305817
21
32.222997
31
0
0
LINE
8
AREA_A1_PEN_6_AREA_NIVEL_2
62
5
10
-33.769890
20
32.250497
30
0
11
-33.695936
21
32.250497
31
0
0
LINE
8
AREA_A1_PEN_5_AREA_NIVEL_3
62
30
10
-33.658959
20
32.250497
30
0
11
-33.599795
21
32.250497
31
0
0
LINE
8
AREA_A1_PEN_6_AREA_NIVEL_2
62
5
10
-33.743434
20
32.277997
30
0
11
-33.632328
21
32.277997
31
0
0
LINE
8
AREA_A1_PEN_5_AREA_NIVEL_3
62
30
10
-33.628625
20
32.277997
30
0
11
-33.565665
21
32.277997
31
0
0
LINE
8
AREA_A1_PEN_6_AREA_NIVEL_2
62
5
10
-34.076897
20
32.305497
30
0
11
-34.021468
21
32.305497
31
0
0
LINE
8
AREA_A1_PEN_6_AREA_NIVEL_2
62
5
10
-34.102754
20
32.332997
30
0
11
-34.028732
21
32.332997
31
0
0
LINE
8
AREA_A1_PEN_6_AREA_NIVEL_2
62
5
10
-33.817771
20
32.332997
30
0
11
-33.762255
21
32.332997
31
0
0
LINE
8
AREA_A1_PEN_5_AREA_NIVEL_3
62
30
10
-33.758554
20
32.332997
30
0
11
-33.703038
21
32.332997
31
0
0
LINE
8
AREA_A1_PEN_2_AREA_NIVEL_4
62
6
10
-33.699337
20
32.332997
30
0
11
-33.595707
21
32.332997
31
0
0
LINE
8
AREA_A1_PEN_2_AREA_NIVEL_4
62
6
10
-33.692944
20
32.360497
30
0
11
-33.600624
21
32.360497
31
0
0
LINE
8
AREA_A1_PEN_6_AREA_NIVEL_2
62
5
10
-33.958587
20
32.387997
30
0
11
-33.903107
21
32.387997
31
0
0
LINE
8
AREA_A1_PEN_2_AREA_NIVEL_4
62
6
10
-33.684890
20
32.387997
30
0
11
-33.596124
21
32.387997
31
0
0
LINE
8
AREA_A1_PEN_6_AREA_NIVEL_2
62
5
10
-33.643467
20
32.415497
30
0
11
-33.580491
21
32.415497
31
0
0
LINE
8
AREA_A1_PEN_6_AREA_NIVEL_2
62
5
10
-33.300187
20
32.525497
30
0
11
-33.229897
21
32.525497
31
0
0
LINE
8
AREA_A1_PEN_6_AREA_NIVEL_2
62
5
10
-33.291477
20
32.552997
30
0
11
-33.224779
21
32.552997
31
0
0
LINE
8
AREA_A1_PEN_5_AREA_NIVEL_3
62
30
10
-33.670510
20
32.580497
30
0
11
-33.530025
21
32.580497
31
0
0
LINE
8
AREA_A1_PEN_5_AREA_NIVEL_3
62
30
10
-33.308206
20
32.580497
30
0
11
-33.237963
21
32.580497
31
0
0
LINE
8
AREA_A1_PEN_5_AREA_NIVEL_3
62
30
10
-33.599446
20
32.607997
30
0
11
-33.543902
21
32.607997
31
0
0
LINE
8
AREA_A1_PEN_5_AREA_NIVEL_3
62
30
10
-33.418003
20
32.607997
30
0
11
-33.362459
21
32.607997
31
0
0
LINE
8
AREA_A1_PEN_6_AREA_NIVEL_2
62
5
10
-33.292103
20
32.607997
30
0
11
-33.181015
21
32.607997
31
0
0
LINE
8
AREA_A1_PEN_5_AREA_NIVEL_3
62
30
10
-33.645024
20
32.635497
30
0
11
-33.567441
21
32.635497
31
0
0
LINE
8
AREA_A1_PEN_6_AREA_NIVEL_2
62
5
10
-33.563746
20
32.635497
30
0
11
-33.493552
21
32.635497
31
0
0
LINE
8
AREA_A1_PEN_6_AREA_NIVEL_2
62
5
10
-33.478774
20
32.635497
30
0
11
-33.423357
21
32.635497
31
0
0
LINE
8
AREA_A1_PEN_5_AREA_NIVEL_3
62
30
10
-33.419663
20
32.635497
30
0
11
-33.338385
21
32.635497
31
0
0
LINE
8
AREA_A1_PEN_6_AREA_NIVEL_2
62
5
10
-33.246024
20
32.635497
30
0
11
-33.183219
21
32.635497
31
0
0
LINE
8
AREA_A1_PEN_6_AREA_NIVEL_2
62
5
10
-33.818192
20
32.662997
30
0
11
-33.762686
21
32.662997
31
0
0
LINE
8
AREA_A1_PEN_5_AREA_NIVEL_3
62
30
10
-33.599868
20
32.662997
30
0
11
-33.540661
21
32.662997
31
0
0
LINE
8
AREA_A1_PEN_5_AREA_NIVEL_3
62
30
10
-33.511058
20
32.662997
30
0
11
-33.414847
21
32.662997
31
0
0
LINE
8
AREA_A1_PEN_5_AREA_NIVEL_3
62
30
10
-33.486668
20
32.690497
30
0
11
-33.427598
21
32.690497
31
0
0
LINE
8
AREA_A1_PEN_5_AREA_NIVEL_3
62
30
10
-34.021849
20
32.717997
30
0
11
-33.925704
21
32.717997
31
0
0
LINE
8
AREA_A1_PEN_6_AREA_NIVEL_2
62
5
10
-33.922006
20
32.717997
30
0
11
-33.859143
21
32.717997
31
0
0
LINE
8
AREA_A1_PEN_5_AREA_NIVEL_3
62
30
10
-33.659458
20
32.717997
30
0
11
-33.548522
21
32.717997
31
0
0
LINE
8
AREA_A1_PEN_6_AREA_NIVEL_2
62
5
10
-33.507845
20
32.717997
30
0
11
-33.426492
21
32.717997
31
0
0
LINE
8
AREA_A1_PEN_6_AREA_NIVEL_2
62
5
10
-33.400607
20
32.717997
30
0
11
-33.326650
21
32.717997
31
0
0
LINE
8
AREA_A1_PEN_5_AREA_NIVEL_3
62
30
10
-33.532791
20
32.745497
30
0
11
-33.477232
21
32.745497
31
0
0
LINE
8
AREA_A1_PEN_5_AREA_NIVEL_3
62
30
10
-34.099585
20
32.772997
30
0
11
-34.010898
21
32.772997
31
0
0
LINE
8
AREA_A1_PEN_5_AREA_NIVEL_3
62
30
10
-33.545290
20
32.772997
30
0
11
-33.475079
21
32.772997
31
0
0
LINE
8
AREA_A1_PEN_6_AREA_NIVEL_2
62
5
10
-33.708238
20
32.827997
30
0
11
-33.645462
21
32.827997
31
0
0
LINE
8
AREA_A1_PEN_5_AREA_NIVEL_3
62
30
10
-33.670591
20
32.855497
30
0
11
-33.548531
21
32.855497
31
0
0
LINE
8
AREA_A1_PEN_6_AREA_NIVEL_2
62
5
10
-33.485652
20
32.855497
30
0
11
-33.411677
21
32.855497
31
0
0
LINE
8
AREA_A1_PEN_2_AREA_NIVEL_4
62
6
10
-33.706913
20
32.882997
30
0
11
-33.629111
21
32.882997
31
0
0
LINE
8
AREA_A1_PEN_5_AREA_NIVEL_3
62
30
10
-33.625406
20
32.882997
30
0
11
-33.566128
21
32.882997
31
0
0
ENDSEC
0
EOF
