<?xml version="1.0" encoding="UTF-8"?>
<svg xmlns="http://www.w3.org/2000/svg"
     width="2.921739mm" height="2.990000mm"
     viewBox="-35.102754 -33.882997 2.921739 2.990000">
  <g fill="none" stroke-width="0.02" stroke-linecap="round">
    <line id="AREA_A1_PEN_6_AREA_NIVEL_2" x1="-33.814284" y1="-31.892997" x2="-33.758892" y2="-31.892997" stroke="rgb(0,170,170)" />
    <line id="AREA_A1_PEN_6_AREA_NIVEL_2" x1="-33.541014" y1="-31.892997" x2="-33.485622" y2="-31.892997" stroke="rgb(0,170,170)" />
    <line id="AREA_A1_PEN_6_AREA_NIVEL_2" x1="-33.409642" y1="-31.947997" x2="-33.354081" y2="-31.947997" stroke="rgb(0,170,170)" />
    <line id="AREA_A1_PEN_5_AREA_NIVEL_3" x1="-33.983892" y1="-32.085497" x2="-33.920907" y2="-32.085497" stroke="rgb(255,170,0)" />
    <line id="AREA_A1_PEN_2_AREA_NIVEL_4" x1="-34.050784" y1="-32.112997" x2="-33.995331" y2="-32.112997" stroke="rgb(0,255,0)" />
    <line id="AREA_A1_PEN_5_AREA_NIVEL_3" x1="-34.013668" y1="-32.140497" x2="-33.950724" y2="-32.140497" stroke="rgb(255,170,0)" />
    <line id="AREA_A1_PEN_6_AREA_NIVEL_2" x1="-33.773813" y1="-32.167997" x2="-33.681452" y2="-32.167997" stroke="rgb(0,170,170)" />
    <line id="AREA_A1_PEN_5_AREA_NIVEL_3" x1="-33.396981" y1="-32.167997" x2="-33.315703" y2="-32.167997" stroke="rgb(255,170,0)" />
    <line id="AREA_A1_PEN_5_AREA_NIVEL_3" x1="-33.403275" y1="-32.195497" x2="-33.307070" y2="-32.195497" stroke="rgb(255,170,0)" />
    <line id="AREA_A1_PEN_5_AREA_NIVEL_3" x1="-33.376230" y1="-32.222997" x2="-33.305817" y2="-32.222997" stroke="rgb(255,170,0)" />
    <line id="AREA_A1_PEN_6_AREA_NIVEL_2" x1="-33.769890" y1="-32.250497" x2="-33.695936" y2="-32.250497" stroke="rgb(0,170,170)" />
    <line id="AREA_A1_PEN_5_AREA_NIVEL_3" x1="-33.658959" y1="-32.250497" x2="-33.599795" y2="-32.250497" stroke="rgb(255,170,0)" />
    <line id="AREA_A1_PEN_6_AREA_NIVEL_2" x1="-33.743434" y1="-32.277997" x2="-33.632328" y2="-32.277997" stroke="rgb(0,170,170)" />
    <line id="AREA_A1_PEN_5_AREA_NIVEL_3" x1="-33.628625" y1="-32.277997" x2="-33.565665" y2="-32.277997" stroke="rgb(255,170,0)" />
    <line id="AREA_A1_PEN_6_AREA_NIVEL_2" x1="-34.076897" y1="-32.305497" x2="-34.021468" y2="-32.305497" stroke="rgb(0,170,170)" />
    <line id="AREA_A1_PEN_6_AREA_NIVEL_2" x1="-34.102754" y1="-32.332997" x2="-34.028732" y2="-32.332997" stroke="rgb(0,170,170)" />
    <line id="AREA_A1_PEN_6_AREA_NIVEL_2" x1="-33.817771" y1="-32.332997" x2="-33.762255" y2="-32.332997" stroke="rgb(0,170,170)" />
    <line id="AREA_A1_PEN_5_AREA_NIVEL_3" x1="-33.758554" y1="-32.332997" x2="-33.703038" y2="-32.332997" stroke="rgb(255,170,0)" />
    <line id="AREA_A1_PEN_2_AREA_NIVEL_4" x1="-33.699337" y1="-32.332997" x2="-33.595707" y2="-32.332997" stroke="rgb(0,255,0)" />
    <line id="AREA_A1_PEN_2_AREA_NIVEL_4" x1="-33.692944" y1="-32.360497" x2="-33.600624" y2="-32.360497" stroke="rgb(0,255,0)" />
    <line id="AREA_A1_PEN_6_AREA_NIVEL_2" x1="-33.958587" y1="-32.387997" x2="-33.903107" y2="-32.387997" stroke="rgb(0,170,170)" />
    <line id="AREA_A1_PEN_2_AREA_NIVEL_4" x1="-33.684890" y1="-32.387997" x2="-33.596124" y2="-32.387997" stroke="rgb(0,255,0)" />
    <line id="AREA_A1_PEN_6_AREA_NIVEL_2" x1="-33.643467" y1="-32.415497" x2="-33.580491" y2="-32.415497" stroke="rgb(0,170,170)" />
    <line id="AREA_A1_PEN_6_AREA_NIVEL_2" x1="-33.300187" y1="-32.525497" x2="-33.229897" y2="-32.525497" stroke="rgb(0,170,170)" />
    <line id="AREA_A1_PEN_6_AREA_NIVEL_2" x1="-33.291477" y1="-32.552997" x2="-33.224779" y2="-32.552997" stroke="rgb(0,170,170)" />
    <line id="AREA_A1_PEN_5_AREA_NIVEL_3" x1="-33.670510" y1="-32.580497" x2="-33.530025" y2="-32.580497" stroke="rgb(255,170,0)" />
    <line id="AREA_A1_PEN_5_AREA_NIVEL_3" x1="-33.308206" y1="-32.580497" x2="-33.237963" y2="-32.580497" stroke="rgb(255,170,0)" />
    <line id="AREA_A1_PEN_5_AREA_NIVEL_3" x1="-33.599446" y1="-32.607997" x2="-33.543902" y2="-32.607997" stroke="rgb(255,170,0)" />
    <line id="AREA_A1_PEN_5_AREA_NIVEL_3" x1="-33.418003" y1="-32.607997" x2="-33.362459" y2="-32.607997" stroke="rgb(255,170,0)" />
    <line id="AREA_A1_PEN_6_AREA_NIVEL_2" x1="-33.292103" y1="-32.607997" x2="-33.181015" y2="-32.607997" stroke="rgb(0,170,170)" />
    <line id="AREA_A1_PEN_5_AREA_NIVEL_3" x1="-33.645024" y1="-32.635497" x2="-33.567441" y2="-32.635497" stroke="rgb(255,170,0)" />
    <line id="AREA_A1_PEN_6_AREA_NIVEL_2" x1="-33.563746" y1="-32.635497" x2="-33.493552" y2="-32.635497" stroke="rgb(0,170,170)" />
    <line id="AREA_A1_PEN_6_AREA_NIVEL_2" x1="-33.478774" y1="-32.635497" x2="-33.423357" y2="-32.635497" stroke="rgb(0,170,170)" />
    <line id="AREA_A1_PEN_5_AREA_NIVEL_3" x1="-33.419663" y1="-32.635497" x2="-33.338385" y2="-32.635497" stroke="rgb(255,170,0)" />
    <line id="AREA_A1_PEN_6_AREA_NIVEL_2" x1="-33.246024" y1="-32.635497" x2="-33.183219" y2="-32.635497" stroke="rgb(0,170,170)" />
    <line id="AREA_A1_PEN_6_AREA_NIVEL_2" x1="-33.818192" y1="-32.662997" x2="-33.762686" y2="-32.662997" stroke="rgb(0,170,170)" />
    <line id="AREA_A1_PEN_5_AREA_NIVEL_3" x1="-33.599868" y1="-32.662997" x2="-33.540661" y2="-32.662997" stroke="rgb(255,170,0)" />
    <line id="AREA_A1_PEN_5_AREA_NIVEL_3" x1="-33.511058" y1="-32.662997" x2="-33.414847" y2="-32.662997" stroke="rgb(255,170,0)" />
    <line id="AREA_A1_PEN_5_AREA_NIVEL_3" x1="-33.486668" y1="-32.690497" x2="-33.427598" y2="-32.690497" stroke="rgb(255,170,0)" />
    <line id="AREA_A1_PEN_5_AREA_NIVEL_3" x1="-34.021849" y1="-32.717997" x2="-33.925704" y2="-32.717997" stroke="rgb(255,170,0)" />
    <line id="AREA_A1_PEN_6_AREA_NIVEL_2" x1="-33.922006" y1="-32.717997" x2="-33.859143" y2="-32.717997" stroke="rgb(0,170,170)" />
    <line id="AREA_A1_PEN_5_AREA_NIVEL_3" x1="-33.659458" y1="-32.717997" x2="-33.548522" y2="-32.717997" stroke="rgb(255,170,0)" />
    <line id="AREA_A1_PEN_6_AREA_NIVEL_2" x1="-33.507845" y1="-32.717997" x2="-33.426492" y2="-32.717997" stroke="rgb(0,170,170)" />
    <line id="AREA_A1_PEN_6_AREA_NIVEL_2" x1="-33.400607" y1="-32.717997" x2="-33.326650" y2="-32.717997" stroke="rgb(0,170,170)" />
    <line id="AREA_A1_PEN_5_AREA_NIVEL_3" x1="-33.532791" y1="-32.745497" x2="-33.477232" y2="-32.745497" stroke="rgb(255,170,0)" />
    <line id="AREA_A1_PEN_5_AREA_NIVEL_3" x1="-34.099585" y1="-32.772997" x2="-34.010898" y2="-32.772997" stroke="rgb(255,170,0)" />
    <line id="AREA_A1_PEN_5_AREA_NIVEL_3" x1="-33.545290" y1="-32.772997" x2="-33.475079" y2="-32.772997" stroke="rgb(255,170,0)" />
    <line id="AREA_A1_PEN_6_AREA_NIVEL_2" x1="-33.708238" y1="-32.827997" x2="-33.645462" y2="-32.827997" stroke="rgb(0,170,170)" />
    <line id="AREA_A1_PEN_5_AREA_NIVEL_3" x1="-33.670591" y1="-32.855497" x2="-33.548531" y2="-32.855497" stroke="rgb(255,170,0)" />
    <line id="AREA_A1_PEN_6_AREA_NIVEL_2" x1="-33.485652" y1="-32.855497" x2="-33.411677" y2="-32.855497" stroke="rgb(0,170,170)" />
    <line id="AREA_A1_PEN_2_AREA_NIVEL_4" x1="-33.706913" y1="-32.882997" x2="-33.629111" y2="-32.882997" stroke="rgb(0,255,0)" />
    <line id="AREA_A1_PEN_5_AREA_NIVEL_3" x1="-33.625406" y1="-32.882997" x2="-33.566128" y2="-32.882997" stroke="rgb(255,170,0)" />
  </g>
</svg>
