<?xml version="1.0" encoding="UTF-8"?>
<svg xmlns="http://www.w3.org/2000/svg"
     width="3.630105mm" height="5.777191mm"
     viewBox="-53.131559 -17.509471 3.630105 5.777191">
  <g fill="none" stroke-width="0.02" stroke-linecap="round">
    <line id="PEN_9_NIVEL_4" x1="-51.881559" y1="-12.982280" x2="-51.850409" y2="-13.061893" stroke="rgb(0,170,0)" />
    <line id="PEN_8_NIVEL_3" x1="-51.849054" y1="-13.065354" x2="-51.811132" y2="-13.162274" stroke="rgb(255,85,0)" />
    <line id="PEN_7_NIVEL_2" x1="-51.809778" y1="-13.165736" x2="-51.788108" y2="-13.221118" stroke="rgb(85,85,85)" />
    <line id="PEN_8_NIVEL_3" x1="-51.728515" y1="-13.373421" x2="-51.689238" y2="-13.473802" stroke="rgb(255,85,0)" />
    <line id="PEN_9_NIVEL_4" x1="-51.663505" y1="-13.539569" x2="-51.624229" y2="-13.639951" stroke="rgb(0,170,0)" />
    <line id="PEN_9_NIVEL_4" x1="-51.621520" y1="-13.646873" x2="-51.598496" y2="-13.705718" stroke="rgb(0,170,0)" />
    <line id="PEN_8_NIVEL_3" x1="-51.597141" y1="-13.709179" x2="-51.555156" y2="-13.816483" stroke="rgb(255,85,0)" />
    <line id="PEN_8_NIVEL_3" x1="-51.533486" y1="-13.871866" x2="-51.475248" y2="-14.020707" stroke="rgb(255,85,0)" />
    <line id="PEN_8_NIVEL_3" x1="-51.469830" y1="-14.034553" x2="-51.438680" y2="-14.114166" stroke="rgb(255,85,0)" />
    <line id="PEN_8_NIVEL_3" x1="-51.423782" y1="-14.152241" x2="-51.352000" y2="-14.335697" stroke="rgb(255,85,0)" />
    <line id="PEN_8_NIVEL_3" x1="-51.345228" y1="-14.353004" x2="-51.319495" y2="-14.418771" stroke="rgb(255,85,0)" />
    <line id="PEN_8_NIVEL_3" x1="-51.312723" y1="-14.436078" x2="-51.259902" y2="-14.571074" stroke="rgb(255,85,0)" />
    <line id="PEN_7_NIVEL_2" x1="-51.258548" y1="-14.574535" x2="-51.238233" y2="-14.626456" stroke="rgb(85,85,85)" />
    <line id="PEN_7_NIVEL_2" x1="-51.220626" y1="-14.671455" x2="-51.194893" y2="-14.737222" stroke="rgb(85,85,85)" />
    <line id="PEN_8_NIVEL_3" x1="-51.193538" y1="-14.740683" x2="-51.144781" y2="-14.865295" stroke="rgb(255,85,0)" />
    <line id="PEN_9_NIVEL_4" x1="-51.143426" y1="-14.868756" x2="-51.060810" y2="-15.079903" stroke="rgb(0,170,0)" />
    <line id="PEN_8_NIVEL_3" x1="-51.059455" y1="-15.083364" x2="-50.846819" y2="-15.626808" stroke="rgb(255,85,0)" />
    <line id="PEN_7_NIVEL_2" x1="-50.845465" y1="-15.630269" x2="-50.804833" y2="-15.734112" stroke="rgb(85,85,85)" />
    <line id="PEN_8_NIVEL_3" x1="-50.803479" y1="-15.737573" x2="-50.750659" y2="-15.872569" stroke="rgb(255,85,0)" />
    <line id="PEN_9_NIVEL_4" x1="-50.749304" y1="-15.876030" x2="-50.727634" y2="-15.931413" stroke="rgb(0,170,0)" />
    <line id="PEN_8_NIVEL_3" x1="-50.726280" y1="-15.934874" x2="-50.703255" y2="-15.993719" stroke="rgb(255,85,0)" />
    <line id="PEN_8_NIVEL_3" x1="-50.669396" y1="-16.080254" x2="-50.594906" y2="-16.270632" stroke="rgb(255,85,0)" />
    <line id="PEN_9_NIVEL_4" x1="-50.593551" y1="-16.274094" x2="-50.538022" y2="-16.416012" stroke="rgb(0,170,0)" />
    <line id="PEN_7_NIVEL_2" x1="-50.531250" y1="-16.433319" x2="-50.501454" y2="-16.509471" stroke="rgb(85,85,85)" />
    <line id="TRABAJO_CRUCES_PEN_1_0p5mm" x1="-52.131559" y1="-12.982280" x2="-51.631559" y2="-12.982280" stroke="rgb(255,0,0)" />
    <line id="TRABAJO_CRUCES_PEN_1_0p5mm" x1="-51.881559" y1="-12.732280" x2="-51.881559" y2="-13.232280" stroke="rgb(255,0,0)" />
  </g>
</svg>
