<?xml version="1.0" encoding="UTF-8"?>
<svg xmlns="http://www.w3.org/2000/svg"
     width="4.122769mm" height="5.729457mm"
     viewBox="-53.131559 -17.461737 4.122769 5.729457">
  <g fill="none" stroke-width="0.02" stroke-linecap="round">
    <line id="PEN_1_NIVEL_2" x1="-50.008790" y1="-14.001631" x2="-50.021052" y2="-14.064051" stroke="rgb(255,0,0)" />
    <line id="PEN_1_NIVEL_2" x1="-50.037643" y1="-14.148503" x2="-50.050627" y2="-14.214595" stroke="rgb(255,0,0)" />
    <line id="PEN_2_NIVEL_3" x1="-50.078037" y1="-14.354123" x2="-50.104726" y2="-14.489980" stroke="rgb(0,255,0)" />
    <line id="PEN_2_NIVEL_3" x1="-50.119152" y1="-14.563416" x2="-50.138628" y2="-14.662555" stroke="rgb(0,255,0)" />
    <line id="PEN_3_NIVEL_4" x1="-50.139350" y1="-14.666227" x2="-50.156661" y2="-14.754350" stroke="rgb(0,0,255)" />
    <line id="PEN_2_NIVEL_3" x1="-50.157383" y1="-14.758022" x2="-50.176137" y2="-14.853488" stroke="rgb(0,255,0)" />
    <line id="PEN_2_NIVEL_3" x1="-50.194170" y1="-14.945283" x2="-50.236728" y2="-15.161920" stroke="rgb(0,255,0)" />
    <line id="PEN_2_NIVEL_3" x1="-50.244663" y1="-15.202309" x2="-50.256925" y2="-15.264730" stroke="rgb(0,255,0)" />
    <line id="PEN_2_NIVEL_3" x1="-50.304533" y1="-15.507069" x2="-50.355747" y2="-15.767767" stroke="rgb(0,255,0)" />
    <line id="PEN_2_NIVEL_3" x1="-50.362239" y1="-15.800813" x2="-50.375222" y2="-15.866905" stroke="rgb(0,255,0)" />
    <line id="PEN_1_NIVEL_2" x1="-50.375944" y1="-15.870577" x2="-50.387485" y2="-15.929326" stroke="rgb(255,0,0)" />
    <line id="PEN_2_NIVEL_3" x1="-50.396141" y1="-15.973388" x2="-50.414174" y2="-16.065183" stroke="rgb(0,255,0)" />
    <line id="PEN_3_NIVEL_4" x1="-50.414895" y1="-16.068855" x2="-50.428600" y2="-16.138619" stroke="rgb(0,0,255)" />
    <line id="PEN_2_NIVEL_3" x1="-50.429322" y1="-16.142291" x2="-50.444469" y2="-16.219398" stroke="rgb(0,255,0)" />
    <line id="PEN_2_NIVEL_3" x1="-50.465388" y1="-16.325881" x2="-50.492077" y2="-16.461737" stroke="rgb(0,255,0)" />
    <line id="TRABAJO_CRUCES_PEN_1_0p5mm" x1="-52.131559" y1="-12.982280" x2="-51.631559" y2="-12.982280" stroke="rgb(255,0,0)" />
    <line id="TRABAJO_CRUCES_PEN_1_0p5mm" x1="-51.881559" y1="-12.732280" x2="-51.881559" y2="-13.232280" stroke="rgb(255,0,0)" />
  </g>
</svg>
