  0
SECTION
  2
HEADER
  9
$ACADVER
  1
AC1024
  9
$ACADMAINTVER
 70
6
  9
$DWGCODEPAGE
  3
ANSI_1252
  9
$LASTSAVEDBY
  1
ezdxf
  9
$INSBASE
 10
0.0
 20
0.0
 30
0.0
  9
$EXTMIN
 10
1e+20
 20
1e+20
 30
1e+20
  9
$EXTMAX
 10
-1e+20
 20
-1e+20
 30
-1e+20
  9
$LIMMIN
 10
0.0
 20
0.0
  9
$LIMMAX
 10
420.0
 20
297.0
  9
$ORTHOMODE
 70
0
  9
$REGENMODE
 70
1
  9
$FILLMODE
 70
1
  9
$QTEXTMODE
 70
0
  9
$MIRRTEXT
 70
1
  9
$LTSCALE
 40
1.0
  9
$ATTMODE
 70
1
  9
$TEXTSIZE
 40
2.5
  9
$TRACEWID
 40
1.0
  9
$TEXTSTYLE
  7
Standard
  9
$CLAYER
  8
0
  9
$CELTYPE
  6
ByLayer
  9
$CECOLOR
 62
256
  9
$CELTSCALE
 40
1.0
  9
$DISPSILH
 70
0
  9
$DIMSCALE
 40
1.0
  9
$DIMASZ
 40
2.5
  9
$DIMEXO
 40
0.625
  9
$DIMDLI
 40
3.75
  9
$DIMRND
 40
0.0
  9
$DIMDLE
 40
0.0
  9
$DIMEXE
 40
1.25
  9
$DIMTP
 40
0.0
  9
$DIMTM
 40
0.0
  9
$DIMTXT
 40
2.5
  9
$DIMCEN
 40
2.5
  9
$DIMTSZ
 40
0.0
  9
$DIMTOL
 70
0
  9
$DIMLIM
 70
0
  9
$DIMTIH
 70
0
  9
$DIMTOH
 70
0
  9
$DIMSE1
 70
0
  9
$DIMSE2
 70
0
  9
$DIMTAD
 70
1
  9
$DIMZIN
 70
8
  9
$DIMBLK
  1

  9
$DIMASO
 70
1
  9
$DIMSHO
 70
1
  9
$DIMPOST
  1

  9
$DIMAPOST
  1

  9
$DIMALT
 70
0
  9
$DIMALTD
 70
3
  9
$DIMALTF
 40
0.03937007874
  9
$DIMLFAC
 40
1.0
  9
$DIMTOFL
 70
1
  9
$DIMTVP
 40
0.0
  9
$DIMTIX
 70
0
  9
$DIMSOXD
 70
0
  9
$DIMSAH
 70
0
  9
$DIMBLK1
  1

  9
$DIMBLK2
  1

  9
$DIMSTYLE
  2
ISO-25
  9
$DIMCLRD
 70
0
  9
$DIMCLRE
 70
0
  9
$DIMCLRT
 70
0
  9
$DIMTFAC
 40
1.0
  9
$DIMGAP
 40
0.625
  9
$DIMJUST
 70
0
  9
$DIMSD1
 70
0
  9
$DIMSD2
 70
0
  9
$DIMTOLJ
 70
0
  9
$DIMTZIN
 70
8
  9
$DIMALTZ
 70
0
  9
$DIMALTTZ
 70
0
  9
$DIMUPT
 70
0
  9
$DIMDEC
 70
2
  9
$DIMTDEC
 70
2
  9
$DIMALTU
 70
2
  9
$DIMALTTD
 70
3
  9
$DIMTXSTY
  7
Standard
  9
$DIMAUNIT
 70
0
  9
$DIMADEC
 70
0
  9
$DIMALTRND
 40
0.0
  9
$DIMAZIN
 70
0
  9
$DIMDSEP
 70
44
  9
$DIMATFIT
 70
3
  9
$DIMFRAC
 70
0
  9
$DIMLDRBLK
  1

  9
$DIMLUNIT
 70
2
  9
$DIMLWD
 70
-2
  9
$DIMLWE
 70
-2
  9
$DIMTMOVE
 70
0
  9
$DIMFXL
 40
1.0
  9
$DIMFXLON
 70
0
  9
$DIMJOGANG
 40
0.785398163397
  9
$DIMTFILL
 70
0
  9
$DIMTFILLCLR
 70
0
  9
$DIMARCSYM
 70
0
  9
$DIMLTYPE
  6

  9
$DIMLTEX1
  6

  9
$DIMLTEX2
  6

  9
$DIMTXTDIRECTION
 70
0
  9
$LUNITS
 70
2
  9
$LUPREC
 70
4
  9
$SKETCHINC
 40
1.0
  9
$FILLETRAD
 40
10.0
  9
$AUNITS
 70
0
  9
$AUPREC
 70
2
  9
$MENU
  1
.
  9
$ELEVATION
 40
0.0
  9
$PELEVATION
 40
0.0
  9
$THICKNESS
 40
0.0
  9
$LIMCHECK
 70
0
  9
$CHAMFERA
 40
0.0
  9
$CHAMFERB
 40
0.0
  9
$CHAMFERC
 40
0.0
  9
$CHAMFERD
 40
0.0
  9
$SKPOLY
 70
0
  9
$TDCREATE
 40
2461223.721076389
  9
$TDUCREATE
 40
2458532.153996898
  9
$TDUPDATE
 40
2461223.721076389
  9
$TDUUPDATE
 40
2458532.1544311
  9
$TDINDWG
 40
0.0
  9
$TDUSRTIMER
 40
0.0
  9
$USRTIMER
 70
1
  9
$ANGBASE
 50
0.0
  9
$ANGDIR
 70
0
  9
$PDMODE
 70
0
  9
$PDSIZE
 40
0.0
  9
$PLINEWID
 40
0.0
  9
$SPLFRAME
 70
0
  9
$SPLINETYPE
 70
6
  9
$SPLINESEGS
 70
8
  9
$HANDSEED
  5
9C
  9
$SURFTAB1
 70
6
  9
$SURFTAB2
 70
6
  9
$SURFTYPE
 70
6
  9
$SURFU
 70
6
  9
$SURFV
 70
6
  9
$UCSBASE
  2

  9
$UCSNAME
  2

  9
$UCSORG
 10
0.0
 20
0.0
 30
0.0
  9
$UCSXDIR
 10
1.0
 20
0.0
 30
0.0
  9
$UCSYDIR
 10
0.0
 20
1.0
 30
0.0
  9
$UCSORTHOREF
  2

  9
$UCSORTHOVIEW
 70
0
  9
$UCSORGTOP
 10
0.0
 20
0.0
 30
0.0
  9
$UCSORGBOTTOM
 10
0.0
 20
0.0
 30
0.0
  9
$UCSORGLEFT
 10
0.0
 20
0.0
 30
0.0
  9
$UCSORGRIGHT
 10
0.0
 20
0.0
 30
0.0
  9
$UCSORGFRONT
 10
0.0
 20
0.0
 30
0.0
  9
$UCSORGBACK
 10
0.0
 20
0.0
 30
0.0
  9
$PUCSBASE
  2

  9
$PUCSNAME
  2

  9
$PUCSORG
 10
0.0
 20
0.0
 30
0.0
  9
$PUCSXDIR
 10
1.0
 20
0.0
 30
0.0
  9
$PUCSYDIR
 10
0.0
 20
1.0
 30
0.0
  9
$PUCSORTHOREF
  2

  9
$PUCSORTHOVIEW
 70
0
  9
$PUCSORGTOP
 10
0.0
 20
0.0
 30
0.0
  9
$PUCSORGBOTTOM
 10
0.0
 20
0.0
 30
0.0
  9
$PUCSORGLEFT
 10
0.0
 20
0.0
 30
0.0
  9
$PUCSORGRIGHT
 10
0.0
 20
0.0
 30
0.0
  9
$PUCSORGFRONT
 10
0.0
 20
0.0
 30
0.0
  9
$PUCSORGBACK
 10
0.0
 20
0.0
 30
0.0
  9
$USERI1
 70
0
  9
$USERI2
 70
0
  9
$USERI3
 70
0
  9
$USERI4
 70
0
  9
$USERI5
 70
0
  9
$USERR1
 40
0.0
  9
$USERR2
 40
0.0
  9
$USERR3
 40
0.0
  9
$USERR4
 40
0.0
  9
$USERR5
 40
0.0
  9
$WORLDVIEW
 70
1
  9
$SHADEDGE
 70
3
  9
$SHADEDIF
 70
70
  9
$TILEMODE
 70
1
  9
$MAXACTVP
 70
64
  9
$PINSBASE
 10
0.0
 20
0.0
 30
0.0
  9
$PLIMCHECK
 70
0
  9
$PEXTMIN
 10
1e+20
 20
1e+20
 30
1e+20
  9
$PEXTMAX
 10
-1e+20
 20
-1e+20
 30
-1e+20
  9
$PLIMMIN
 10
0.0
 20
0.0
  9
$PLIMMAX
 10
420.0
 20
297.0
  9
$UNITMODE
 70
0
  9
$VISRETAIN
 70
1
  9
$PLINEGEN
 70
0
  9
$PSLTSCALE
 70
1
  9
$TREEDEPTH
 70
3020
  9
$CMLSTYLE
  2
Standard
  9
$CMLJUST
 70
0
  9
$CMLSCALE
 40
20.0
  9
$PROXYGRAPHICS
 70
1
  9
$MEASUREMENT
 70
1
  9
$CELWEIGHT
370
-1
  9
$ENDCAPS
280
0
  9
$JOINSTYLE
280
0
  9
$LWDISPLAY
290
0
  9
$INSUNITS
 70
6
  9
$HYPERLINKBASE
  1

  9
$STYLESHEET
  1

  9
$XEDIT
290
1
  9
$CEPSNTYPE
380
0
  9
$PSTYLEMODE
290
1
  9
$FINGERPRINTGUID
  2
{055D2109-9AA4-471F-A012-85841BAA73A9}
  9
$VERSIONGUID
  2
{D37D1AC0-B533-46F6-A5ED-B0D9338A8CFF}
  9
$EXTNAMES
290
1
  9
$PSVPSCALE
 40
0.0
  9
$OLESTARTUP
290
0
  9
$SORTENTS
280
127
  9
$INDEXCTL
280
0
  9
$HIDETEXT
280
1
  9
$XCLIPFRAME
280
1
  9
$HALOGAP
280
0
  9
$OBSCOLOR
 70
257
  9
$OBSLTYPE
280
0
  9
$INTERSECTIONDISPLAY
280
0
  9
$INTERSECTIONCOLOR
 70
257
  9
$DIMASSOC
280
2
  9
$PROJECTNAME
  1

  9
$CAMERADISPLAY
290
0
  9
$LENSLENGTH
 40
50.0
  9
$CAMERAHEIGHT
 40
0.0
  9
$STEPSPERSEC
 40
24.0
  9
$STEPSIZE
 40
100.0
  9
$3DDWFPREC
 40
2.0
  9
$PSOLWIDTH
 40
0.005
  9
$PSOLHEIGHT
 40
0.08
  9
$LOFTANG1
 40
1.570796326795
  9
$LOFTANG2
 40
1.570796326795
  9
$LOFTMAG1
 40
0.0
  9
$LOFTMAG2
 40
0.0
  9
$LOFTPARAM
 70
7
  9
$LOFTNORMALS
280
1
  9
$LATITUDE
 40
37.795
  9
$LONGITUDE
 40
-122.394
  9
$NORTHDIRECTION
 40
0.0
  9
$TIMEZONE
 70
-8000
  9
$LIGHTGLYPHDISPLAY
280
1
  9
$TILEMODELIGHTSYNCH
280
1
  9
$CMATERIAL
347
20
  9
$SOLIDHIST
280
0
  9
$SHOWHIST
280
1
  9
$DWFFRAME
280
2
  9
$DGNFRAME
280
2
  9
$REALWORLDSCALE
290
1
  9
$INTERFERECOLOR
 62
256
  9
$CSHADOW
280
0
  9
$SHADOWPLANELOCATION
 40
0.0
  0
ENDSEC
  0
SECTION
  2
CLASSES
  0
CLASS
  1
ACDBDICTIONARYWDFLT
  2
AcDbDictionaryWithDefault
  3
ObjectDBX Classes
 90
0
 91
0
280
0
281
0
  0
CLASS
  1
SUN
  2
AcDbSun
  3
SCENEOE
 90
1153
 91
0
280
0
281
0
  0
CLASS
  1
VISUALSTYLE
  2
AcDbVisualStyle
  3
ObjectDBX Classes
 90
4095
 91
0
280
0
281
0
  0
CLASS
  1
MATERIAL
  2
AcDbMaterial
  3
ObjectDBX Classes
 90
1153
 91
0
280
0
281
0
  0
CLASS
  1
SCALE
  2
AcDbScale
  3
ObjectDBX Classes
 90
1153
 91
0
280
0
281
0
  0
CLASS
  1
TABLESTYLE
  2
AcDbTableStyle
  3
ObjectDBX Classes
 90
4095
 91
0
280
0
281
0
  0
CLASS
  1
MLEADERSTYLE
  2
AcDbMLeaderStyle
  3
ACDB_MLEADERSTYLE_CLASS
 90
4095
 91
0
280
0
281
0
  0
CLASS
  1
DICTIONARYVAR
  2
AcDbDictionaryVar
  3
ObjectDBX Classes
 90
0
 91
0
280
0
281
0
  0
CLASS
  1
CELLSTYLEMAP
  2
AcDbCellStyleMap
  3
ObjectDBX Classes
 90
1152
 91
0
280
0
281
0
  0
CLASS
  1
MENTALRAYRENDERSETTINGS
  2
AcDbMentalRayRenderSettings
  3
SCENEOE
 90
1024
 91
0
280
0
281
0
  0
CLASS
  1
ACDBDETAILVIEWSTYLE
  2
AcDbDetailViewStyle
  3
ObjectDBX Classes
 90
1025
 91
0
280
0
281
0
  0
CLASS
  1
ACDBSECTIONVIEWSTYLE
  2
AcDbSectionViewStyle
  3
ObjectDBX Classes
 90
1025
 91
0
280
0
281
0
  0
CLASS
  1
RASTERVARIABLES
  2
AcDbRasterVariables
  3
ISM
 90
0
 91
0
280
0
281
0
  0
CLASS
  1
ACDBPLACEHOLDER
  2
AcDbPlaceHolder
  3
ObjectDBX Classes
 90
0
 91
0
280
0
281
0
  0
CLASS
  1
LAYOUT
  2
AcDbLayout
  3
ObjectDBX Classes
 90
0
 91
0
280
0
281
0
  0
ENDSEC
  0
SECTION
  2
TABLES
  0
TABLE
  2
VPORT
  5
8
330
0
100
AcDbSymbolTable
 70
1
  0
VPORT
  5
23
330
8
100
AcDbSymbolTableRecord
100
AcDbViewportTableRecord
  2
*Active
 70
0
 10
0.0
 20
0.0
 11
1.0
 21
1.0
 12
0.0
 22
0.0
 13
0.0
 23
0.0
 14
0.5
 24
0.5
 15
0.5
 25
0.5
 16
0.0
 26
0.0
 36
1.0
 17
0.0
 27
0.0
 37
0.0
 40
1000.0
 41
1.34
 42
50.0
 43
0.0
 44
0.0
 50
0.0
 51
0.0
 71
0
 72
1000
 73
1
 74
3
 75
0
 76
0
 77
0
 78
0
281
0
 65
0
146
0.0
  0
ENDTAB
  0
TABLE
  2
LTYPE
  5
2
330
0
100
AcDbSymbolTable
 70
3
  0
LTYPE
  5
24
330
2
100
AcDbSymbolTableRecord
100
AcDbLinetypeTableRecord
  2
ByBlock
 70
0
  3

 72
65
 73
0
 40
0.0
  0
LTYPE
  5
25
330
2
100
AcDbSymbolTableRecord
100
AcDbLinetypeTableRecord
  2
ByLayer
 70
0
  3

 72
65
 73
0
 40
0.0
  0
LTYPE
  5
26
330
2
100
AcDbSymbolTableRecord
100
AcDbLinetypeTableRecord
  2
Continuous
 70
0
  3

 72
65
 73
0
 40
0.0
  0
ENDTAB
  0
TABLE
  2
LAYER
  5
1
330
0
100
AcDbSymbolTable
 70
12
  0
LAYER
  5
27
330
1
100
AcDbSymbolTableRecord
100
AcDbLayerTableRecord
  2
0
 70
0
 62
7
  6
Continuous
370
-3
390
13
347
21
  0
LAYER
  5
28
330
1
100
AcDbSymbolTableRecord
100
AcDbLayerTableRecord
  2
Defpoints
 70
0
 62
7
  6
Continuous
290
0
370
-3
390
13
347
21
  0
LAYER
  5
2F
330
1
100
AcDbSymbolTableRecord
100
AcDbLayerTableRecord
  2
LINE_00_BAND_01
 70
0
 62
2
  6
Continuous
370
-3
390
13
347
21
  0
LAYER
  5
31
330
1
100
AcDbSymbolTableRecord
100
AcDbLayerTableRecord
  2
LINE_00_BAND_00
 70
0
 62
1
  6
Continuous
370
-3
390
13
347
21
  0
LAYER
  5
4B
330
1
100
AcDbSymbolTableRecord
100
AcDbLayerTableRecord
  2
LINE_01_BAND_01
 70
0
 62
2
  6
Continuous
370
-3
390
13
347
21
  0
LAYER
  5
4D
330
1
100
AcDbSymbolTableRecord
100
AcDbLayerTableRecord
  2
LINE_01_BAND_00
 70
0
 62
1
  6
Continuous
370
-3
390
13
347
21
  0
LAYER
  5
5F
330
1
100
AcDbSymbolTableRecord
100
AcDbLayerTableRecord
  2
LINE_02_BAND_00
 70
0
 62
1
  6
Continuous
370
-3
390
13
347
21
  0
LAYER
  5
61
330
1
100
AcDbSymbolTableRecord
100
AcDbLayerTableRecord
  2
LINE_02_BAND_01
 70
0
 62
2
  6
Continuous
370
-3
390
13
347
21
  0
LAYER
  5
77
330
1
100
AcDbSymbolTableRecord
100
AcDbLayerTableRecord
  2
LINE_03_BAND_01
 70
0
 62
2
  6
Continuous
370
-3
390
13
347
21
  0
LAYER
  5
79
330
1
100
AcDbSymbolTableRecord
100
AcDbLayerTableRecord
  2
LINE_03_BAND_00
 70
0
 62
1
  6
Continuous
370
-3
390
13
347
21
  0
LAYER
  5
86
330
1
100
AcDbSymbolTableRecord
100
AcDbLayerTableRecord
  2
LINE_04_BAND_01
 70
0
 62
2
  6
Continuous
370
-3
390
13
347
21
  0
LAYER
  5
88
330
1
100
AcDbSymbolTableRecord
100
AcDbLayerTableRecord
  2
LINE_04_BAND_00
 70
0
 62
1
  6
Continuous
370
-3
390
13
347
21
  0
ENDTAB
  0
TABLE
  2
STYLE
  5
5
330
0
100
AcDbSymbolTable
 70
1
  0
STYLE
  5
29
330
5
100
AcDbSymbolTableRecord
100
AcDbTextStyleTableRecord
  2
Standard
 70
0
 40
0.0
 41
1.0
 50
0.0
 71
0
 42
2.5
  3
txt
  4

  0
ENDTAB
  0
TABLE
  2
VIEW
  5
7
330
0
100
AcDbSymbolTable
 70
0
  0
ENDTAB
  0
TABLE
  2
UCS
  5
6
330
0
100
AcDbSymbolTable
 70
0
  0
ENDTAB
  0
TABLE
  2
APPID
  5
3
330
0
100
AcDbSymbolTable
 70
3
  0
APPID
  5
2A
330
3
100
AcDbSymbolTableRecord
100
AcDbRegAppTableRecord
  2
ACAD
 70
0
  0
APPID
  5
99
330
3
100
AcDbSymbolTableRecord
100
AcDbRegAppTableRecord
  2
HATCHBACKGROUNDCOLOR
 70
0
  0
APPID
  5
9A
330
3
100
AcDbSymbolTableRecord
100
AcDbRegAppTableRecord
  2
EZDXF
 70
0
  0
ENDTAB
  0
TABLE
  2
DIMSTYLE
  5
4
330
0
100
AcDbSymbolTable
 70
1
100
AcDbDimStyleTable
  0
DIMSTYLE
105
2B
330
4
100
AcDbSymbolTableRecord
100
AcDbDimStyleTableRecord
  2
Standard
 70
0
 40
1.0
 41
2.5
 42
0.625
 43
3.75
 44
1.25
 45
0.0
 46
0.0
 47
0.0
 48
0.0
 49
2.5
140
2.5
141
2.5
142
0.0
143
0.03937007874
144
1.0
145
0.0
146
1.0
147
0.625
148
0.0
 69
0
 70
0
 71
0
 72
0
 73
0
 74
0
 75
0
 76
0
 77
1
 78
8
 79
3
170
0
171
3
172
1
173
0
174
0
175
0
176
0
177
0
178
0
179
2
271
2
272
2
273
2
274
3
275
0
276
0
277
2
278
44
279
0
280
0
281
0
282
0
283
0
284
8
285
0
286
0
288
0
289
3
290
0
371
-2
372
-2
  0
ENDTAB
  0
TABLE
  2
BLOCK_RECORD
  5
9
330
0
100
AcDbSymbolTable
 70
2
  0
BLOCK_RECORD
  5
17
330
9
100
AcDbSymbolTableRecord
100
AcDbBlockTableRecord
  2
*Model_Space
340
1A
 70
0
280
1
281
0
  0
BLOCK_RECORD
  5
1B
330
9
100
AcDbSymbolTableRecord
100
AcDbBlockTableRecord
  2
*Paper_Space
340
1E
 70
0
280
1
281
0
  0
ENDTAB
  0
ENDSEC
  0
SECTION
  2
BLOCKS
  0
BLOCK
  5
18
330
17
100
AcDbEntity
  8
0
100
AcDbBlockBegin
  2
*Model_Space
 70
0
 10
0.0
 20
0.0
 30
0.0
  3
*Model_Space
  1

  0
ENDBLK
  5
19
330
17
100
AcDbEntity
  8
0
100
AcDbBlockEnd
  0
BLOCK
  5
1C
330
1B
100
AcDbEntity
  8
0
100
AcDbBlockBegin
  2
*Paper_Space
 70
0
 10
0.0
 20
0.0
 30
0.0
  3
*Paper_Space
  1

  0
ENDBLK
  5
1D
330
1B
100
AcDbEntity
  8
0
100
AcDbBlockEnd
  0
ENDSEC
  0
SECTION
  2
ENTITIES
  0
LINE
  5
30
330
17
100
AcDbEntity
  8
LINE_00_BAND_01
 62
2
100
AcDbLine
 10
0.0
 20
-0.7694984242824036
 30
0.0
 11
0.08270878579772976
 21
-0.7694984242824036
 31
0.0
  0
LINE
  5
32
330
17
100
AcDbEntity
  8
LINE_00_BAND_00
 62
1
100
AcDbLine
 10
0.09452432662597687
 20
-0.7694984242824036
 30
0.0
 11
0.24812635739318928
 21
-0.7694984242824036
 31
0.0
  0
LINE
  5
33
330
17
100
AcDbEntity
  8
LINE_00_BAND_01
 62
2
100
AcDbLine
 10
0.2599418982214364
 20
-0.7694984242824036
 30
0.0
 11
0.9334277254315216
 21
-0.7694984242824036
 31
0.0
  0
LINE
  5
34
330
17
100
AcDbEntity
  8
LINE_00_BAND_00
 62
1
100
AcDbLine
 10
0.9452432662597688
 20
-0.7694984242824036
 30
0.0
 11
1.3587871952484174
 21
-0.7694984242824036
 31
0.0
  0
LINE
  5
35
330
17
100
AcDbEntity
  8
LINE_00_BAND_01
 62
2
100
AcDbLine
 10
1.3706027360766648
 20
-0.7694984242824036
 30
0.0
 11
1.5714669301568656
 21
-0.7694984242824036
 31
0.0
  0
LINE
  5
36
330
17
100
AcDbEntity
  8
LINE_00_BAND_00
 62
1
100
AcDbLine
 10
1.5832824709851125
 20
-0.7694984242824036
 30
0.0
 11
1.6541757159545953
 21
-0.7694984242824036
 31
0.0
  0
LINE
  5
37
330
17
100
AcDbEntity
  8
LINE_00_BAND_01
 62
2
100
AcDbLine
 10
1.6659912567828425
 20
-0.7694984242824036
 30
0.0
 11
2.1031662674279854
 21
-0.7694984242824036
 31
0.0
  0
LINE
  5
38
330
17
100
AcDbEntity
  8
LINE_00_BAND_00
 62
1
100
AcDbLine
 10
2.1149818082562324
 20
-0.7694984242824036
 30
0.0
 11
2.280399379851692
 21
-0.7694984242824036
 31
0.0
  0
LINE
  5
39
330
17
100
AcDbEntity
  8
LINE_00_BAND_01
 62
2
100
AcDbLine
 10
2.2922149206799394
 20
-0.7694984242824036
 30
0.0
 11
2.6466811455273525
 21
-0.7694984242824036
 31
0.0
  0
LINE
  5
3A
330
17
100
AcDbEntity
  8
LINE_00_BAND_00
 62
1
100
AcDbLine
 10
2.6584966863556
 20
-0.7694984242824036
 30
0.0
 11
3.7337109017260866
 21
-0.7694984242824036
 31
0.0
  0
LINE
  5
3B
330
17
100
AcDbEntity
  8
LINE_00_BAND_01
 62
2
100
AcDbLine
 10
3.7455264425543335
 20
-0.7694984242824036
 30
0.0
 11
3.8282352283520633
 21
-0.7694984242824036
 31
0.0
  0
LINE
  5
3C
330
17
100
AcDbEntity
  8
LINE_00_BAND_00
 62
1
100
AcDbLine
 10
3.8400507691803107
 20
-0.7694984242824036
 30
0.0
 11
4.324487943138442
 21
-0.7694984242824036
 31
0.0
  0
LINE
  5
3D
330
17
100
AcDbEntity
  8
LINE_00_BAND_01
 62
2
100
AcDbLine
 10
4.336303483966689
 20
-0.7694984242824036
 30
0.0
 11
4.643507545501114
 21
-0.7694984242824036
 31
0.0
  0
LINE
  5
3E
330
17
100
AcDbEntity
  8
LINE_00_BAND_00
 62
1
100
AcDbLine
 10
4.6553230863293615
 20
-0.7694984242824036
 30
0.0
 11
5.045235933661516
 21
-0.7694984242824036
 31
0.0
  0
LINE
  5
3F
330
17
100
AcDbEntity
  8
LINE_00_BAND_01
 62
2
100
AcDbLine
 10
5.0570514744897626
 20
-0.7694984242824036
 30
0.0
 11
5.198837964428729
 21
-0.7694984242824036
 31
0.0
  0
LINE
  5
40
330
17
100
AcDbEntity
  8
LINE_00_BAND_00
 62
1
100
AcDbLine
 10
5.210653505256976
 20
-0.7694984242824036
 30
0.0
 11
6.344945424768698
 21
-0.7694984242824036
 31
0.0
  0
LINE
  5
41
330
17
100
AcDbEntity
  8
LINE_00_BAND_01
 62
2
100
AcDbLine
 10
6.356760965596945
 20
-0.7694984242824036
 30
0.0
 11
6.7466738129290995
 21
-0.7694984242824036
 31
0.0
  0
LINE
  5
42
330
17
100
AcDbEntity
  8
LINE_00_BAND_00
 62
1
100
AcDbLine
 10
6.758489353757346
 20
-0.7694984242824036
 30
0.0
 11
6.912091384524559
 21
-0.7694984242824036
 31
0.0
  0
LINE
  5
43
330
17
100
AcDbEntity
  8
LINE_00_BAND_01
 62
2
100
AcDbLine
 10
6.923906925352806
 20
-0.7694984242824036
 30
0.0
 11
7.042062333635278
 21
-0.7694984242824036
 31
0.0
  0
LINE
  5
44
330
17
100
AcDbEntity
  8
LINE_00_BAND_00
 62
1
100
AcDbLine
 10
7.053877874463525
 20
-0.7694984242824036
 30
0.0
 11
15.998242281446586
 21
-0.7694984242824036
 31
0.0
  0
LINE
  5
45
330
17
100
AcDbEntity
  8
LINE_00_BAND_01
 62
2
100
AcDbLine
 10
16.010057822274835
 20
-0.7694984242824036
 30
0.0
 11
16.080951067244317
 21
-0.7694984242824036
 31
0.0
  0
LINE
  5
46
330
17
100
AcDbEntity
  8
LINE_00_BAND_00
 62
1
100
AcDbLine
 10
16.092766608072562
 20
-0.7694984242824036
 30
0.0
 11
16.612650404515435
 21
-0.7694984242824036
 31
0.0
  0
LINE
  5
47
330
17
100
AcDbEntity
  8
LINE_00_BAND_01
 62
2
100
AcDbLine
 10
16.624465945343683
 20
-0.7694984242824036
 30
0.0
 11
16.778067976110894
 21
-0.7694984242824036
 31
0.0
  0
LINE
  5
48
330
17
100
AcDbEntity
  8
LINE_00_BAND_00
 62
1
100
AcDbLine
 10
16.789883516939142
 20
-0.7694984242824036
 30
0.0
 11
17.321582854210263
 21
-0.7694984242824036
 31
0.0
  0
LINE
  5
49
330
17
100
AcDbEntity
  8
LINE_00_BAND_01
 62
2
100
AcDbLine
 10
17.33339839503851
 20
-0.7694984242824036
 30
0.0
 11
17.392476099179746
 21
-0.7694984242824036
 31
0.0
  0
LINE
  5
4A
330
17
100
AcDbEntity
  8
LINE_00_BAND_00
 62
1
100
AcDbLine
 10
17.404291640007994
 20
-0.7694984242824036
 30
0.0
 11
17.924175436450867
 21
-0.7694984242824036
 31
0.0
  0
LINE
  5
4C
330
17
100
AcDbEntity
  8
LINE_01_BAND_01
 62
2
100
AcDbLine
 10
0.0
 20
-4.466702247685233
 30
0.0
 11
0.33083514319091906
 21
-4.466702247685233
 31
0.0
  0
LINE
  5
4E
330
17
100
AcDbEntity
  8
LINE_01_BAND_00
 62
1
100
AcDbLine
 10
0.3426506840191662
 20
-4.466702247685233
 30
0.0
 11
0.437175010645143
 21
-4.466702247685233
 31
0.0
  0
LINE
  5
4F
330
17
100
AcDbEntity
  8
LINE_01_BAND_01
 62
2
100
AcDbLine
 10
0.4489905514733902
 20
-4.466702247685233
 30
0.0
 11
0.6144081230688496
 21
-4.466702247685233
 31
0.0
  0
LINE
  5
50
330
17
100
AcDbEntity
  8
LINE_01_BAND_00
 62
1
100
AcDbLine
 10
0.6262236638970968
 20
-4.466702247685233
 30
0.0
 11
0.7207479905230737
 21
-4.466702247685233
 31
0.0
  0
LINE
  5
51
330
17
100
AcDbEntity
  8
LINE_01_BAND_01
 62
2
100
AcDbLine
 10
0.7325635313513208
 20
-4.466702247685233
 30
0.0
 11
1.1342919195117225
 21
-4.466702247685233
 31
0.0
  0
LINE
  5
52
330
17
100
AcDbEntity
  8
LINE_01_BAND_00
 62
1
100
AcDbLine
 10
1.1461074603399697
 20
-4.466702247685233
 30
0.0
 11
3.4028757585351674
 21
-4.466702247685233
 31
0.0
  0
LINE
  5
53
330
17
100
AcDbEntity
  8
LINE_01_BAND_01
 62
2
100
AcDbLine
 10
3.4146912993634144
 20
-4.466702247685233
 30
0.0
 11
3.461953462676403
 21
-4.466702247685233
 31
0.0
  0
LINE
  5
54
330
17
100
AcDbEntity
  8
LINE_01_BAND_00
 62
1
100
AcDbLine
 10
3.4737690035046502
 20
-4.466702247685233
 30
0.0
 11
3.5328467076458856
 21
-4.466702247685233
 31
0.0
  0
LINE
  5
55
330
17
100
AcDbEntity
  8
LINE_01_BAND_01
 62
2
100
AcDbLine
 10
3.544662248474133
 20
-4.466702247685233
 30
0.0
 11
3.792788605867322
 21
-4.466702247685233
 31
0.0
  0
LINE
  5
56
330
17
100
AcDbEntity
  8
LINE_01_BAND_00
 62
1
100
AcDbLine
 10
3.8046041466955693
 20
-4.466702247685233
 30
0.0
 11
10.409491469685703
 21
-4.466702247685233
 31
0.0
  0
LINE
  5
57
330
17
100
AcDbEntity
  8
LINE_01_BAND_01
 62
2
100
AcDbLine
 10
10.421307010513951
 20
-4.466702247685233
 30
0.0
 11
10.480384714655186
 21
-4.466702247685233
 31
0.0
  0
LINE
  5
58
330
17
100
AcDbEntity
  8
LINE_01_BAND_00
 62
1
100
AcDbLine
 10
10.492200255483434
 20
-4.466702247685233
 30
0.0
 11
10.539462418796422
 21
-4.466702247685233
 31
0.0
  0
LINE
  5
59
330
17
100
AcDbEntity
  8
LINE_01_BAND_01
 62
2
100
AcDbLine
 10
10.551277959624668
 20
-4.466702247685233
 30
0.0
 11
10.645802286250646
 21
-4.466702247685233
 31
0.0
  0
LINE
  5
5A
330
17
100
AcDbEntity
  8
LINE_01_BAND_00
 62
1
100
AcDbLine
 10
10.657617827078893
 20
-4.466702247685233
 30
0.0
 11
15.714669301568655
 21
-4.466702247685233
 31
0.0
  0
LINE
  5
5B
330
17
100
AcDbEntity
  8
LINE_01_BAND_01
 62
2
100
AcDbLine
 10
15.726484842396903
 20
-4.466702247685233
 30
0.0
 11
15.797378087366386
 21
-4.466702247685233
 31
0.0
  0
LINE
  5
5C
330
17
100
AcDbEntity
  8
LINE_01_BAND_00
 62
1
100
AcDbLine
 10
15.809193628194631
 20
-4.466702247685233
 30
0.0
 11
16.459048373748224
 21
-4.466702247685233
 31
0.0
  0
LINE
  5
5D
330
17
100
AcDbEntity
  8
LINE_01_BAND_01
 62
2
100
AcDbLine
 10
16.47086391457647
 20
-4.466702247685233
 30
0.0
 11
17.00256325184759
 21
-4.466702247685233
 31
0.0
  0
LINE
  5
5E
330
17
100
AcDbEntity
  8
LINE_01_BAND_00
 62
1
100
AcDbLine
 10
17.01437879267584
 20
-4.466702247685233
 30
0.0
 11
17.924175436450867
 21
-4.466702247685233
 31
0.0
  0
LINE
  5
60
330
17
100
AcDbEntity
  8
LINE_02_BAND_00
 62
1
100
AcDbLine
 10
0.0
 20
-8.132104769382973
 30
0.0
 11
0.17723311242370665
 21
-8.132104769382973
 31
0.0
  0
LINE
  5
62
330
17
100
AcDbEntity
  8
LINE_02_BAND_01
 62
2
100
AcDbLine
 10
0.18904865325195375
 20
-8.132104769382973
 30
0.0
 11
0.5553304189276141
 21
-8.132104769382973
 31
0.0
  0
LINE
  5
63
330
17
100
AcDbEntity
  8
LINE_02_BAND_00
 62
1
100
AcDbLine
 10
0.5671459597558612
 20
-8.132104769382973
 30
0.0
 11
0.862534480462039
 21
-8.132104769382973
 31
0.0
  0
LINE
  5
64
330
17
100
AcDbEntity
  8
LINE_02_BAND_01
 62
2
100
AcDbLine
 10
0.874350021290286
 20
-8.132104769382973
 30
0.0
 11
1.1106608378552283
 21
-8.132104769382973
 31
0.0
  0
LINE
  5
65
330
17
100
AcDbEntity
  8
LINE_02_BAND_00
 62
1
100
AcDbLine
 10
1.1224763786834753
 20
-8.132104769382973
 30
0.0
 11
1.1697385419964639
 21
-8.132104769382973
 31
0.0
  0
LINE
  5
66
330
17
100
AcDbEntity
  8
LINE_02_BAND_01
 62
2
100
AcDbLine
 10
1.1815540828247109
 20
-8.132104769382973
 30
0.0
 11
1.2406317869659467
 21
-8.132104769382973
 31
0.0
  0
LINE
  5
67
330
17
100
AcDbEntity
  8
LINE_02_BAND_00
 62
1
100
AcDbLine
 10
1.2524473277941937
 20
-8.132104769382973
 30
0.0
 11
1.3351561135919234
 21
-8.132104769382973
 31
0.0
  0
LINE
  5
68
330
17
100
AcDbEntity
  8
LINE_02_BAND_01
 62
2
100
AcDbLine
 10
1.3469716544201704
 20
-8.132104769382973
 30
0.0
 11
1.9023020733477847
 21
-8.132104769382973
 31
0.0
  0
LINE
  5
69
330
17
100
AcDbEntity
  8
LINE_02_BAND_00
 62
1
100
AcDbLine
 10
1.9141176141760317
 20
-8.132104769382973
 30
0.0
 11
2.150428430740974
 21
-8.132104769382973
 31
0.0
  0
LINE
  5
6A
330
17
100
AcDbEntity
  8
LINE_02_BAND_01
 62
2
100
AcDbLine
 10
2.162243971569221
 20
-8.132104769382973
 30
0.0
 11
2.5048946555883873
 21
-8.132104769382973
 31
0.0
  0
LINE
  5
6B
330
17
100
AcDbEntity
  8
LINE_02_BAND_00
 62
1
100
AcDbLine
 10
2.5167101964166343
 20
-8.132104769382973
 30
0.0
 11
14.403144269633227
 21
-8.132104769382973
 31
0.0
  0
LINE
  5
6C
330
17
100
AcDbEntity
  8
LINE_02_BAND_01
 62
2
100
AcDbLine
 10
14.414959810461474
 20
-8.132104769382973
 30
0.0
 11
14.462221973774462
 21
-8.132104769382973
 31
0.0
  0
LINE
  5
6D
330
17
100
AcDbEntity
  8
LINE_02_BAND_00
 62
1
100
AcDbLine
 10
14.47403751460271
 20
-8.132104769382973
 30
0.0
 11
14.639455086198168
 21
-8.132104769382973
 31
0.0
  0
LINE
  5
6E
330
17
100
AcDbEntity
  8
LINE_02_BAND_01
 62
2
100
AcDbLine
 10
14.651270627026417
 20
-8.132104769382973
 30
0.0
 11
14.816688198621875
 21
-8.132104769382973
 31
0.0
  0
LINE
  5
6F
330
17
100
AcDbEntity
  8
LINE_02_BAND_00
 62
1
100
AcDbLine
 10
14.828503739450122
 20
-8.132104769382973
 30
0.0
 11
16.010057822274835
 21
-8.132104769382973
 31
0.0
  0
LINE
  5
70
330
17
100
AcDbEntity
  8
LINE_02_BAND_01
 62
2
100
AcDbLine
 10
16.02187336310308
 20
-8.132104769382973
 30
0.0
 11
16.10458214890081
 21
-8.132104769382973
 31
0.0
  0
LINE
  5
71
330
17
100
AcDbEntity
  8
LINE_02_BAND_00
 62
1
100
AcDbLine
 10
16.11639768972906
 20
-8.132104769382973
 30
0.0
 11
16.636281486171928
 21
-8.132104769382973
 31
0.0
  0
LINE
  5
72
330
17
100
AcDbEntity
  8
LINE_02_BAND_01
 62
2
100
AcDbLine
 10
16.648097027000176
 20
-8.132104769382973
 30
0.0
 11
16.683543649484918
 21
-8.132104769382973
 31
0.0
  0
LINE
  5
73
330
17
100
AcDbEntity
  8
LINE_02_BAND_00
 62
1
100
AcDbLine
 10
16.695359190313166
 20
-8.132104769382973
 30
0.0
 11
17.120718660130063
 21
-8.132104769382973
 31
0.0
  0
LINE
  5
74
330
17
100
AcDbEntity
  8
LINE_02_BAND_01
 62
2
100
AcDbLine
 10
17.132534200958307
 20
-8.132104769382973
 30
0.0
 11
17.191611905099546
 21
-8.132104769382973
 31
0.0
  0
LINE
  5
75
330
17
100
AcDbEntity
  8
LINE_02_BAND_00
 62
1
100
AcDbLine
 10
17.20342744592779
 20
-8.132104769382973
 30
0.0
 11
17.68786461988592
 21
-8.132104769382973
 31
0.0
  0
LINE
  5
76
330
17
100
AcDbEntity
  8
LINE_02_BAND_01
 62
2
100
AcDbLine
 10
17.69968016071417
 20
-8.132104769382973
 30
0.0
 11
17.924175436450867
 21
-8.132104769382973
 31
0.0
  0
LINE
  5
78
330
17
100
AcDbEntity
  8
LINE_03_BAND_01
 62
2
100
AcDbLine
 10
0.0
 20
-10.947621381219905
 30
0.0
 11
0.07089324496948265
 21
-10.947621381219905
 31
0.0
  0
LINE
  5
7A
330
17
100
AcDbEntity
  8
LINE_03_BAND_00
 62
1
100
AcDbLine
 10
0.08270878579772976
 20
-10.947621381219905
 30
0.0
 11
0.1417864899389653
 21
-10.947621381219905
 31
0.0
  0
LINE
  5
7B
330
17
100
AcDbEntity
  8
LINE_03_BAND_01
 62
2
100
AcDbLine
 10
0.1536020307672124
 20
-10.947621381219905
 30
0.0
 11
0.3544662248474133
 21
-10.947621381219905
 31
0.0
  0
LINE
  5
7C
330
17
100
AcDbEntity
  8
LINE_03_BAND_00
 62
1
100
AcDbLine
 10
0.3662817656756604
 20
-10.947621381219905
 30
0.0
 11
0.46080609230163727
 21
-10.947621381219905
 31
0.0
  0
LINE
  5
7D
330
17
100
AcDbEntity
  8
LINE_03_BAND_01
 62
2
100
AcDbLine
 10
0.4726216331298844
 20
-10.947621381219905
 30
0.0
 11
0.53169933727112
 21
-10.947621381219905
 31
0.0
  0
LINE
  5
7E
330
17
100
AcDbEntity
  8
LINE_03_BAND_00
 62
1
100
AcDbLine
 10
0.543514878099367
 20
-10.947621381219905
 30
0.0
 11
3.2020115644549665
 21
-10.947621381219905
 31
0.0
  0
LINE
  5
7F
330
17
100
AcDbEntity
  8
LINE_03_BAND_01
 62
2
100
AcDbLine
 10
3.213827105283214
 20
-10.947621381219905
 30
0.0
 11
3.438322381019909
 21
-10.947621381219905
 31
0.0
  0
LINE
  5
80
330
17
100
AcDbEntity
  8
LINE_03_BAND_00
 62
1
100
AcDbLine
 10
3.450137921848156
 20
-10.947621381219905
 30
0.0
 11
9.558772530051911
 21
-10.947621381219905
 31
0.0
  0
LINE
  5
81
330
17
100
AcDbEntity
  8
LINE_03_BAND_01
 62
2
100
AcDbLine
 10
9.57058807088016
 20
-10.947621381219905
 30
0.0
 11
9.830529969101594
 21
-10.947621381219905
 31
0.0
  0
LINE
  5
82
330
17
100
AcDbEntity
  8
LINE_03_BAND_00
 62
1
100
AcDbLine
 10
9.842345509929842
 20
-10.947621381219905
 30
0.0
 11
16.71899027196966
 21
-10.947621381219905
 31
0.0
  0
LINE
  5
83
330
17
100
AcDbEntity
  8
LINE_03_BAND_01
 62
2
100
AcDbLine
 10
16.730805812797907
 20
-10.947621381219905
 30
0.0
 11
16.83714568025213
 21
-10.947621381219905
 31
0.0
  0
LINE
  5
84
330
17
100
AcDbEntity
  8
LINE_03_BAND_00
 62
1
100
AcDbLine
 10
16.848961221080376
 20
-10.947621381219905
 30
0.0
 11
17.794204487340146
 21
-10.947621381219905
 31
0.0
  0
LINE
  5
85
330
17
100
AcDbEntity
  8
LINE_03_BAND_01
 62
2
100
AcDbLine
 10
17.806020028168394
 20
-10.947621381219905
 30
0.0
 11
17.924175436450867
 21
-10.947621381219905
 31
0.0
  0
LINE
  5
87
330
17
100
AcDbEntity
  8
LINE_04_BAND_01
 62
2
100
AcDbLine
 10
0.0
 20
-14.208418268248401
 30
0.0
 11
0.46080609230163727
 21
-14.208418268248401
 31
0.0
  0
LINE
  5
89
330
17
100
AcDbEntity
  8
LINE_04_BAND_00
 62
1
100
AcDbLine
 10
0.4726216331298844
 20
-14.208418268248401
 30
0.0
 11
0.6025925822406026
 21
-14.208418268248401
 31
0.0
  0
LINE
  5
8A
330
17
100
AcDbEntity
  8
LINE_04_BAND_01
 62
2
100
AcDbLine
 10
0.6144081230688496
 20
-14.208418268248401
 30
0.0
 11
0.7089324496948266
 21
-14.208418268248401
 31
0.0
  0
LINE
  5
8B
330
17
100
AcDbEntity
  8
LINE_04_BAND_00
 62
1
100
AcDbLine
 10
0.7207479905230737
 20
-14.208418268248401
 30
0.0
 11
2.9775162887182716
 21
-14.208418268248401
 31
0.0
  0
LINE
  5
8C
330
17
100
AcDbEntity
  8
LINE_04_BAND_01
 62
2
100
AcDbLine
 10
2.9893318295465185
 20
-14.208418268248401
 30
0.0
 11
3.0838561561724953
 21
-14.208418268248401
 31
0.0
  0
LINE
  5
8D
330
17
100
AcDbEntity
  8
LINE_04_BAND_00
 62
1
100
AcDbLine
 10
3.0956716970007427
 20
-14.208418268248401
 30
0.0
 11
4.348119024794936
 21
-14.208418268248401
 31
0.0
  0
LINE
  5
8E
330
17
100
AcDbEntity
  8
LINE_04_BAND_01
 62
2
100
AcDbLine
 10
4.359934565623184
 20
-14.208418268248401
 30
0.0
 11
4.560798759703384
 21
-14.208418268248401
 31
0.0
  0
LINE
  5
8F
330
17
100
AcDbEntity
  8
LINE_04_BAND_00
 62
1
100
AcDbLine
 10
4.572614300531632
 20
-14.208418268248401
 30
0.0
 11
5.198837964428729
 21
-14.208418268248401
 31
0.0
  0
LINE
  5
90
330
17
100
AcDbEntity
  8
LINE_04_BAND_01
 62
2
100
AcDbLine
 10
5.210653505256976
 20
-14.208418268248401
 30
0.0
 11
5.399702158508929
 21
-14.208418268248401
 31
0.0
  0
LINE
  5
91
330
17
100
AcDbEntity
  8
LINE_04_BAND_00
 62
1
100
AcDbLine
 10
5.4115176993371765
 20
-14.208418268248401
 30
0.0
 11
14.095940208098801
 21
-14.208418268248401
 31
0.0
  0
LINE
  5
92
330
17
100
AcDbEntity
  8
LINE_04_BAND_01
 62
2
100
AcDbLine
 10
14.10775574892705
 20
-14.208418268248401
 30
0.0
 11
14.237726698037767
 21
-14.208418268248401
 31
0.0
  0
LINE
  5
93
330
17
100
AcDbEntity
  8
LINE_04_BAND_00
 62
1
100
AcDbLine
 10
14.249542238866015
 20
-14.208418268248401
 30
0.0
 11
16.080951067244317
 21
-14.208418268248401
 31
0.0
  0
LINE
  5
94
330
17
100
AcDbEntity
  8
LINE_04_BAND_01
 62
2
100
AcDbLine
 10
16.092766608072562
 20
-14.208418268248401
 30
0.0
 11
16.36452404712225
 21
-14.208418268248401
 31
0.0
  0
LINE
  5
95
330
17
100
AcDbEntity
  8
LINE_04_BAND_00
 62
1
100
AcDbLine
 10
16.376339587950493
 20
-14.208418268248401
 30
0.0
 11
16.742621353626152
 21
-14.208418268248401
 31
0.0
  0
LINE
  5
96
330
17
100
AcDbEntity
  8
LINE_04_BAND_01
 62
2
100
AcDbLine
 10
16.7544368944544
 20
-14.208418268248401
 30
0.0
 11
16.990747711019342
 21
-14.208418268248401
 31
0.0
  0
LINE
  5
97
330
17
100
AcDbEntity
  8
LINE_04_BAND_00
 62
1
100
AcDbLine
 10
17.00256325184759
 20
-14.208418268248401
 30
0.0
 11
17.475184884977477
 21
-14.208418268248401
 31
0.0
  0
LINE
  5
98
330
17
100
AcDbEntity
  8
LINE_04_BAND_01
 62
2
100
AcDbLine
 10
17.48700042580572
 20
-14.208418268248401
 30
0.0
 11
17.924175436450867
 21
-14.208418268248401
 31
0.0
  0
ENDSEC
  0
SECTION
  2
OBJECTS
  0
DICTIONARY
  5
A
330
0
100
AcDbDictionary
281
1
  3
ACAD_COLOR
350
B
  3
ACAD_GROUP
350
C
  3
ACAD_LAYOUT
350
D
  3
ACAD_MATERIAL
350
E
  3
ACAD_MLEADERSTYLE
350
F
  3
ACAD_MLINESTYLE
350
10
  3
ACAD_PLOTSETTINGS
350
11
  3
ACAD_PLOTSTYLENAME
350
12
  3
ACAD_SCALELIST
350
14
  3
ACAD_TABLESTYLE
350
15
  3
ACAD_VISUALSTYLE
350
16
  3
EZDXF_META
350
2D
  0
DICTIONARY
  5
B
330
A
100
AcDbDictionary
281
1
  0
DICTIONARY
  5
C
330
A
100
AcDbDictionary
281
1
  0
DICTIONARY
  5
D
330
A
100
AcDbDictionary
281
1
  3
Model
350
1A
  3
Layout1
350
1E
  0
DICTIONARY
  5
E
330
A
100
AcDbDictionary
281
1
  3
ByBlock
350
1F
  3
ByLayer
350
20
  3
Global
350
21
  0
DICTIONARY
  5
F
330
A
100
AcDbDictionary
281
1
  3
Standard
350
2C
  0
DICTIONARY
  5
10
330
A
100
AcDbDictionary
281
1
  3
Standard
350
22
  0
DICTIONARY
  5
11
330
A
100
AcDbDictionary
281
1
  0
ACDBDICTIONARYWDFLT
  5
12
330
A
100
AcDbDictionary
281
1
  3
Normal
350
13
100
AcDbDictionaryWithDefault
340
13
  0
ACDBPLACEHOLDER
  5
13
330
12
  0
DICTIONARY
  5
14
330
A
100
AcDbDictionary
281
1
  0
DICTIONARY
  5
15
330
A
100
AcDbDictionary
281
1
  0
DICTIONARY
  5
16
330
A
100
AcDbDictionary
281
1
  0
LAYOUT
  5
1A
330
D
100
AcDbPlotSettings
  1

  4
A3
  6

 40
7.5
 41
20.0
 42
7.5
 43
20.0
 44
420.0
 45
297.0
 46
0.0
 47
0.0
 48
0.0
 49
0.0
140
0.0
141
0.0
142
1.0
143
1.0
 70
1024
 72
1
 73
0
 74
5
  7

 75
16
 76
0
 77
2
 78
300
147
1.0
148
0.0
149
0.0
100
AcDbLayout
  1
Model
 70
1
 71
0
 10
0.0
 20
0.0
 11
420.0
 21
297.0
 12
0.0
 22
0.0
 32
0.0
 14
1e+20
 24
1e+20
 34
1e+20
 15
-1e+20
 25
-1e+20
 35
-1e+20
146
0.0
 13
0.0
 23
0.0
 33
0.0
 16
1.0
 26
0.0
 36
0.0
 17
0.0
 27
1.0
 37
0.0
 76
1
330
17
  0
LAYOUT
  5
1E
330
D
100
AcDbPlotSettings
  1

  4
A3
  6

 40
7.5
 41
20.0
 42
7.5
 43
20.0
 44
420.0
 45
297.0
 46
0.0
 47
0.0
 48
0.0
 49
0.0
140
0.0
141
0.0
142
1.0
143
1.0
 70
0
 72
1
 73
0
 74
5
  7

 75
16
 76
0
 77
2
 78
300
147
1.0
148
0.0
149
0.0
100
AcDbLayout
  1
Layout1
 70
1
 71
1
 10
0.0
 20
0.0
 11
420.0
 21
297.0
 12
0.0
 22
0.0
 32
0.0
 14
1e+20
 24
1e+20
 34
1e+20
 15
-1e+20
 25
-1e+20
 35
-1e+20
146
0.0
 13
0.0
 23
0.0
 33
0.0
 16
1.0
 26
0.0
 36
0.0
 17
0.0
 27
1.0
 37
0.0
 76
1
330
1B
  0
MATERIAL
  5
1F
102
{ACAD_REACTORS
330
E
102
}
330
E
100
AcDbMaterial
  1
ByBlock
  2

 70
0
 40
1.0
 71
1
 41
1.0
 91
-1023410177
 42
1.0
 72
1
  3

 73
1
 74
1
 75
1
 44
0.5
 73
0
 45
1.0
 46
1.0
 77
1
  4

 78
1
 79
1
170
1
 48
1.0
171
1
  6

172
1
173
1
174
1
140
1.0
141
1.0
175
1
  7

176
1
177
1
178
1
143
1.0
179
1
  8

270
1
271
1
272
1
145
1.0
146
1.0
273
1
  9

274
1
275
1
276
1
 42
1.0
 72
1
  3

 73
1
 74
1
 75
1
 94
63
  0
MATERIAL
  5
20
102
{ACAD_REACTORS
330
E
102
}
330
E
100
AcDbMaterial
  1
ByLayer
  2

 70
0
 40
1.0
 71
1
 41
1.0
 91
-1023410177
 42
1.0
 72
1
  3

 73
1
 74
1
 75
1
 44
0.5
 73
0
 45
1.0
 46
1.0
 77
1
  4

 78
1
 79
1
170
1
 48
1.0
171
1
  6

172
1
173
1
174
1
140
1.0
141
1.0
175
1
  7

176
1
177
1
178
1
143
1.0
179
1
  8

270
1
271
1
272
1
145
1.0
146
1.0
273
1
  9

274
1
275
1
276
1
 42
1.0
 72
1
  3

 73
1
 74
1
 75
1
 94
63
  0
MATERIAL
  5
21
102
{ACAD_REACTORS
330
E
102
}
330
E
100
AcDbMaterial
  1
Global
  2

 70
0
 40
1.0
 71
1
 41
1.0
 91
-1023410177
 42
1.0
 72
1
  3

 73
1
 74
1
 75
1
 44
0.5
 73
0
 45
1.0
 46
1.0
 77
1
  4

 78
1
 79
1
170
1
 48
1.0
171
1
  6

172
1
173
1
174
1
140
1.0
141
1.0
175
1
  7

176
1
177
1
178
1
143
1.0
179
1
  8

270
1
271
1
272
1
145
1.0
146
1.0
273
1
  9

274
1
275
1
276
1
 42
1.0
 72
1
  3

 73
1
 74
1
 75
1
 94
63
  0
MLINESTYLE
  5
22
102
{ACAD_REACTORS
330
10
102
}
330
10
100
AcDbMlineStyle
  2
Standard
 70
0
  3

 62
256
 51
90.0
 52
90.0
 71
2
 49
0.5
 62
256
  6
BYLAYER
 49
-0.5
 62
256
  6
BYLAYER
  0
MLEADERSTYLE
  5
2C
102
{ACAD_REACTORS
330
F
102
}
330
F
100
AcDbMLeaderStyle
179
2
170
2
171
1
172
0
 90
2
 40
0.0
 41
0.0
173
1
 91
-1056964608
 92
-2
290
1
 42
2.0
291
1
 43
8.0
  3
Standard
 44
4.0
300

342
29
174
1
175
1
176
0
178
1
 93
-1056964608
 45
4.0
292
0
297
0
 46
4.0
 94
-1056964608
 47
1.0
 49
1.0
140
1.0
294
1
141
0.0
177
0
142
1.0
295
0
296
0
143
3.75
271
0
272
9
273
9
  0
DICTIONARY
  5
2D
330
A
100
AcDbDictionary
280
1
281
1
  3
CREATED_BY_EZDXF
350
2E
  3
WRITTEN_BY_EZDXF
350
9B
  0
DICTIONARYVAR
  5
2E
330
2D
100
DictionaryVariables
280
0
  1
1.4.4 @ 2026-07-01T21:18:21.072534+00:00
  0
DICTIONARYVAR
  5
9B
330
2D
100
DictionaryVariables
280
0
  1
1.4.4 @ 2026-07-01T21:18:21.103529+00:00
  0
ENDSEC
  0
EOF
